<?xml version="1.0" encoding="UTF-8" standalone="no"?>
<!-- Created with Inkscape (http://www.inkscape.org/) -->

<svg
   width="240mm"
   height="120mm"
   viewBox="0 0 240 120"
   version="1.1"
   id="svg8"
   inkscape:version="1.4 (e7c3feb1, 2024-10-09)"
   sodipodi:docname="cooformat.svg"
   xmlns:inkscape="http://www.inkscape.org/namespaces/inkscape"
   xmlns:sodipodi="http://sodipodi.sourceforge.net/DTD/sodipodi-0.dtd"
   xmlns="http://www.w3.org/2000/svg"
   xmlns:svg="http://www.w3.org/2000/svg"
   xmlns:rdf="http://www.w3.org/1999/02/22-rdf-syntax-ns#"
   xmlns:cc="http://creativecommons.org/ns#"
   xmlns:dc="http://purl.org/dc/elements/1.1/">
  <defs
     id="defs2">
    <marker
       id="marker-arrow-2.654"
       orient="auto-start-reverse"
       refY="0"
       refX="0"
       markerHeight="3"
       markerWidth="2">
      <g
         transform="scale(0.85737252)"
         id="g895">
        <path
           d="M -1.55415,2.0722 C -1.42464,1.29512 0,0.1295 0.38852,0 0,-0.1295 -1.42464,-1.29512 -1.55415,-2.0722"
           style="fill:none;stroke:#000000;stroke-width:0.6;stroke-linecap:round;stroke-linejoin:round;stroke-miterlimit:10;stroke-dasharray:none;stroke-opacity:1"
           inkscape:connector-curvature="0"
           id="path893" />
      </g>
    </marker>
  </defs>
  <sodipodi:namedview
     id="base"
     pagecolor="#ffffff"
     bordercolor="#666666"
     borderopacity="1.0"
     inkscape:pageopacity="0.0"
     inkscape:pageshadow="2"
     inkscape:zoom="2.8125141"
     inkscape:cx="529.2418"
     inkscape:cy="175.64357"
     inkscape:document-units="mm"
     inkscape:current-layer="layer1"
     showgrid="false"
     showborder="true"
     width="200mm"
     showguides="true"
     inkscape:guide-bbox="true"
     inkscape:window-width="1104"
     inkscape:window-height="485"
     inkscape:window-x="1520"
     inkscape:window-y="36"
     inkscape:window-maximized="0"
     inkscape:showpageshadow="2"
     inkscape:pagecheckerboard="0"
     inkscape:deskcolor="#d1d1d1">
    <inkscape:grid
       type="xygrid"
       id="grid815"
       units="mm"
       spacingx="10"
       spacingy="10"
       empspacing="4"
       dotted="false"
       originx="0"
       originy="0" />
  </sodipodi:namedview>
  <metadata
     id="metadata5">
    <rdf:RDF>
      <cc:Work
         rdf:about="">
        <dc:format>image/svg+xml</dc:format>
        <dc:type
           rdf:resource="http://purl.org/dc/dcmitype/StillImage" />
        <dc:title />
      </cc:Work>
    </rdf:RDF>
  </metadata>
  <g
     inkscape:label="Layer 1"
     inkscape:groupmode="layer"
     id="layer1"
     transform="translate(0,-177)">
    <rect
       style="fill:#ff0000;fill-opacity:0.75;stroke:#000000;stroke-width:0.720177"
       id="rect184"
       width="13.981413"
       height="13.981413"
       x="53.716812"
       y="211.8289" />
    <rect
       style="fill:#ff0000;fill-opacity:0.75;stroke:#000000;stroke-width:0.720177"
       id="rect184-9"
       width="13.981413"
       height="13.981413"
       x="67.698235"
       y="211.8289" />
    <rect
       style="fill:#ffffff;stroke:#000000;stroke-width:0.720177"
       id="rect184-0"
       width="13.981413"
       height="13.981413"
       x="81.679634"
       y="211.8289" />
    <rect
       style="fill:#ffffff;stroke:#000000;stroke-width:0.720177"
       id="rect184-0-9"
       width="13.981413"
       height="13.981413"
       x="130.34245"
       y="194.5547" />
    <rect
       style="fill:#ffffff;stroke:#000000;stroke-width:0.720177"
       id="rect184-0-9-0"
       width="13.981413"
       height="13.981413"
       x="144.32387"
       y="194.5547" />
    <rect
       style="fill:#ffffff;stroke:#000000;stroke-width:0.720177"
       id="rect184-0-9-0-5"
       width="13.981413"
       height="13.981413"
       x="158.30528"
       y="194.5547" />
    <rect
       style="fill:#ffffff;stroke:#000000;stroke-width:0.720177"
       id="rect184-0-9-7"
       width="13.981413"
       height="13.981413"
       x="130.34245"
       y="208.67708" />
    <rect
       style="fill:#ffffff;stroke:#000000;stroke-width:0.720177"
       id="rect184-0-9-0-3"
       width="13.981413"
       height="13.981413"
       x="144.32387"
       y="208.67708" />
    <rect
       style="fill:#ffffff;stroke:#000000;stroke-width:0.720177"
       id="rect184-0-9-0-5-7"
       width="13.981413"
       height="13.981413"
       x="158.30528"
       y="208.67708" />
    <rect
       style="fill:#ffffff;stroke:#000000;stroke-width:0.720177"
       id="rect184-0-9-9"
       width="13.981413"
       height="13.981413"
       x="130.34245"
       y="222.65849" />
    <rect
       style="fill:#ffffff;stroke:#000000;stroke-width:0.720177"
       id="rect184-0-9-0-0"
       width="13.981413"
       height="13.981413"
       x="144.32387"
       y="222.65849" />
    <rect
       style="fill:#ffffff;stroke:#000000;stroke-width:0.720177"
       id="rect184-0-9-0-5-2"
       width="13.981413"
       height="13.981413"
       x="158.30528"
       y="222.65849" />
    <rect
       style="fill:#ffffff;stroke:#000000;stroke-width:0.720177"
       id="rect184-0-9-7-3"
       width="13.981413"
       height="13.981413"
       x="130.34245"
       y="236.78087" />
    <rect
       style="fill:#ffffff;stroke:#000000;stroke-width:0.720177"
       id="rect184-0-9-0-3-9"
       width="13.981413"
       height="13.981413"
       x="144.32387"
       y="236.78087" />
    <rect
       style="fill:#ffffff;stroke:#000000;stroke-width:0.720177"
       id="rect184-0-9-0-5-7-9"
       width="13.981413"
       height="13.981413"
       x="158.30528"
       y="236.78087" />
    <rect
       style="fill:#ffffff;stroke:#000000;stroke-width:0.720177"
       id="rect184-0-9-70"
       width="13.981413"
       height="13.981413"
       x="130.34245"
       y="250.76228" />
    <rect
       style="fill:#ffffff;stroke:#000000;stroke-width:0.720177"
       id="rect184-0-9-0-39"
       width="13.981413"
       height="13.981413"
       x="144.32385"
       y="250.76228" />
    <rect
       style="fill:#ffffff;stroke:#000000;stroke-width:0.720177"
       id="rect184-0-9-0-5-8"
       width="13.981413"
       height="13.981413"
       x="158.30527"
       y="250.76228" />
    <rect
       style="fill:#ffffff;stroke:#000000;stroke-width:0.720177"
       id="rect184-0-9-7-6"
       width="13.981413"
       height="13.981413"
       x="130.34245"
       y="264.88467" />
    <path
       d="m 136.32856,270.64851 q 0.15986,-0.37758 0.40239,-0.58153 0.24529,-0.2067 0.60909,-0.2067 0.44924,0 0.68902,0.29214 0.1819,0.21773 0.1819,0.46578 0,0.4079 -0.51263,0.84335 0.34451,0.13505 0.5209,0.38586 0.17639,0.2508 0.17639,0.5898 0,0.48506 -0.30868,0.8406 -0.40239,0.46302 -1.16582,0.46302 -0.37758,0 -0.51539,-0.0937 -0.13504,-0.0937 -0.13504,-0.20119 0,-0.0799 0.0634,-0.14056 0.0661,-0.0606 0.15709,-0.0606 0.0689,0 0.14056,0.022 0.0469,0.0138 0.21222,0.10198 0.16536,0.0854 0.22875,0.10197 0.10198,0.0303 0.21773,0.0303 0.28112,0 0.48783,-0.21773 0.20946,-0.21773 0.20946,-0.51539 0,-0.21773 -0.0965,-0.42443 -0.0717,-0.15434 -0.1571,-0.23427 -0.11851,-0.11024 -0.32522,-0.19843 -0.2067,-0.091 -0.42168,-0.091 h -0.0882 v -0.0827 q 0.21773,-0.0276 0.43546,-0.15709 0.22049,-0.12954 0.3197,-0.31144 0.0992,-0.1819 0.0992,-0.39963 0,-0.28388 -0.17914,-0.45751 -0.17639,-0.17639 -0.44097,-0.17639 -0.42719,0 -0.71383,0.45751 z"
       id="text3-5"
       style="font-size:5.64444px;font-family:'Times New Roman';-inkscape-font-specification:'Times New Roman, ';stroke-width:0.421322;stroke-dasharray:0.421322, 0.702204;marker-start:none;marker-end:none"
       aria-label="3" />
    <rect
       style="fill:#ffffff;stroke:#000000;stroke-width:0.720177"
       id="rect184-0-9-0-3-5"
       width="13.981413"
       height="13.981413"
       x="144.32385"
       y="264.88467" />
    <rect
       style="fill:#ffffff;stroke:#000000;stroke-width:0.720177"
       id="rect184-0-9-0-5-7-7"
       width="13.981413"
       height="13.981413"
       x="158.30527"
       y="264.88467" />
    <rect
       style="fill:#ffffff;stroke:#000000;stroke-width:0.720177"
       id="rect184-9-5"
       width="13.981413"
       height="13.981413"
       x="95.661057"
       y="211.8289" />
    <rect
       style="fill:#ffffff;stroke:#000000;stroke-width:0.720177"
       id="rect184-2"
       width="13.981413"
       height="13.981413"
       x="53.716812"
       y="225.81032" />
    <rect
       style="fill:#ffffff;stroke:#000000;stroke-width:0.720177"
       id="rect184-9-2"
       width="13.981413"
       height="13.981413"
       x="67.698235"
       y="225.81032" />
    <rect
       style="fill:#0000ff;fill-opacity:0.75;stroke:#000000;stroke-width:0.720177"
       id="rect184-0-7"
       width="13.981413"
       height="13.981413"
       x="81.679634"
       y="225.81032" />
    <rect
       style="fill:#0000ff;fill-opacity:0.75;stroke:#000000;stroke-width:0.720177"
       id="rect184-0-7-5"
       width="13.981413"
       height="13.981413"
       x="158.21986"
       y="222.65849" />
    <rect
       style="fill:#0000ff;fill-opacity:0.75;stroke:#000000;stroke-width:0.720177"
       id="rect184-0-7-5-6"
       width="13.981413"
       height="13.981413"
       x="158.30528"
       y="236.78087" />
    <rect
       style="fill:#0000ff;fill-opacity:0.75;stroke:#000000;stroke-width:0.720177"
       id="rect184-9-5-3"
       width="13.981413"
       height="13.981413"
       x="95.661057"
       y="225.81032" />
    <rect
       style="fill:#ffffff;stroke:#000000;stroke-width:0.720177"
       id="rect184-7"
       width="13.981413"
       height="13.981413"
       x="53.716812"
       y="239.55066" />
    <rect
       style="fill:#008000;fill-opacity:0.75;stroke:#000000;stroke-width:0.720177"
       id="rect184-9-9"
       width="13.981413"
       height="13.981413"
       x="67.698235"
       y="239.55066" />
    <rect
       style="fill:#008000;fill-opacity:0.75;stroke:#000000;stroke-width:0.720177"
       id="rect184-9-9-7"
       width="13.981413"
       height="13.981413"
       x="158.30527"
       y="250.76228" />
    <rect
       style="fill:#ffffff;stroke:#000000;stroke-width:0.720177"
       id="rect184-0-0"
       width="13.981413"
       height="13.981413"
       x="81.679634"
       y="239.55066" />
    <rect
       style="fill:#ff0000;fill-opacity:0.75;stroke:#000000;stroke-width:0.720177"
       id="rect184-05"
       width="13.981413"
       height="13.981413"
       x="158.30528"
       y="194.5547" />
    <rect
       style="fill:#ff0000;fill-opacity:0.75;stroke:#000000;stroke-width:0.720177"
       id="rect184-05-0"
       width="13.981413"
       height="13.981413"
       x="158.30528"
       y="208.67708" />
    <rect
       style="fill:#ffffff;stroke:#000000;stroke-width:0.720177"
       id="rect184-9-5-2"
       width="13.981413"
       height="13.981413"
       x="95.661057"
       y="239.55066" />
    <rect
       style="fill:#ffffff;stroke:#000000;stroke-width:0.720177"
       id="rect184-2-3"
       width="13.981413"
       height="13.981413"
       x="53.716812"
       y="253.53207" />
    <rect
       style="fill:#ffffff;stroke:#000000;stroke-width:0.720177"
       id="rect184-9-2-9"
       width="13.981413"
       height="13.981413"
       x="67.698235"
       y="253.53207" />
    <rect
       style="fill:#ffff00;fill-opacity:0.75;stroke:#000000;stroke-width:0.720177"
       id="rect184-0-7-9"
       width="13.981413"
       height="13.981413"
       x="81.679634"
       y="253.53207" />
    <rect
       style="fill:#ffff00;fill-opacity:0.75;stroke:#000000;stroke-width:0.720177"
       id="rect184-0-7-9-8"
       width="13.981413"
       height="13.981413"
       x="158.21983"
       y="264.88464" />
    <rect
       style="fill:#ffffff;stroke:#000000;stroke-width:0.720177"
       id="rect184-9-5-3-7"
       width="13.981413"
       height="13.981413"
       x="95.661057"
       y="253.53207" />
    <path
       d="m 136.12462,201.57297 q 0,-0.63941 0.19292,-1.09967 0.19293,-0.46302 0.51263,-0.68902 0.24805,-0.17915 0.51263,-0.17915 0.42995,0 0.7717,0.43822 0.4272,0.54295 0.4272,1.47174 0,0.65044 -0.18742,1.10519 -0.18741,0.45475 -0.47955,0.66146 -0.28939,0.20395 -0.55949,0.20395 -0.53468,0 -0.89021,-0.63114 -0.30041,-0.53193 -0.30041,-1.28158 z m 0.54019,0.0689 q 0,0.7717 0.19017,1.25953 0.15709,0.41065 0.46853,0.41065 0.14883,0 0.30868,-0.13229 0.15985,-0.13505 0.24254,-0.44924 0.12678,-0.47404 0.12678,-1.33669 0,-0.63941 -0.1323,-1.0666 -0.0992,-0.31695 -0.25631,-0.44925 -0.113,-0.091 -0.27285,-0.091 -0.18742,0 -0.33349,0.16813 -0.19843,0.22875 -0.27009,0.71933 -0.0717,0.49058 -0.0717,0.96738 z"
       id="text2"
       style="font-size:5.64444px;font-family:'Times New Roman';-inkscape-font-specification:'Times New Roman, ';stroke-width:0.421322;stroke-dasharray:0.421322, 0.702204;marker-start:none;marker-end:none"
       aria-label="0" />
    <path
       d="m 136.12462,215.62486 q 0,-0.63941 0.19292,-1.09967 0.19293,-0.46302 0.51263,-0.68902 0.24805,-0.17915 0.51263,-0.17915 0.42995,0 0.7717,0.43822 0.4272,0.54295 0.4272,1.47174 0,0.65044 -0.18742,1.10519 -0.18741,0.45475 -0.47955,0.66146 -0.28939,0.20395 -0.55949,0.20395 -0.53468,0 -0.89021,-0.63114 -0.30041,-0.53193 -0.30041,-1.28158 z m 0.54019,0.0689 q 0,0.7717 0.19017,1.25953 0.15709,0.41065 0.46853,0.41065 0.14883,0 0.30868,-0.13229 0.15985,-0.13505 0.24254,-0.44924 0.12678,-0.47404 0.12678,-1.33669 0,-0.63941 -0.1323,-1.0666 -0.0992,-0.31695 -0.25631,-0.44925 -0.113,-0.091 -0.27285,-0.091 -0.18742,0 -0.33349,0.16813 -0.19843,0.22875 -0.27009,0.71933 -0.0717,0.49058 -0.0717,0.96738 z"
       id="text2-3"
       style="font-size:5.64444px;font-family:'Times New Roman';-inkscape-font-specification:'Times New Roman, ';stroke-width:0.421322;stroke-dasharray:0.421322, 0.702204;marker-start:none;marker-end:none"
       aria-label="0" />
    <path
       d="m 150.10603,201.57297 q 0,-0.63941 0.19293,-1.09967 0.19292,-0.46302 0.51263,-0.68902 0.24805,-0.17915 0.51263,-0.17915 0.42995,0 0.7717,0.43822 0.42719,0.54295 0.42719,1.47174 0,0.65044 -0.18741,1.10519 -0.18742,0.45475 -0.47956,0.66146 -0.28939,0.20395 -0.55948,0.20395 -0.53468,0 -0.89021,-0.63114 -0.30042,-0.53193 -0.30042,-1.28158 z m 0.54019,0.0689 q 0,0.7717 0.19017,1.25953 0.1571,0.41065 0.46854,0.41065 0.14882,0 0.30868,-0.13229 0.15985,-0.13505 0.24253,-0.44924 0.12678,-0.47404 0.12678,-1.33669 0,-0.63941 -0.13229,-1.0666 -0.0992,-0.31695 -0.25632,-0.44925 -0.113,-0.091 -0.27285,-0.091 -0.18741,0 -0.33348,0.16813 -0.19844,0.22875 -0.2701,0.71933 -0.0717,0.49058 -0.0717,0.96738 z"
       id="text2-9"
       style="font-size:5.64444px;font-family:'Times New Roman';-inkscape-font-specification:'Times New Roman, ';stroke-width:0.421322;stroke-dasharray:0.421322, 0.702204;marker-start:none;marker-end:none"
       aria-label="0" />
    <path
       d="m 150.57871,214.2043 0.9095,-0.44373 h 0.0909 v 3.15571 q 0,0.31419 0.0248,0.39136 0.0276,0.0772 0.11024,0.11851 0.0827,0.0413 0.33624,0.0469 v 0.10197 h -1.40559 v -0.10197 q 0.26458,-0.006 0.34175,-0.0441 0.0772,-0.0413 0.10749,-0.10749 0.0303,-0.0689 0.0303,-0.40514 v -2.01745 q 0,-0.4079 -0.0276,-0.52365 -0.0193,-0.0882 -0.0717,-0.12954 -0.0496,-0.0413 -0.12126,-0.0413 -0.10198,0 -0.28388,0.0854 z"
       id="text3"
       style="font-size:5.64444px;font-family:'Times New Roman';-inkscape-font-specification:'Times New Roman, ';stroke-width:0.421322;stroke-dasharray:0.421322, 0.702204;marker-start:none;marker-end:none"
       aria-label="1" />
    <path
       d="m 136.59729,228.29361 0.90951,-0.44373 h 0.0909 v 3.15571 q 0,0.31419 0.0248,0.39136 0.0276,0.0772 0.11025,0.11851 0.0827,0.0413 0.33624,0.0469 v 0.10197 h -1.4056 v -0.10197 q 0.26458,-0.006 0.34175,-0.0441 0.0772,-0.0413 0.10749,-0.10749 0.0303,-0.0689 0.0303,-0.40514 v -2.01745 q 0,-0.4079 -0.0276,-0.52365 -0.0193,-0.0882 -0.0717,-0.12954 -0.0496,-0.0413 -0.12127,-0.0413 -0.10197,0 -0.28387,0.0854 z"
       id="text3-9"
       style="font-size:5.64444px;font-family:'Times New Roman';-inkscape-font-specification:'Times New Roman, ';stroke-width:0.421322;stroke-dasharray:0.421322, 0.702204;marker-start:none;marker-end:none"
       aria-label="1" />
    <path
       d="m 136.59729,242.20455 0.90951,-0.44373 h 0.0909 v 3.1557 q 0,0.3142 0.0248,0.39137 0.0276,0.0772 0.11025,0.11851 0.0827,0.0413 0.33624,0.0469 v 0.10198 h -1.4056 v -0.10198 q 0.26458,-0.006 0.34175,-0.0441 0.0772,-0.0413 0.10749,-0.10748 0.0303,-0.0689 0.0303,-0.40515 v -2.01744 q 0,-0.4079 -0.0276,-0.52366 -0.0193,-0.0882 -0.0717,-0.12953 -0.0496,-0.0413 -0.12127,-0.0413 -0.10197,0 -0.28387,0.0854 z"
       id="text3-1"
       style="font-size:5.64444px;font-family:'Times New Roman';-inkscape-font-specification:'Times New Roman, ';stroke-width:0.421322;stroke-dasharray:0.421322, 0.702204;marker-start:none;marker-end:none"
       aria-label="1" />
    <path
       d="m 138.5665,258.97393 -0.26183,0.71934 h -2.20486 v -0.10198 q 0.9729,-0.88745 1.36977,-1.44969 0.39688,-0.56224 0.39688,-1.02802 0,-0.35553 -0.21773,-0.58429 -0.21773,-0.22875 -0.5209,-0.22875 -0.27561,0 -0.49609,0.16261 -0.21773,0.15985 -0.32246,0.47129 h -0.10198 q 0.0689,-0.50988 0.35278,-0.78273 0.28663,-0.27285 0.71382,-0.27285 0.45475,0 0.75792,0.29214 0.30593,0.29215 0.30593,0.68902 0,0.28388 -0.1323,0.56775 -0.20395,0.44649 -0.66145,0.94534 -0.68627,0.74965 -0.85714,0.90399 h 0.97565 q 0.29765,0 0.41616,-0.0221 0.12127,-0.022 0.21773,-0.0882 0.0965,-0.0689 0.16813,-0.19293 z"
       id="text4"
       style="font-size:5.64444px;font-family:'Times New Roman';-inkscape-font-specification:'Times New Roman, ';stroke-width:0.421322;stroke-dasharray:0.421322, 0.702204;marker-start:none;marker-end:none"
       aria-label="2" />
    <path
       d="m 152.50521,230.83706 -0.26183,0.71934 h -2.20486 v -0.10198 q 0.97289,-0.88745 1.36977,-1.44969 0.39687,-0.56224 0.39687,-1.02802 0,-0.35553 -0.21773,-0.58429 -0.21773,-0.22875 -0.5209,-0.22875 -0.2756,0 -0.49609,0.16261 -0.21773,0.15985 -0.32246,0.47129 h -0.10197 q 0.0689,-0.50988 0.35277,-0.78273 0.28663,-0.27285 0.71383,-0.27285 0.45475,0 0.75792,0.29214 0.30592,0.29215 0.30592,0.68902 0,0.28388 -0.13229,0.56775 -0.20395,0.44649 -0.66146,0.94534 -0.68626,0.74965 -0.85714,0.90399 h 0.97565 q 0.29766,0 0.41617,-0.0221 0.12127,-0.0221 0.21773,-0.0882 0.0965,-0.0689 0.16812,-0.19293 z"
       id="text5-9"
       style="font-size:5.64444px;font-family:'Times New Roman';-inkscape-font-specification:'Times New Roman, ';stroke-width:0.421322;stroke-dasharray:0.421322, 0.702204;marker-start:none;marker-end:none"
       aria-label="2" />
    <path
       d="m 150.30998,242.61954 q 0.15985,-0.37759 0.40238,-0.58154 0.2453,-0.2067 0.6091,-0.2067 0.44924,0 0.68902,0.29214 0.1819,0.21773 0.1819,0.46578 0,0.4079 -0.51263,0.84336 0.34451,0.13505 0.52089,0.38585 0.17639,0.2508 0.17639,0.5898 0,0.48507 -0.30868,0.8406 -0.40238,0.46302 -1.16582,0.46302 -0.37758,0 -0.51538,-0.0937 -0.13505,-0.0937 -0.13505,-0.2012 0,-0.0799 0.0634,-0.14056 0.0661,-0.0606 0.1571,-0.0606 0.0689,0 0.14056,0.0221 0.0469,0.0138 0.21221,0.10197 0.16537,0.0854 0.22876,0.10198 0.10197,0.0303 0.21773,0.0303 0.28112,0 0.48782,-0.21773 0.20946,-0.21773 0.20946,-0.51538 0,-0.21773 -0.0965,-0.42444 -0.0717,-0.15434 -0.15709,-0.23426 -0.11852,-0.11025 -0.32522,-0.19844 -0.20671,-0.0909 -0.42168,-0.0909 h -0.0882 v -0.0827 q 0.21772,-0.0276 0.43545,-0.1571 0.22049,-0.12954 0.31971,-0.31144 0.0992,-0.1819 0.0992,-0.39963 0,-0.28387 -0.17915,-0.45751 -0.17639,-0.17638 -0.44097,-0.17638 -0.42719,0 -0.71382,0.4575 z"
       id="text6"
       style="font-size:5.64444px;font-family:'Times New Roman';-inkscape-font-specification:'Times New Roman, ';stroke-width:0.421322;stroke-dasharray:0.421322, 0.702204;marker-start:none;marker-end:none"
       aria-label="3" />
    <path
       d="m 150.57869,256.28951 0.90951,-0.44373 h 0.0909 v 3.15571 q 0,0.31419 0.0248,0.39136 0.0276,0.0772 0.11025,0.11851 0.0827,0.0413 0.33624,0.0468 v 0.10198 h -1.4056 v -0.10198 q 0.26458,-0.006 0.34175,-0.0441 0.0772,-0.0413 0.10749,-0.10748 0.0303,-0.0689 0.0303,-0.40514 v -2.01745 q 0,-0.4079 -0.0276,-0.52366 -0.0193,-0.0882 -0.0717,-0.12953 -0.0496,-0.0413 -0.12127,-0.0413 -0.10197,0 -0.28387,0.0854 z"
       id="text5-7"
       style="font-size:5.64444px;font-family:'Times New Roman';-inkscape-font-specification:'Times New Roman, ';stroke-width:0.421322;stroke-dasharray:0.421322, 0.702204;marker-start:none;marker-end:none"
       aria-label="1" />
    <path
       d="m 152.50519,273.06326 -0.26183,0.71933 h -2.20486 v -0.10197 q 0.9729,-0.88746 1.36977,-1.4497 0.39688,-0.56224 0.39688,-1.02801 0,-0.35554 -0.21773,-0.58429 -0.21773,-0.22875 -0.5209,-0.22875 -0.27561,0 -0.49609,0.1626 -0.21773,0.15986 -0.32246,0.47129 h -0.10198 q 0.0689,-0.50987 0.35278,-0.78272 0.28663,-0.27285 0.71382,-0.27285 0.45475,0 0.75792,0.29214 0.30593,0.29214 0.30593,0.68902 0,0.28387 -0.1323,0.56775 -0.20395,0.44648 -0.66145,0.94533 -0.68627,0.74966 -0.85714,0.904 h 0.97565 q 0.29765,0 0.41616,-0.022 0.12127,-0.022 0.21773,-0.0882 0.0965,-0.0689 0.16813,-0.19292 z"
       id="text5-97"
       style="font-size:5.64444px;font-family:'Times New Roman';-inkscape-font-specification:'Times New Roman, ';stroke-width:0.421322;stroke-dasharray:0.421322, 0.702204;marker-start:none;marker-end:none"
       aria-label="2" />
  </g>
</svg>
