<?xml version="1.0" encoding="UTF-8" standalone="no"?>
<!-- Created with Inkscape (http://www.inkscape.org/) -->

<svg
   width="240mm"
   height="120mm"
   viewBox="0 0 240 120"
   version="1.1"
   id="svg8"
   inkscape:version="1.4 (e7c3feb1, 2024-10-09)"
   sodipodi:docname="cscformat.svg"
   xmlns:inkscape="http://www.inkscape.org/namespaces/inkscape"
   xmlns:sodipodi="http://sodipodi.sourceforge.net/DTD/sodipodi-0.dtd"
   xmlns="http://www.w3.org/2000/svg"
   xmlns:svg="http://www.w3.org/2000/svg"
   xmlns:rdf="http://www.w3.org/1999/02/22-rdf-syntax-ns#"
   xmlns:cc="http://creativecommons.org/ns#"
   xmlns:dc="http://purl.org/dc/elements/1.1/">
  <defs
     id="defs2" />
  <sodipodi:namedview
     id="base"
     pagecolor="#ffffff"
     bordercolor="#666666"
     borderopacity="1.0"
     inkscape:pageopacity="0.0"
     inkscape:pageshadow="2"
     inkscape:zoom="1.4535754"
     inkscape:cx="448.20516"
     inkscape:cy="185.4049"
     inkscape:document-units="mm"
     inkscape:current-layer="layer1"
     showgrid="false"
     showborder="true"
     width="200mm"
     showguides="true"
     inkscape:guide-bbox="true"
     inkscape:window-width="1504"
     inkscape:window-height="912"
     inkscape:window-x="5"
     inkscape:window-y="135"
     inkscape:window-maximized="0"
     inkscape:showpageshadow="2"
     inkscape:pagecheckerboard="0"
     inkscape:deskcolor="#d1d1d1">
    <inkscape:grid
       type="xygrid"
       id="grid815"
       units="mm"
       spacingx="10"
       spacingy="10"
       empspacing="4"
       dotted="false"
       originx="0"
       originy="0" />
  </sodipodi:namedview>
  <metadata
     id="metadata5">
    <rdf:RDF>
      <cc:Work
         rdf:about="">
        <dc:format>image/svg+xml</dc:format>
        <dc:type
           rdf:resource="http://purl.org/dc/dcmitype/StillImage" />
        <dc:title />
      </cc:Work>
    </rdf:RDF>
  </metadata>
  <g
     inkscape:label="Layer 1"
     inkscape:groupmode="layer"
     id="layer1"
     transform="translate(0,-177)">
    <rect
       style="fill:#ff0000;fill-opacity:0.75;stroke:#000000;stroke-width:0.720177"
       id="rect184"
       width="13.981413"
       height="13.981413"
       x="30.064573"
       y="209.15771" />
    <rect
       style="fill:#ff0000;fill-opacity:0.75;stroke:#000000;stroke-width:0.720177"
       id="rect184-9"
       width="13.981413"
       height="13.981413"
       x="44.045994"
       y="209.15771" />
    <rect
       style="fill:#ffffff;stroke:#000000;stroke-width:0.720177"
       id="rect184-0"
       width="13.981413"
       height="13.981413"
       x="58.027397"
       y="209.15771" />
    <rect
       style="fill:#ffffff;stroke:#000000;stroke-width:0.720177"
       id="rect184-9-5"
       width="13.981413"
       height="13.981413"
       x="72.008812"
       y="209.15771" />
    <rect
       style="fill:#ffffff;stroke:#000000;stroke-width:0.720177"
       id="rect184-03"
       width="13.981413"
       height="13.981413"
       x="126.04701"
       y="209.15771" />
    <rect
       style="fill:#ffffff;stroke:#000000;stroke-width:0.720177"
       id="rect184-9-98"
       width="13.981413"
       height="13.981413"
       x="140.02841"
       y="209.15771" />
    <rect
       style="fill:#ffffff;stroke:#000000;stroke-width:0.720177"
       id="rect184-0-6"
       width="13.981413"
       height="13.981413"
       x="154.00981"
       y="209.15771" />
    <rect
       style="fill:#ffffff;stroke:#000000;stroke-width:0.720177"
       id="rect184-9-5-5"
       width="13.981413"
       height="13.981413"
       x="167.9912"
       y="209.15771" />
    <rect
       style="fill:#ffffff;stroke:#000000;stroke-width:0.720177"
       id="rect184-9-5-5-2"
       width="13.981413"
       height="13.981413"
       x="181.97264"
       y="209.15771" />
    <rect
       style="fill:#ffffff;stroke:#000000;stroke-width:0.720177"
       id="rect184-03-7"
       width="13.981413"
       height="13.981413"
       x="126.04701"
       y="227.96031" />
    <rect
       style="fill:#ffffff;stroke:#000000;stroke-width:0.720177"
       id="rect184-9-98-0"
       width="13.981413"
       height="13.981413"
       x="140.02837"
       y="227.96031" />
    <rect
       style="fill:#ffffff;stroke:#000000;stroke-width:0.720177"
       id="rect184-0-6-3"
       width="13.981413"
       height="13.981413"
       x="154.00981"
       y="227.96031" />
    <rect
       style="fill:#ffffff;stroke:#000000;stroke-width:0.720177"
       id="rect184-9-5-5-9"
       width="13.981413"
       height="13.981413"
       x="167.9912"
       y="227.96031" />
    <rect
       style="fill:#ffffff;stroke:#000000;stroke-width:0.720177"
       id="rect184-9-5-5-2-9"
       width="13.981413"
       height="13.981413"
       x="181.97264"
       y="227.96031" />
    <rect
       style="fill:#ffffff;stroke:#000000;stroke-width:0.720177"
       id="rect184-9-5-5-2-9-7"
       width="13.981413"
       height="13.981413"
       x="195.95401"
       y="227.96031" />
    <rect
       style="fill:#ff0000;fill-opacity:0.75;stroke:#000000;stroke-width:0.720177"
       id="rect184-03-7-2"
       width="13.981413"
       height="13.981413"
       x="126.04701"
       y="246.76291" />
    <rect
       style="fill:#ff0000;fill-opacity:0.75;stroke:#000000;stroke-width:0.720177"
       id="rect184-9-98-0-3"
       width="13.981413"
       height="13.981413"
       x="140.02837"
       y="246.76291" />
    <rect
       style="fill:#0000ff;fill-opacity:0.75;stroke:#000000;stroke-width:0.720177"
       id="rect184-0-6-3-6"
       width="13.981413"
       height="13.981413"
       x="195.95403"
       y="246.76292" />
    <rect
       style="fill:#0000ff;fill-opacity:0.75;stroke:#000000;stroke-width:0.720177"
       id="rect184-9-5-5-9-5"
       width="13.981413"
       height="13.981413"
       x="167.9912"
       y="246.76291" />
    <rect
       style="fill:#008000;fill-opacity:0.75;stroke:#000000;stroke-width:0.720177"
       id="rect184-9-5-5-2-9-5"
       width="13.981413"
       height="13.981413"
       x="154.00972"
       y="246.76291" />
    <rect
       style="fill:#ffff00;fill-opacity:0.75;stroke:#000000;stroke-width:0.720177"
       id="rect184-9-5-5-2-9-7-8"
       width="13.981413"
       height="13.981413"
       x="181.97243"
       y="246.82907" />
    <rect
       style="fill:#ffffff;stroke:#000000;stroke-width:0.720177"
       id="rect184-2"
       width="13.981413"
       height="13.981413"
       x="30.064573"
       y="223.13913" />
    <rect
       style="fill:#ffffff;stroke:#000000;stroke-width:0.720177"
       id="rect184-9-2"
       width="13.981413"
       height="13.981413"
       x="44.045994"
       y="223.13913" />
    <rect
       style="fill:#0000ff;fill-opacity:0.75;stroke:#000000;stroke-width:0.720177"
       id="rect184-0-7"
       width="13.981413"
       height="13.981413"
       x="58.027397"
       y="223.13913" />
    <rect
       style="fill:#0000ff;fill-opacity:0.75;stroke:#000000;stroke-width:0.720177"
       id="rect184-9-5-3"
       width="13.981413"
       height="13.981413"
       x="72.008812"
       y="223.13913" />
    <rect
       style="fill:#ffffff;stroke:#000000;stroke-width:0.720177"
       id="rect184-7"
       width="13.981413"
       height="13.981413"
       x="30.064573"
       y="236.87947" />
    <rect
       style="fill:#008000;fill-opacity:0.75;stroke:#000000;stroke-width:0.720177"
       id="rect184-9-9"
       width="13.981413"
       height="13.981413"
       x="44.045994"
       y="236.87947" />
    <rect
       style="fill:#ffffff;stroke:#000000;stroke-width:0.720177"
       id="rect184-0-0"
       width="13.981413"
       height="13.981413"
       x="58.027397"
       y="236.87947" />
    <rect
       style="fill:#ffffff;stroke:#000000;stroke-width:0.720177"
       id="rect184-9-5-2"
       width="13.981413"
       height="13.981413"
       x="72.008812"
       y="236.87947" />
    <rect
       style="fill:#ffffff;stroke:#000000;stroke-width:0.720177"
       id="rect184-2-3"
       width="13.981413"
       height="13.981413"
       x="30.064573"
       y="250.86089" />
    <rect
       style="fill:#ffffff;stroke:#000000;stroke-width:0.720177"
       id="rect184-9-2-9"
       width="13.981413"
       height="13.981413"
       x="44.045994"
       y="250.86089" />
    <rect
       style="fill:#ffff00;fill-opacity:0.75;stroke:#000000;stroke-width:0.720177"
       id="rect184-0-7-9"
       width="13.981413"
       height="13.981413"
       x="58.027397"
       y="250.86089" />
    <rect
       style="fill:#ffffff;stroke:#000000;stroke-width:0.720177"
       id="rect184-9-5-3-7"
       width="13.981413"
       height="13.981413"
       x="72.008812"
       y="250.86089" />
    <text
       xml:space="preserve"
       style="font-size:3.61808px;line-height:normal;font-family:'Times New Roman';-inkscape-font-specification:'Times New Roman, Normal';text-decoration-color:#000000;fill:#000000;stroke-width:1.2003;stop-color:#000000"
       x="105.88693"
       y="217.99719"
       id="text772"><tspan
         sodipodi:role="line"
         id="tspan770"
         style="font-size:3.61808px;stroke-width:1.2003"
         x="105.88693"
         y="217.99719">$A_{p} =$</tspan></text>
    <text
       xml:space="preserve"
       style="font-size:3.61808px;line-height:normal;font-family:'Times New Roman';-inkscape-font-specification:'Times New Roman, Normal';text-decoration-color:#000000;fill:#000000;stroke-width:1.2003;stop-color:#000000"
       x="106.28885"
       y="235.85907"
       id="text772-9"><tspan
         sodipodi:role="line"
         id="tspan770-7"
         style="font-size:3.61808px;stroke-width:1.2003"
         x="106.28885"
         y="235.85907">$A_{i} =$</tspan></text>
    <path
       d="m 131.82919,216.17598 q 0,-0.63941 0.19293,-1.09967 0.19292,-0.46302 0.51263,-0.68902 0.24805,-0.17914 0.51263,-0.17914 0.42995,0 0.7717,0.43821 0.42719,0.54295 0.42719,1.47175 0,0.65043 -0.18741,1.10518 -0.18742,0.45475 -0.47956,0.66146 -0.28939,0.20395 -0.55948,0.20395 -0.53468,0 -0.89021,-0.63114 -0.30042,-0.53193 -0.30042,-1.28158 z m 0.54019,0.0689 q 0,0.77171 0.19017,1.25953 0.1571,0.41066 0.46854,0.41066 0.14882,0 0.30868,-0.1323 0.15985,-0.13504 0.24253,-0.44924 0.12678,-0.47404 0.12678,-1.33669 0,-0.63941 -0.13229,-1.0666 -0.0992,-0.31695 -0.25632,-0.44924 -0.113,-0.0909 -0.27285,-0.0909 -0.18741,0 -0.33348,0.16812 -0.19844,0.22875 -0.2701,0.71933 -0.0717,0.49058 -0.0717,0.96738 z"
       id="text1031"
       style="font-size:5.64444px;font-family:'Times New Roman';-inkscape-font-specification:'Times New Roman, Normal';stroke-width:1.2003"
       aria-label="0" />
    <path
       d="m 146.32596,214.68495 0.90951,-0.44372 h 0.091 v 3.1557 q 0,0.31419 0.0248,0.39136 0.0276,0.0772 0.11025,0.11852 0.0827,0.0413 0.33624,0.0469 v 0.10197 h -1.4056 v -0.10197 q 0.26458,-0.006 0.34175,-0.0441 0.0772,-0.0413 0.10749,-0.10749 0.0303,-0.0689 0.0303,-0.40514 v -2.01744 q 0,-0.4079 -0.0276,-0.52366 -0.0193,-0.0882 -0.0717,-0.12953 -0.0496,-0.0414 -0.12127,-0.0414 -0.10198,0 -0.28388,0.0854 z"
       id="text1062"
       style="font-size:5.64444px;font-family:'Times New Roman';-inkscape-font-specification:'Times New Roman, Normal';stroke-width:1.2003"
       aria-label="1" />
    <path
       d="m 159.92977,215.02946 q 0.15986,-0.37758 0.40239,-0.58153 0.24529,-0.2067 0.60909,-0.2067 0.44924,0 0.68902,0.29214 0.1819,0.21773 0.1819,0.46578 0,0.4079 -0.51263,0.84336 0.34451,0.13504 0.5209,0.38585 0.17639,0.2508 0.17639,0.5898 0,0.48507 -0.30868,0.8406 -0.40239,0.46302 -1.16582,0.46302 -0.37758,0 -0.51539,-0.0937 -0.13504,-0.0937 -0.13504,-0.20119 0,-0.0799 0.0634,-0.14056 0.0661,-0.0606 0.15709,-0.0606 0.0689,0 0.14056,0.022 0.0469,0.0138 0.21222,0.10198 0.16536,0.0854 0.22875,0.10197 0.10198,0.0303 0.21773,0.0303 0.28112,0 0.48783,-0.21773 0.20946,-0.21773 0.20946,-0.51538 0,-0.21773 -0.0965,-0.42444 -0.0717,-0.15434 -0.1571,-0.23427 -0.11851,-0.11024 -0.32521,-0.19843 -0.20671,-0.091 -0.42168,-0.091 h -0.0882 v -0.0827 q 0.21773,-0.0276 0.43546,-0.15709 0.22049,-0.12954 0.31971,-0.31144 0.0992,-0.1819 0.0992,-0.39963 0,-0.28388 -0.17914,-0.45751 -0.17639,-0.17639 -0.44097,-0.17639 -0.42719,0 -0.71383,0.45751 z"
       id="text1062-7"
       style="font-size:5.64444px;font-family:'Times New Roman';-inkscape-font-specification:'Times New Roman, Normal';stroke-width:1.2003"
       aria-label="3" />
    <path
       d="m 176.00855,214.28532 -0.21498,0.46853 h -1.12448 l -0.24529,0.5016 q 0.73036,0.10749 1.15755,0.54295 0.36656,0.37483 0.36656,0.88194 0,0.2949 -0.12127,0.54571 -0.11851,0.2508 -0.30041,0.42719 -0.1819,0.17639 -0.40514,0.28387 -0.31695,0.15159 -0.65043,0.15159 -0.33625,0 -0.49059,-0.113 -0.15158,-0.11576 -0.15158,-0.25356 0,-0.0772 0.0634,-0.13505 0.0634,-0.0606 0.15985,-0.0606 0.0717,0 0.12403,0.0221 0.0551,0.0221 0.18465,0.113 0.20671,0.14331 0.41893,0.14331 0.32246,0 0.56499,-0.24253 0.24529,-0.24529 0.24529,-0.59531 0,-0.339 -0.21773,-0.63114 -0.21773,-0.2949 -0.60082,-0.45476 -0.30041,-0.12402 -0.81856,-0.14331 l 0.71658,-1.45245 z"
       id="text1062-5"
       style="font-size:5.64444px;font-family:'Times New Roman';-inkscape-font-specification:'Times New Roman, Normal';stroke-width:1.2003"
       aria-label="5" />
    <path
       d="m 190.06992,214.20815 v 0.10197 q -0.3638,0.0358 -0.59532,0.14607 -0.22875,0.10749 -0.45475,0.33073 -0.22324,0.22324 -0.37207,0.49885 -0.14607,0.27285 -0.24529,0.65043 0.39688,-0.27285 0.79651,-0.27285 0.38309,0 0.66421,0.30868 0.28112,0.30868 0.28112,0.79375 0,0.46854 -0.28387,0.85439 -0.34176,0.46853 -0.904,0.46853 -0.38309,0 -0.65043,-0.25356 -0.52365,-0.49334 -0.52365,-1.27882 0,-0.5016 0.20119,-0.9536 0.20119,-0.452 0.57326,-0.80202 0.37483,-0.35002 0.71658,-0.47129 0.34175,-0.12126 0.63665,-0.12126 z m -1.71428,1.92925 q -0.0496,0.37207 -0.0496,0.60082 0,0.26458 0.0965,0.57602 0.0992,0.30868 0.29215,0.49058 0.14056,0.12954 0.34175,0.12954 0.23978,0 0.42719,-0.226 0.19017,-0.226 0.19017,-0.64492 0,-0.47129 -0.18741,-0.8158 -0.18742,-0.34451 -0.53193,-0.34451 -0.10473,0 -0.22599,0.0441 -0.11851,0.0441 -0.35278,0.19017 z"
       id="text1062-5-1"
       style="font-size:5.64444px;font-family:'Times New Roman';-inkscape-font-specification:'Times New Roman, Normal';stroke-width:1.2003"
       aria-label="6" />
    <path
       d="m 131.88705,235.01166 q 0,-0.63941 0.19293,-1.09967 0.19293,-0.46302 0.51263,-0.68902 0.24805,-0.17915 0.51263,-0.17915 0.42995,0 0.7717,0.43822 0.42719,0.54295 0.42719,1.47174 0,0.65044 -0.18741,1.10519 -0.18741,0.45475 -0.47956,0.66146 -0.28939,0.20395 -0.55948,0.20395 -0.53468,0 -0.89021,-0.63114 -0.30042,-0.53193 -0.30042,-1.28158 z m 0.5402,0.0689 q 0,0.7717 0.19016,1.25953 0.1571,0.41065 0.46854,0.41065 0.14883,0 0.30868,-0.13229 0.15985,-0.13505 0.24253,-0.44924 0.12678,-0.47404 0.12678,-1.33669 0,-0.63941 -0.13229,-1.0666 -0.0992,-0.31695 -0.25631,-0.44924 -0.113,-0.091 -0.27286,-0.091 -0.18741,0 -0.33348,0.16813 -0.19844,0.22875 -0.2701,0.71933 -0.0717,0.49058 -0.0717,0.96738 z"
       id="text1322"
       style="font-size:5.64444px;font-family:'Times New Roman';-inkscape-font-specification:'Times New Roman, Normal';stroke-width:0.702204"
       aria-label="0&#10;" />
    <path
       d="m 145.86841,235.01166 q 0,-0.63941 0.19292,-1.09967 0.19293,-0.46302 0.51263,-0.68902 0.24805,-0.17915 0.51263,-0.17915 0.42995,0 0.7717,0.43822 0.4272,0.54295 0.4272,1.47174 0,0.65044 -0.18742,1.10519 -0.18741,0.45475 -0.47955,0.66146 -0.28939,0.20395 -0.55949,0.20395 -0.53468,0 -0.89021,-0.63114 -0.30041,-0.53193 -0.30041,-1.28158 z m 0.54019,0.0689 q 0,0.7717 0.19017,1.25953 0.15709,0.41065 0.46853,0.41065 0.14883,0 0.30868,-0.13229 0.15985,-0.13505 0.24254,-0.44924 0.12678,-0.47404 0.12678,-1.33669 0,-0.63941 -0.1323,-1.0666 -0.0992,-0.31695 -0.25631,-0.44924 -0.113,-0.091 -0.27285,-0.091 -0.18742,0 -0.33349,0.16813 -0.19843,0.22875 -0.27009,0.71933 -0.0717,0.49058 -0.0717,0.96738 z"
       id="text1322-3"
       style="font-size:5.64444px;font-family:'Times New Roman';-inkscape-font-specification:'Times New Roman, Normal';stroke-width:0.702204"
       aria-label="0&#10;" />
    <path
       d="m 162.23386,236.1389 -0.26183,0.71933 h -2.20486 v -0.10197 q 0.9729,-0.88746 1.36977,-1.4497 0.39688,-0.56224 0.39688,-1.02801 0,-0.35554 -0.21773,-0.58429 -0.21773,-0.22876 -0.5209,-0.22876 -0.27561,0 -0.4961,0.16261 -0.21773,0.15985 -0.32246,0.47129 h -0.10197 q 0.0689,-0.50987 0.35278,-0.78272 0.28663,-0.27286 0.71382,-0.27286 0.45475,0 0.75792,0.29215 0.30592,0.29214 0.30592,0.68902 0,0.28387 -0.13229,0.56775 -0.20395,0.44648 -0.66146,0.94533 -0.68626,0.74965 -0.85713,0.90399 h 0.97565 q 0.29765,0 0.41616,-0.0221 0.12127,-0.022 0.21773,-0.0882 0.0965,-0.0689 0.16812,-0.19292 z"
       id="text1322-2"
       style="font-size:5.64444px;font-family:'Times New Roman';-inkscape-font-specification:'Times New Roman, Normal';stroke-width:0.702204"
       aria-label="2&#10;" />
    <path
       d="m 174.28875,233.48755 0.9095,-0.44373 h 0.0909 v 3.15571 q 0,0.31419 0.0248,0.39136 0.0276,0.0772 0.11024,0.11851 0.0827,0.0413 0.33624,0.0469 v 0.10197 h -1.4056 v -0.10197 q 0.26459,-0.006 0.34176,-0.0441 0.0772,-0.0413 0.10748,-0.10749 0.0303,-0.0689 0.0303,-0.40514 v -2.01745 q 0,-0.4079 -0.0276,-0.52365 -0.0193,-0.0882 -0.0717,-0.12954 -0.0496,-0.0413 -0.12127,-0.0413 -0.10197,0 -0.28387,0.0854 z"
       id="text1322-2-2"
       style="font-size:5.64444px;font-family:'Times New Roman';-inkscape-font-specification:'Times New Roman, Normal';stroke-width:0.702204"
       aria-label="1&#10;" />
    <path
       d="m 187.89537,233.83206 q 0.15985,-0.37758 0.40238,-0.58153 0.24529,-0.20671 0.6091,-0.20671 0.44924,0 0.68901,0.29215 0.1819,0.21773 0.1819,0.46577 0,0.4079 -0.51263,0.84336 0.34451,0.13505 0.5209,0.38585 0.17639,0.25081 0.17639,0.5898 0,0.48507 -0.30868,0.84061 -0.40239,0.46302 -1.16582,0.46302 -0.37758,0 -0.51538,-0.0937 -0.13505,-0.0937 -0.13505,-0.20119 0,-0.0799 0.0634,-0.14056 0.0661,-0.0606 0.15709,-0.0606 0.0689,0 0.14056,0.0221 0.0469,0.0138 0.21222,0.10198 0.16537,0.0854 0.22876,0.10197 0.10197,0.0303 0.21773,0.0303 0.28112,0 0.48782,-0.21773 0.20946,-0.21773 0.20946,-0.51539 0,-0.21773 -0.0965,-0.42443 -0.0717,-0.15434 -0.1571,-0.23427 -0.11851,-0.11024 -0.32521,-0.19844 -0.20671,-0.0909 -0.42168,-0.0909 h -0.0882 v -0.0827 q 0.21773,-0.0276 0.43546,-0.1571 0.22049,-0.12953 0.31971,-0.31143 0.0992,-0.1819 0.0992,-0.39963 0,-0.28388 -0.17915,-0.45751 -0.17639,-0.17639 -0.44097,-0.17639 -0.42719,0 -0.71382,0.45751 z"
       id="text1322-2-2-1"
       style="font-size:5.64444px;font-family:'Times New Roman';-inkscape-font-specification:'Times New Roman, Normal';stroke-width:0.702204"
       aria-label="3&#10;" />
    <path
       d="m 202.25156,233.48755 0.90951,-0.44373 h 0.0909 v 3.15571 q 0,0.31419 0.0248,0.39136 0.0276,0.0772 0.11024,0.11851 0.0827,0.0413 0.33624,0.0469 v 0.10197 h -1.40559 v -0.10197 q 0.26458,-0.006 0.34175,-0.0441 0.0772,-0.0413 0.10749,-0.10749 0.0303,-0.0689 0.0303,-0.40514 v -2.01745 q 0,-0.4079 -0.0276,-0.52365 -0.0193,-0.0882 -0.0717,-0.12954 -0.0496,-0.0413 -0.12127,-0.0413 -0.10198,0 -0.28388,0.0854 z"
       id="text1322-2-2-1-1"
       style="font-size:5.64444px;font-family:'Times New Roman';-inkscape-font-specification:'Times New Roman, Normal';stroke-width:0.702204"
       aria-label="1&#10;" />
    <text
       xml:space="preserve"
       style="font-size:3.61808px;line-height:normal;font-family:'Times New Roman';-inkscape-font-specification:'Times New Roman, Normal';text-decoration-color:#000000;fill:#000000;stroke-width:1.2003;stop-color:#000000"
       x="105.88693"
       y="254.66165"
       id="text772-5"><tspan
         sodipodi:role="line"
         id="tspan770-5"
         style="font-size:3.61808px;stroke-width:1.2003"
         x="105.88693"
         y="254.66165">$A_{x} =$</tspan></text>
  </g>
</svg>
