<?xml version="1.0" encoding="UTF-8" standalone="no"?>
<!-- Created with Inkscape (http://www.inkscape.org/) -->

<svg
   width="240mm"
   height="120mm"
   viewBox="0 0 240 120"
   version="1.1"
   id="svg8"
   inkscape:version="1.4 (e7c3feb1, 2024-10-09)"
   sodipodi:docname="ellpackformat.svg"
   xmlns:inkscape="http://www.inkscape.org/namespaces/inkscape"
   xmlns:sodipodi="http://sodipodi.sourceforge.net/DTD/sodipodi-0.dtd"
   xmlns="http://www.w3.org/2000/svg"
   xmlns:svg="http://www.w3.org/2000/svg"
   xmlns:rdf="http://www.w3.org/1999/02/22-rdf-syntax-ns#"
   xmlns:cc="http://creativecommons.org/ns#"
   xmlns:dc="http://purl.org/dc/elements/1.1/">
  <defs
     id="defs2" />
  <sodipodi:namedview
     id="base"
     pagecolor="#ffffff"
     bordercolor="#666666"
     borderopacity="1.0"
     inkscape:pageopacity="0.0"
     inkscape:pageshadow="2"
     inkscape:zoom="0.99437386"
     inkscape:cx="653.17485"
     inkscape:cy="302.20022"
     inkscape:document-units="mm"
     inkscape:current-layer="layer1"
     showgrid="false"
     showborder="true"
     width="200mm"
     showguides="true"
     inkscape:guide-bbox="true"
     inkscape:window-width="1904"
     inkscape:window-height="1008"
     inkscape:window-x="1520"
     inkscape:window-y="36"
     inkscape:window-maximized="0"
     inkscape:showpageshadow="2"
     inkscape:pagecheckerboard="0"
     inkscape:deskcolor="#d1d1d1">
    <inkscape:grid
       type="xygrid"
       id="grid815"
       units="mm"
       spacingx="10"
       spacingy="10"
       empspacing="4"
       dotted="false"
       originx="0"
       originy="0" />
  </sodipodi:namedview>
  <metadata
     id="metadata5">
    <rdf:RDF>
      <cc:Work
         rdf:about="">
        <dc:format>image/svg+xml</dc:format>
        <dc:type
           rdf:resource="http://purl.org/dc/dcmitype/StillImage" />
        <dc:title />
      </cc:Work>
    </rdf:RDF>
  </metadata>
  <g
     inkscape:label="Layer 1"
     inkscape:groupmode="layer"
     id="layer1"
     transform="translate(0,-177)">
    <g
       id="g8"
       transform="translate(12.398912,3.9254515)">
      <rect
         style="fill:#ff0000;fill-opacity:0.75;stroke:#000000;stroke-width:0.720177"
         id="rect184-1"
         width="13.981413"
         height="13.981413"
         x="30.064558"
         y="209.15771" />
      <rect
         style="fill:#ff0000;fill-opacity:0.75;stroke:#000000;stroke-width:0.720177"
         id="rect184-9-7"
         width="13.981413"
         height="13.981413"
         x="44.045971"
         y="209.15771" />
      <rect
         style="fill:#ffffff;stroke:#000000;stroke-width:0.720177"
         id="rect184-0-5"
         width="13.981413"
         height="13.981413"
         x="58.027393"
         y="209.15771" />
      <rect
         style="fill:#ffffff;stroke:#000000;stroke-width:0.720177"
         id="rect184-9-5-54"
         width="13.981413"
         height="13.981413"
         x="72.008812"
         y="209.15771" />
      <rect
         style="fill:#ff0000;fill-opacity:0.75;stroke:#000000;stroke-width:0.720177"
         id="rect184-9-5-54-9"
         width="13.981413"
         height="13.981413"
         x="119.85686"
         y="209.15771" />
      <rect
         style="fill:#ff0000;fill-opacity:0.75;stroke:#000000;stroke-width:0.720177"
         id="rect184-9-5-54-9-9"
         width="13.981413"
         height="13.981413"
         x="133.83827"
         y="209.15771" />
      <rect
         style="fill:#0000ff;fill-opacity:0.75;stroke:#000000;stroke-width:0.720177"
         id="rect184-9-5-54-9-8"
         width="13.981413"
         height="13.981413"
         x="119.85686"
         y="223.13913" />
      <rect
         style="fill:#0000ff;fill-opacity:0.75;stroke:#000000;stroke-width:0.720177"
         id="rect184-9-5-54-9-9-0"
         width="13.981413"
         height="13.981413"
         x="133.83827"
         y="223.13913" />
      <rect
         style="fill:#008000;fill-opacity:0.75;stroke:#000000;stroke-width:0.720177"
         id="rect184-9-5-54-9-0"
         width="13.981413"
         height="13.981413"
         x="119.85686"
         y="236.87947" />
      <rect
         style="fill:#ffffff;stroke:#000000;stroke-width:0.720177"
         id="rect184-9-5-54-9-9-3"
         width="13.981413"
         height="13.981413"
         x="133.83827"
         y="236.87947" />
      <rect
         style="fill:#ffff00;fill-opacity:0.75;stroke:#000000;stroke-width:0.720177"
         id="rect184-9-5-54-9-8-2"
         width="13.981413"
         height="13.981413"
         x="119.85686"
         y="250.86089" />
      <rect
         style="fill:#ffffff;stroke:#000000;stroke-width:0.720177"
         id="rect184-9-5-54-9-9-0-6"
         width="13.981413"
         height="13.981413"
         x="133.83827"
         y="250.86089" />
      <rect
         style="fill:#ffffff;fill-opacity:0.75;stroke:#000000;stroke-width:0.720177"
         id="rect184-9-5-54-9-90"
         width="13.981413"
         height="13.981413"
         x="157.17479"
         y="209.15771" />
      <rect
         style="fill:#ffffff;fill-opacity:0.75;stroke:#000000;stroke-width:0.720177"
         id="rect184-9-5-54-9-9-5"
         width="13.981413"
         height="13.981413"
         x="171.1562"
         y="209.15771" />
      <rect
         style="fill:#ffffff;fill-opacity:0.75;stroke:#000000;stroke-width:0.710932"
         id="rect184-9-5-54-9-8-6"
         width="13.993287"
         height="13.61324"
         x="157.17197"
         y="223.26624" />
      <rect
         style="fill:#ffffff;fill-opacity:0.75;stroke:#000000;stroke-width:0.720177"
         id="rect184-9-5-54-9-9-0-3"
         width="13.981413"
         height="13.981413"
         x="171.1562"
         y="223.13913" />
      <rect
         style="fill:#ffffff;fill-opacity:0.75;stroke:#000000;stroke-width:0.721364"
         id="rect184-9-5-54-9-0-6"
         width="14.012149"
         height="13.996778"
         x="157.15942"
         y="236.87947" />
      <rect
         style="fill:#ffffff;stroke:#000000;stroke-width:0.720177"
         id="rect184-9-5-54-9-9-3-3"
         width="13.981413"
         height="13.981413"
         x="171.1562"
         y="236.87947" />
      <rect
         style="fill:#ffffff;fill-opacity:0.75;stroke:#000000;stroke-width:0.720177"
         id="rect184-9-5-54-9-8-2-0"
         width="13.981414"
         height="13.981409"
         x="157.17479"
         y="250.86089" />
      <rect
         style="fill:#ffffff;stroke:#000000;stroke-width:0.720177"
         id="rect184-9-5-54-9-9-0-6-8"
         width="13.981413"
         height="13.981413"
         x="171.1562"
         y="250.86089" />
      <rect
         style="fill:#ffffff;stroke:#000000;stroke-width:0.720177"
         id="rect184-2-7"
         width="13.981413"
         height="13.981413"
         x="30.064558"
         y="223.13913" />
      <rect
         style="fill:#ffffff;stroke:#000000;stroke-width:0.720177"
         id="rect184-9-2-4"
         width="13.981413"
         height="13.981413"
         x="44.045971"
         y="223.13913" />
      <rect
         style="fill:#0000ff;fill-opacity:0.75;stroke:#000000;stroke-width:0.720177"
         id="rect184-0-7-4"
         width="13.981413"
         height="13.981413"
         x="58.027393"
         y="223.13913" />
      <rect
         style="fill:#0000ff;fill-opacity:0.75;stroke:#000000;stroke-width:0.720177"
         id="rect184-9-5-3-9"
         width="13.981413"
         height="13.981413"
         x="72.008812"
         y="223.13913" />
      <rect
         style="fill:#ffffff;stroke:#000000;stroke-width:0.720177"
         id="rect184-7-1"
         width="13.981413"
         height="13.981413"
         x="30.064558"
         y="236.87947" />
      <rect
         style="fill:#008000;fill-opacity:0.75;stroke:#000000;stroke-width:0.720177"
         id="rect184-9-9-5"
         width="13.981413"
         height="13.981413"
         x="44.045971"
         y="236.87947" />
      <rect
         style="fill:#ffffff;stroke:#000000;stroke-width:0.720177"
         id="rect184-0-0-5"
         width="13.981413"
         height="13.981413"
         x="58.027393"
         y="236.87947" />
      <rect
         style="fill:#ffffff;stroke:#000000;stroke-width:0.720177"
         id="rect184-9-5-2-5"
         width="13.981413"
         height="13.981413"
         x="72.008812"
         y="236.87947" />
      <rect
         style="fill:#ffffff;stroke:#000000;stroke-width:0.720177"
         id="rect184-2-3-8"
         width="13.981413"
         height="13.981413"
         x="30.064558"
         y="250.86089" />
      <rect
         style="fill:#ffffff;stroke:#000000;stroke-width:0.720177"
         id="rect184-9-2-9-2"
         width="13.981413"
         height="13.981413"
         x="44.045971"
         y="250.86089" />
      <rect
         style="fill:#ffff00;fill-opacity:0.75;stroke:#000000;stroke-width:0.720177"
         id="rect184-0-7-9-9"
         width="13.981413"
         height="13.981413"
         x="58.027393"
         y="250.86089" />
      <rect
         style="fill:#ffffff;stroke:#000000;stroke-width:0.720177"
         id="rect184-9-5-3-7-8"
         width="13.981413"
         height="13.981413"
         x="72.008812"
         y="250.86089" />
      <path
         d="m 163.0325,216.17426 q 0,-0.59944 0.18086,-1.03094 0.18087,-0.43408 0.48059,-0.64596 0.23255,-0.16795 0.4806,-0.16795 0.40307,0 0.72347,0.41083 0.40049,0.50902 0.40049,1.37976 0,0.60979 -0.1757,1.03612 -0.1757,0.42633 -0.44959,0.62011 -0.2713,0.19121 -0.52451,0.19121 -0.50126,0 -0.83458,-0.5917 -0.28163,-0.49868 -0.28163,-1.20148 z m 0.50643,0.0646 q 0,0.72347 0.17828,1.18081 0.14728,0.38499 0.43925,0.38499 0.13953,0 0.28939,-0.12403 0.14986,-0.1266 0.22737,-0.42116 0.11886,-0.44442 0.11886,-1.25315 0,-0.59945 -0.12402,-0.99994 -0.093,-0.29714 -0.2403,-0.42117 -0.10594,-0.0853 -0.2558,-0.0853 -0.1757,0 -0.31264,0.15761 -0.18604,0.21446 -0.25322,0.67438 -0.0672,0.45992 -0.0672,0.90692 z"
         id="text1"
         style="font-size:5.29167px;font-family:'Times New Roman';-inkscape-font-specification:'Times New Roman, ';stroke-width:0.421322;stroke-dasharray:1.05331, 1.05331;marker-start:none;marker-end:none"
         aria-label="0" />
      <path
         d="m 177.45703,214.77642 0.85266,-0.416 h 0.0853 v 2.95848 q 0,0.29455 0.0232,0.3669 0.0258,0.0724 0.10336,0.11111 0.0775,0.0387 0.31522,0.0439 v 0.0956 h -1.31775 v -0.0956 q 0.24805,-0.005 0.3204,-0.0413 0.0723,-0.0388 0.10077,-0.10077 0.0284,-0.0646 0.0284,-0.37982 v -1.89136 q 0,-0.38241 -0.0258,-0.49093 -0.0181,-0.0827 -0.0672,-0.12144 -0.0465,-0.0387 -0.11369,-0.0387 -0.0956,0 -0.26613,0.0801 z"
         id="text2"
         style="font-size:5.29167px;font-family:'Times New Roman';-inkscape-font-specification:'Times New Roman, ';stroke-width:0.421322;stroke-dasharray:1.05331, 1.05331;marker-start:none;marker-end:none"
         aria-label="1" />
      <path
         d="m 165.40195,231.19686 -0.26183,0.71934 h -2.20486 v -0.10198 q 0.9729,-0.88745 1.36977,-1.44969 0.39688,-0.56224 0.39688,-1.02802 0,-0.35553 -0.21773,-0.58428 -0.21773,-0.22876 -0.5209,-0.22876 -0.27561,0 -0.4961,0.16261 -0.21772,0.15985 -0.32246,0.47129 h -0.10197 q 0.0689,-0.50988 0.35278,-0.78273 0.28663,-0.27285 0.71382,-0.27285 0.45475,0 0.75792,0.29215 0.30592,0.29214 0.30592,0.68901 0,0.28388 -0.13229,0.56776 -0.20395,0.44648 -0.66145,0.94533 -0.68627,0.74965 -0.85714,0.90399 h 0.97565 q 0.29765,0 0.41616,-0.0221 0.12127,-0.0221 0.21773,-0.0882 0.0965,-0.0689 0.16812,-0.19293 z"
         id="text3"
         style="font-size:5.64444px;font-family:'Times New Roman';-inkscape-font-specification:'Times New Roman, ';stroke-width:0.421322;stroke-dasharray:1.05331, 1.05331;marker-start:none;marker-end:none"
         aria-label="2" />
      <path
         d="m 177.14231,228.9778 q 0.15986,-0.37758 0.40239,-0.58153 0.24529,-0.20671 0.60909,-0.20671 0.44924,0 0.68902,0.29214 0.1819,0.21773 0.1819,0.46578 0,0.4079 -0.51263,0.84336 0.34451,0.13505 0.5209,0.38585 0.17639,0.2508 0.17639,0.5898 0,0.48507 -0.30868,0.8406 -0.40239,0.46302 -1.16582,0.46302 -0.37758,0 -0.51539,-0.0937 -0.13504,-0.0937 -0.13504,-0.2012 0,-0.0799 0.0634,-0.14056 0.0661,-0.0606 0.15709,-0.0606 0.0689,0 0.14056,0.0221 0.0469,0.0138 0.21222,0.10197 0.16536,0.0854 0.22875,0.10198 0.10198,0.0303 0.21773,0.0303 0.28112,0 0.48783,-0.21773 0.20946,-0.21773 0.20946,-0.51538 0,-0.21773 -0.0965,-0.42444 -0.0717,-0.15434 -0.1571,-0.23426 -0.11851,-0.11025 -0.32521,-0.19844 -0.20671,-0.0909 -0.42168,-0.0909 h -0.0882 v -0.0827 q 0.21773,-0.0276 0.43546,-0.1571 0.22049,-0.12953 0.31971,-0.31144 0.0992,-0.1819 0.0992,-0.39963 0,-0.28387 -0.17914,-0.4575 -0.17639,-0.17639 -0.44097,-0.17639 -0.42719,0 -0.71383,0.4575 z"
         id="text4"
         style="font-size:5.64444px;font-family:'Times New Roman';-inkscape-font-specification:'Times New Roman, ';stroke-width:0.421322;stroke-dasharray:1.05331, 1.05331;marker-start:none;marker-end:none"
         aria-label="3" />
      <path
         d="m 163.42963,242.41439 0.90951,-0.44373 h 0.091 v 3.1557 q 0,0.3142 0.0248,0.39137 0.0276,0.0772 0.11024,0.11851 0.0827,0.0413 0.33624,0.0469 v 0.10197 h -1.40559 v -0.10197 q 0.26458,-0.006 0.34175,-0.0441 0.0772,-0.0413 0.10749,-0.10748 0.0303,-0.0689 0.0303,-0.40515 v -2.01744 q 0,-0.4079 -0.0276,-0.52366 -0.0193,-0.0882 -0.0717,-0.12953 -0.0496,-0.0413 -0.12127,-0.0413 -0.10198,0 -0.28388,0.0854 z"
         id="text5"
         style="font-size:5.64444px;font-family:'Times New Roman';-inkscape-font-specification:'Times New Roman, ';stroke-width:0.421322;stroke-dasharray:1.05331, 1.05331;marker-start:none;marker-end:none"
         aria-label="1" />
      <path
         d="m 165.39884,259.03945 -0.26183,0.71934 h -2.20486 v -0.10198 q 0.97289,-0.88745 1.36977,-1.44969 0.39687,-0.56224 0.39687,-1.02802 0,-0.35553 -0.21773,-0.58428 -0.21773,-0.22876 -0.52089,-0.22876 -0.27561,0 -0.4961,0.16261 -0.21773,0.15985 -0.32246,0.47129 h -0.10197 q 0.0689,-0.50988 0.35277,-0.78273 0.28664,-0.27285 0.71383,-0.27285 0.45475,0 0.75792,0.29215 0.30592,0.29214 0.30592,0.68901 0,0.28388 -0.13229,0.56776 -0.20395,0.44648 -0.66146,0.94533 -0.68626,0.74965 -0.85714,0.90399 h 0.97565 q 0.29766,0 0.41617,-0.0221 0.12127,-0.022 0.21773,-0.0882 0.0965,-0.0689 0.16812,-0.19293 z"
         id="text6"
         style="font-size:5.64444px;font-family:'Times New Roman';-inkscape-font-specification:'Times New Roman, ';stroke-width:0.421322;stroke-dasharray:1.05331, 1.05331;marker-start:none;marker-end:none"
         aria-label="2" />
      <path
         d="m 128.92462,204.78729 v -0.10197 h 0.14056 q 0.23702,0 0.33624,-0.15159 0.0606,-0.0909 0.0606,-0.4079 v -2.41432 q 0,-0.35002 -0.0772,-0.43821 -0.10748,-0.12127 -0.3197,-0.12127 h -0.14056 v -0.10197 h 1.52135 q 0.83785,0 1.27331,0.19016 0.43821,0.19017 0.7028,0.6339 0.26734,0.44373 0.26734,1.02526 0,0.77997 -0.47405,1.30362 -0.53192,0.58429 -1.62057,0.58429 z m 1.0666,-0.27009 q 0.35002,0.0772 0.58704,0.0772 0.63941,0 1.06109,-0.44924 0.42168,-0.44924 0.42168,-1.21819 0,-0.77445 -0.42168,-1.22094 -0.42168,-0.44648 -1.08314,-0.44648 -0.24804,0 -0.56499,0.0799 z m 4.51996,-0.0937 q -0.38861,0.30041 -0.48782,0.34727 -0.14883,0.0689 -0.31695,0.0689 -0.26183,0 -0.43271,-0.17915 -0.16812,-0.17914 -0.16812,-0.47129 0,-0.18465 0.0827,-0.3197 0.11299,-0.18741 0.39136,-0.35278 0.28112,-0.16536 0.93155,-0.40238 v -0.0992 q 0,-0.37759 -0.12127,-0.51815 -0.11851,-0.14056 -0.34726,-0.14056 -0.17363,0 -0.27561,0.0937 -0.10473,0.0937 -0.10473,0.21498 l 0.006,0.15985 q 0,0.12678 -0.0661,0.19568 -0.0634,0.0689 -0.16812,0.0689 -0.10198,0 -0.16812,-0.0717 -0.0634,-0.0717 -0.0634,-0.19568 0,-0.23702 0.24253,-0.43546 0.24253,-0.19844 0.68075,-0.19844 0.33624,0 0.55122,0.113 0.1626,0.0854 0.23977,0.26734 0.0496,0.11851 0.0496,0.48507 v 0.85714 q 0,0.36105 0.0138,0.44373 0.0138,0.0799 0.0441,0.10749 0.0331,0.0276 0.0744,0.0276 0.0441,0 0.0772,-0.0193 0.0579,-0.0358 0.22325,-0.20119 v 0.15434 q -0.30868,0.41341 -0.5898,0.41341 -0.13505,0 -0.21498,-0.0937 -0.0799,-0.0937 -0.0827,-0.31971 z m 0,-0.17914 v -0.96187 q -0.41617,0.16536 -0.53743,0.23426 -0.21773,0.12127 -0.31144,0.25356 -0.0937,0.13229 -0.0937,0.28939 0,0.19844 0.11851,0.33073 0.11852,0.12953 0.27286,0.12953 0.20946,0 0.55121,-0.2756 z m 1.80799,-2.8112 v 0.82958 h 0.5898 v 0.19292 h -0.5898 v 1.63711 q 0,0.24529 0.0689,0.33073 0.0717,0.0854 0.1819,0.0854 0.0909,0 0.17639,-0.0551 0.0854,-0.0579 0.13229,-0.16812 h 0.10749 q -0.0965,0.27009 -0.27286,0.4079 -0.17638,0.13504 -0.3638,0.13504 -0.12678,0 -0.24804,-0.0689 -0.12127,-0.0717 -0.17915,-0.20119 -0.0579,-0.13229 -0.0579,-0.40514 v -1.69775 h -0.39963 v -0.0909 q 0.15159,-0.0606 0.30868,-0.20395 0.15985,-0.14607 0.28388,-0.34451 0.0634,-0.10473 0.17639,-0.38309 z m 2.26549,2.99034 q -0.38861,0.30041 -0.48783,0.34727 -0.14882,0.0689 -0.31695,0.0689 -0.26182,0 -0.4327,-0.17915 -0.16812,-0.17914 -0.16812,-0.47129 0,-0.18465 0.0827,-0.3197 0.113,-0.18741 0.39137,-0.35278 0.28111,-0.16536 0.93155,-0.40238 v -0.0992 q 0,-0.37759 -0.12127,-0.51815 -0.11851,-0.14056 -0.34726,-0.14056 -0.17364,0 -0.27561,0.0937 -0.10473,0.0937 -0.10473,0.21498 l 0.006,0.15985 q 0,0.12678 -0.0661,0.19568 -0.0634,0.0689 -0.16812,0.0689 -0.10197,0 -0.16812,-0.0717 -0.0634,-0.0717 -0.0634,-0.19568 0,-0.23702 0.24254,-0.43546 0.24253,-0.19844 0.68075,-0.19844 0.33624,0 0.55121,0.113 0.16261,0.0854 0.23978,0.26734 0.0496,0.11851 0.0496,0.48507 v 0.85714 q 0,0.36105 0.0138,0.44373 0.0138,0.0799 0.0441,0.10749 0.0331,0.0276 0.0744,0.0276 0.0441,0 0.0772,-0.0193 0.0579,-0.0358 0.22324,-0.20119 v 0.15434 q -0.30868,0.41341 -0.5898,0.41341 -0.13504,0 -0.21497,-0.0937 -0.0799,-0.0937 -0.0827,-0.31971 z m 0,-0.17914 v -0.96187 q -0.41617,0.16536 -0.53744,0.23426 -0.21773,0.12127 -0.31143,0.25356 -0.0937,0.13229 -0.0937,0.28939 0,0.19844 0.11851,0.33073 0.11851,0.12953 0.27285,0.12953 0.20947,0 0.55122,-0.2756 z"
         id="text7"
         style="font-size:5.64444px;font-family:'Times New Roman';-inkscape-font-specification:'Times New Roman, ';stroke-width:0.421322;stroke-dasharray:1.05331, 1.05331;marker-start:none;marker-end:none"
         aria-label="Data" />
      <path
         d="m 164.41718,204.76387 v 0.10197 h -1.60128 v -0.10197 h 0.13229 q 0.23151,0 0.33624,-0.13505 0.0662,-0.0882 0.0662,-0.42443 v -2.41432 q 0,-0.28388 -0.0358,-0.37483 -0.0276,-0.0689 -0.113,-0.11851 -0.12127,-0.0661 -0.25356,-0.0661 h -0.13229 v -0.10197 h 1.60128 v 0.10197 h -0.13505 q -0.22875,0 -0.33348,0.13505 -0.0689,0.0882 -0.0689,0.42444 v 2.41432 q 0,0.28387 0.0358,0.37482 0.0276,0.0689 0.11576,0.11851 0.11851,0.0661 0.2508,0.0661 z m 1.05006,-1.96232 q 0.44373,-0.53468 0.84612,-0.53468 0.2067,0 0.35553,0.10473 0.14883,0.10197 0.23702,0.33899 0.0606,0.16537 0.0606,0.50712 v 1.07763 q 0,0.23978 0.0386,0.32521 0.0303,0.0689 0.0965,0.10749 0.0689,0.0386 0.25081,0.0386 v 0.0992 h -1.2485 v -0.0992 h 0.0524 q 0.17639,0 0.24529,-0.0524 0.0717,-0.0551 0.0992,-0.15985 0.011,-0.0413 0.011,-0.25907 v -1.03353 q 0,-0.34451 -0.0909,-0.49885 -0.0882,-0.1571 -0.30041,-0.1571 -0.32797,0 -0.65319,0.35829 v 1.33119 q 0,0.25631 0.0303,0.31695 0.0386,0.0799 0.10473,0.11851 0.0689,0.0358 0.27561,0.0358 v 0.0992 h -1.2485 v -0.0992 h 0.0551 q 0.19292,0 0.25907,-0.0965 0.0689,-0.0992 0.0689,-0.37482 v -0.93707 q 0,-0.45475 -0.0221,-0.55397 -0.0193,-0.0992 -0.0634,-0.13505 -0.0413,-0.0358 -0.113,-0.0358 -0.0772,0 -0.18465,0.0413 l -0.0413,-0.0992 0.76068,-0.30868 h 0.11851 z m 3.86953,1.78042 q -0.18466,0.19292 -0.36105,0.27836 -0.17638,0.0827 -0.38033,0.0827 -0.41341,0 -0.7221,-0.3445 -0.30868,-0.34727 -0.30868,-0.89022 0,-0.54294 0.34176,-0.99218 0.34175,-0.452 0.87919,-0.452 0.33348,0 0.55121,0.21222 v -0.46578 q 0,-0.4327 -0.0221,-0.53192 -0.0193,-0.0992 -0.0634,-0.13505 -0.0441,-0.0358 -0.11024,-0.0358 -0.0717,0 -0.19017,0.0441 l -0.0358,-0.0965 0.75241,-0.30868 h 0.12402 v 2.91868 q 0,0.44373 0.0193,0.54295 0.022,0.0965 0.0661,0.13504 0.0469,0.0386 0.10749,0.0386 0.0744,0 0.19844,-0.0469 l 0.0303,0.0965 -0.74965,0.31143 h -0.12678 z m 0,-0.19293 v -1.30086 q -0.0165,-0.18742 -0.0992,-0.34176 -0.0827,-0.15434 -0.22048,-0.23151 -0.13505,-0.0799 -0.26459,-0.0799 -0.24253,0 -0.4327,0.21773 -0.2508,0.28663 -0.2508,0.83784 0,0.55673 0.24253,0.85439 0.24254,0.2949 0.54019,0.2949 0.2508,0 0.48507,-0.25081 z m 1.68121,-3.44233 q 0.11575,0 0.19568,0.0827 0.0827,0.0799 0.0827,0.19568 0,0.11576 -0.0827,0.19844 -0.0799,0.0827 -0.19568,0.0827 -0.11576,0 -0.19844,-0.0827 -0.0827,-0.0827 -0.0827,-0.19844 0,-0.11575 0.0799,-0.19568 0.0827,-0.0827 0.2012,-0.0827 z m 0.22875,1.32016 v 2.02847 q 0,0.23702 0.0331,0.31695 0.0358,0.0772 0.10198,0.11575 0.0689,0.0386 0.24804,0.0386 v 0.0992 h -1.22645 v -0.0992 q 0.18466,0 0.24805,-0.0358 0.0634,-0.0358 0.0992,-0.11851 0.0386,-0.0827 0.0386,-0.31695 v -0.9729 q 0,-0.41065 -0.0248,-0.53192 -0.0193,-0.0882 -0.0606,-0.12127 -0.0413,-0.0358 -0.113,-0.0358 -0.0772,0 -0.18741,0.0413 l -0.0386,-0.0992 0.76067,-0.30868 z m 2.84151,1.63986 q -0.10197,0.49885 -0.39963,0.76895 -0.29765,0.26733 -0.6587,0.26733 -0.42995,0 -0.74965,-0.36104 -0.31971,-0.36105 -0.31971,-0.97565 0,-0.59531 0.35278,-0.96738 0.35553,-0.37207 0.85163,-0.37207 0.37207,0 0.61185,0.19843 0.23977,0.19569 0.23977,0.4079 0,0.10473 -0.0689,0.17088 -0.0661,0.0634 -0.18741,0.0634 -0.16261,0 -0.24529,-0.10473 -0.0469,-0.0579 -0.0634,-0.22049 -0.0138,-0.16261 -0.11024,-0.24804 -0.0965,-0.0827 -0.26734,-0.0827 -0.27561,0 -0.44373,0.20395 -0.22324,0.2701 -0.22324,0.71383 0,0.45199 0.22048,0.79926 0.22324,0.34451 0.60083,0.34451 0.27009,0 0.48507,-0.18466 0.15158,-0.12678 0.2949,-0.46026 z m 0.78548,-0.6146 q -0.003,0.56224 0.27286,0.88194 0.2756,0.3197 0.64767,0.3197 0.24805,0 0.42995,-0.13504 0.18466,-0.13781 0.30868,-0.46854 l 0.0854,0.0551 q -0.0579,0.37758 -0.33624,0.68901 -0.27837,0.30868 -0.69729,0.30868 -0.45475,0 -0.77997,-0.35277 -0.32246,-0.35554 -0.32246,-0.9536 0,-0.64768 0.33073,-1.00873 0.33349,-0.3638 0.83509,-0.3638 0.42444,0 0.69729,0.28112 0.27285,0.27836 0.27285,0.7469 z m 0,-0.15986 h 1.16858 q -0.0138,-0.24253 -0.0579,-0.34175 -0.0689,-0.15434 -0.2067,-0.24253 -0.13505,-0.0882 -0.28388,-0.0882 -0.22875,0 -0.41065,0.17915 -0.17915,0.17639 -0.20947,0.49333 z m 3.71244,-0.8654 v 0.85989 h -0.091 q -0.10473,-0.40514 -0.27009,-0.55121 -0.16261,-0.14607 -0.41617,-0.14607 -0.19292,0 -0.31143,0.10197 -0.11852,0.10197 -0.11852,0.226 0,0.15434 0.0882,0.26458 0.0854,0.113 0.34726,0.23978 l 0.40239,0.19568 q 0.55948,0.27285 0.55948,0.71934 0,0.34451 -0.26182,0.55672 -0.25907,0.20946 -0.58153,0.20946 -0.23151,0 -0.52917,-0.0827 -0.0909,-0.0276 -0.14883,-0.0276 -0.0634,0 -0.0992,0.0717 h -0.091 v -0.90124 h 0.091 q 0.0772,0.38585 0.2949,0.58154 0.21773,0.19568 0.48783,0.19568 0.19017,0 0.30868,-0.11025 0.12127,-0.113 0.12127,-0.27009 0,-0.19017 -0.13505,-0.31971 -0.13229,-0.12953 -0.53192,-0.32797 -0.39964,-0.19844 -0.52366,-0.35829 -0.12402,-0.1571 -0.12402,-0.39687 0,-0.31144 0.21222,-0.5209 0.21497,-0.20946 0.55397,-0.20946 0.14882,0 0.36104,0.0634 0.14056,0.0413 0.18742,0.0413 0.0441,0 0.0689,-0.0193 0.0248,-0.0193 0.0579,-0.0854 z"
         id="text8"
         style="font-size:5.64444px;font-family:'Times New Roman';-inkscape-font-specification:'Times New Roman, ';stroke-width:0.421322;stroke-dasharray:1.05331, 1.05331;marker-start:none;marker-end:none"
         aria-label="Indices" />
    </g>
  </g>
</svg>
