<?xml version="1.0" encoding="UTF-8" standalone="no"?>
<!-- Created with Inkscape (http://www.inkscape.org/) -->

<svg
   width="240mm"
   height="120mm"
   viewBox="0 0 240 120"
   version="1.1"
   id="svg8"
   inkscape:version="1.4 (e7c3feb1, 2024-10-09)"
   sodipodi:docname="ellpackformat.svg"
   xmlns:inkscape="http://www.inkscape.org/namespaces/inkscape"
   xmlns:sodipodi="http://sodipodi.sourceforge.net/DTD/sodipodi-0.dtd"
   xmlns="http://www.w3.org/2000/svg"
   xmlns:svg="http://www.w3.org/2000/svg"
   xmlns:rdf="http://www.w3.org/1999/02/22-rdf-syntax-ns#"
   xmlns:cc="http://creativecommons.org/ns#"
   xmlns:dc="http://purl.org/dc/elements/1.1/">
  <defs
     id="defs2" />
  <sodipodi:namedview
     id="base"
     pagecolor="#ffffff"
     bordercolor="#666666"
     borderopacity="1.0"
     inkscape:pageopacity="0.0"
     inkscape:pageshadow="2"
     inkscape:zoom="1.406257"
     inkscape:cx="380.08699"
     inkscape:cy="119.82162"
     inkscape:document-units="mm"
     inkscape:current-layer="layer1"
     showgrid="false"
     showborder="true"
     width="200mm"
     showguides="true"
     inkscape:guide-bbox="true"
     inkscape:window-width="1904"
     inkscape:window-height="1008"
     inkscape:window-x="1520"
     inkscape:window-y="36"
     inkscape:window-maximized="0"
     inkscape:showpageshadow="2"
     inkscape:pagecheckerboard="0"
     inkscape:deskcolor="#d1d1d1">
    <inkscape:grid
       type="xygrid"
       id="grid815"
       units="mm"
       spacingx="10"
       spacingy="10"
       empspacing="4"
       dotted="false"
       originx="0"
       originy="0" />
  </sodipodi:namedview>
  <metadata
     id="metadata5">
    <rdf:RDF>
      <cc:Work
         rdf:about="">
        <dc:format>image/svg+xml</dc:format>
        <dc:type
           rdf:resource="http://purl.org/dc/dcmitype/StillImage" />
        <dc:title />
      </cc:Work>
    </rdf:RDF>
  </metadata>
  <g
     inkscape:label="Layer 1"
     inkscape:groupmode="layer"
     id="layer1"
     transform="translate(0,-177)">
    <path
       d="m 72.340043,193.70117 h -1.466231 v 3.61873 h -0.545703 v -3.61873 h -1.466232 v -0.48506 h 3.478166 z m 3.472654,-0.0138 q 0.250803,0.27561 0.383094,0.67524 0.135048,0.39963 0.135048,0.90675 0,0.50712 -0.137804,0.90951 -0.135048,0.39963 -0.380338,0.66697 -0.253559,0.27836 -0.600824,0.41892 -0.34451,0.14056 -0.788238,0.14056 -0.432703,0 -0.788237,-0.14332 -0.352777,-0.14331 -0.600824,-0.41616 -0.248047,-0.27286 -0.383094,-0.66973 -0.132292,-0.39688 -0.132292,-0.90675 0,-0.5016 0.132292,-0.89848 0.132291,-0.39963 0.38585,-0.68351 0.242535,-0.27009 0.600824,-0.41341 0.361046,-0.14331 0.785481,-0.14331 0.440972,0 0.790994,0.14607 0.352777,0.14332 0.598068,0.41065 z m -0.04961,1.58199 q 0,-0.79926 -0.35829,-1.23196 -0.35829,-0.43546 -0.978407,-0.43546 -0.625628,0 -0.983918,0.43546 -0.355534,0.4327 -0.355534,1.23196 0,0.80753 0.363802,1.23748 0.363802,0.42719 0.97565,0.42719 0.611849,0 0.972895,-0.42719 0.363802,-0.42995 0.363802,-1.23748 z m 6.512603,0.78824 q 0,0.30592 -0.115755,0.54019 -0.115755,0.23427 -0.311436,0.38585 -0.23151,0.1819 -0.509874,0.25907 -0.275607,0.0772 -0.702799,0.0772 H 79.18062 v -4.10379 h 1.215429 q 0.44924,0 0.672482,0.0331 0.223242,0.0331 0.427191,0.1378 0.225998,0.11851 0.327973,0.30593 0.101975,0.18465 0.101975,0.44372 0,0.29215 -0.148828,0.49885 -0.148828,0.20395 -0.396875,0.32798 v 0.0221 q 0.416167,0.0854 0.655946,0.36655 0.239778,0.27837 0.239778,0.70556 z m -0.917772,-1.84933 q 0,-0.14883 -0.04961,-0.2508 -0.04961,-0.10197 -0.159852,-0.16536 -0.129536,-0.0744 -0.314193,-0.091 -0.184657,-0.0193 -0.457508,-0.0193 h -0.650433 v 1.18511 h 0.705555 q 0.256315,0 0.407899,-0.0248 0.151584,-0.0276 0.281119,-0.11024 0.129536,-0.0827 0.181901,-0.21222 0.05512,-0.13229 0.05512,-0.31144 z m 0.350021,1.87138 q 0,-0.24805 -0.07441,-0.39412 -0.07441,-0.14607 -0.270095,-0.24805 -0.132292,-0.0689 -0.322461,-0.0882 -0.187413,-0.0221 -0.457508,-0.0221 h -0.857139 v 1.52686 h 0.722091 q 0.35829,0 0.587044,-0.0358 0.228754,-0.0386 0.374826,-0.1378 0.15434,-0.10749 0.225998,-0.24529 0.07166,-0.1378 0.07166,-0.35553 z m 4.045917,1.24023 h -2.703709 v -4.10379 h 2.703709 v 0.48506 H 83.59585 v 1.12448 h 2.158007 v 0.48507 H 83.59585 v 1.52411 h 2.158007 z m 4.296718,0 h -1.620571 v -0.41892 h 0.537434 v -3.26595 h -0.537434 v -0.41892 h 1.620571 v 0.41892 h -0.537434 v 3.26595 h 0.537434 z m 4.583352,0 h -0.545703 v -3.53604 l -1.141014,2.40605 h -0.325217 l -1.132747,-2.40605 v 3.53604 h -0.509873 v -4.10379 h 0.74414 l 1.094161,2.28478 1.058333,-2.28478 h 0.75792 z m 3.786847,-2.86356 q 0,0.27285 -0.09646,0.50712 -0.09371,0.23151 -0.264583,0.40238 -0.212218,0.21222 -0.501606,0.31971 -0.289387,0.10473 -0.730359,0.10473 H 96.28206 v 1.52962 h -0.545703 v -4.10379 h 1.113454 q 0.369314,0 0.625629,0.0634 0.256315,0.0606 0.454753,0.19292 0.234266,0.1571 0.361045,0.39136 0.129536,0.23427 0.129536,0.59256 z m -0.567752,0.0138 q 0,-0.21222 -0.07441,-0.36931 -0.07441,-0.1571 -0.225998,-0.25632 -0.132291,-0.0854 -0.303168,-0.12127 -0.16812,-0.0386 -0.427191,-0.0386 H 96.28206 v 1.63986 h 0.460264 q 0.330729,0 0.537435,-0.0579 0.206706,-0.0606 0.336241,-0.19017 0.129536,-0.1323 0.181901,-0.27837 0.05512,-0.14607 0.05512,-0.32797 z m 3.883308,2.84978 h -2.596221 v -4.10379 h 0.545702 v 3.61872 h 2.050519 z m 3.24941,0 h -2.70371 v -4.10379 h 2.70371 v 0.48506 h -2.158 v 1.12448 h 2.158 v 0.48507 h -2.158 v 1.52411 h 2.158 z m 4.51996,0 H 108.96 v -3.53604 l -1.14101,2.40605 h -0.32522 l -1.13275,-2.40605 v 3.53604 h -0.50987 v -4.10379 h 0.74414 l 1.09416,2.28478 1.05833,-2.28478 h 0.75792 z m 3.80614,0 h -2.70371 v -4.10379 h 2.70371 v 0.48506 h -2.158 v 1.12448 h 2.158 v 0.48507 h -2.158 v 1.52411 h 2.158 z m 3.99631,0 h -0.67524 l -1.94578,-3.67109 v 3.67109 h -0.50988 v -4.10379 h 0.84612 l 1.77491,3.35138 v -3.35138 h 0.50987 z m 4.01836,-3.61873 h -1.46623 v 3.61873 h -0.54571 v -3.61873 h -1.46623 v -0.48506 h 3.47817 z m 3.25492,3.61873 h -2.70371 v -4.10379 h 2.70371 v 0.48506 h -2.158 v 1.12448 h 2.158 v 0.48507 h -2.158 v 1.52411 h 2.158 z m 4.33255,-2.04776 q 0,0.55948 -0.24529,1.01423 -0.24254,0.45475 -0.64768,0.70556 -0.28112,0.17363 -0.62838,0.2508 -0.34451,0.0772 -0.90951,0.0772 h -1.03628 v -4.10379 h 1.02526 q 0.60082,0 0.9536,0.0882 0.35553,0.0854 0.60082,0.23702 0.41893,0.26183 0.65319,0.69729 0.23427,0.43546 0.23427,1.03353 z m -0.57051,-0.008 q 0,-0.48231 -0.16812,-0.81304 -0.16812,-0.33073 -0.5016,-0.5209 -0.24254,-0.1378 -0.51539,-0.19017 -0.27285,-0.0551 -0.65319,-0.0551 h -0.51263 v 3.16673 h 0.51263 q 0.39412,0 0.68626,-0.0579 0.2949,-0.0579 0.54019,-0.21497 0.30593,-0.19568 0.45751,-0.51539 0.15434,-0.3197 0.15434,-0.79926 z m 2.32062,-2.04776 -0.0717,2.9738 h -0.46853 l -0.0772,-2.9738 z m -0.0276,4.10379 h -0.56224 v -0.58153 h 0.56224 z m 2.24895,-4.10379 -0.0717,2.9738 h -0.46854 l -0.0772,-2.9738 z m -0.0276,4.10379 h -0.56224 v -0.58153 h 0.56224 z m 2.24896,-4.10379 -0.0717,2.9738 h -0.46853 l -0.0772,-2.9738 z m -0.0276,4.10379 h -0.56224 v -0.58153 h 0.56224 z m 2.24896,-4.10379 -0.0717,2.9738 h -0.46853 l -0.0772,-2.9738 z m -0.0276,4.10379 h -0.56223 v -0.58153 h 0.56223 z m 2.24896,-4.10379 -0.0717,2.9738 h -0.46854 l -0.0772,-2.9738 z m -0.0276,4.10379 h -0.56224 v -0.58153 h 0.56224 z m 2.24896,-4.10379 -0.0717,2.9738 h -0.46853 l -0.0772,-2.9738 z m -0.0276,4.10379 h -0.56224 v -0.58153 h 0.56224 z"
       id="text1"
       style="font-size:5.64444px;fill:none;stroke:#000000;stroke-width:0.421322"
       aria-label="TO BE IMPLEMENTED!!!!!!" />
    <g
       id="g1"
       transform="translate(-13.579066,-0.07561398)">
      <rect
         style="fill:#ff0000;fill-opacity:0.75;stroke:#000000;stroke-width:0.720177"
         id="rect184-1"
         width="13.981413"
         height="13.981413"
         x="43.643623"
         y="209.23332" />
      <rect
         style="fill:#ff0000;fill-opacity:0.75;stroke:#000000;stroke-width:0.720177"
         id="rect184-9-7"
         width="13.981413"
         height="13.981413"
         x="57.625038"
         y="209.23332" />
      <rect
         style="fill:#ffffff;stroke:#000000;stroke-width:0.720177"
         id="rect184-0-5"
         width="13.981413"
         height="13.981413"
         x="71.606461"
         y="209.23332" />
      <rect
         style="fill:#ffffff;stroke:#000000;stroke-width:0.720177"
         id="rect184-9-5-54"
         width="13.981413"
         height="13.981413"
         x="85.587875"
         y="209.23332" />
      <rect
         style="fill:#ffffff;stroke:#000000;stroke-width:0.720177"
         id="rect184-03-1"
         width="13.981413"
         height="13.981413"
         x="139.62605"
         y="209.23332" />
      <rect
         style="fill:#ffffff;stroke:#000000;stroke-width:0.720177"
         id="rect184-9-98-8"
         width="13.981413"
         height="13.981413"
         x="153.60747"
         y="209.23332" />
      <rect
         style="fill:#ffffff;stroke:#000000;stroke-width:0.720177"
         id="rect184-0-6-8"
         width="13.981413"
         height="13.981413"
         x="167.58888"
         y="209.23332" />
      <rect
         style="fill:#ffffff;stroke:#000000;stroke-width:0.720177"
         id="rect184-9-5-5-3"
         width="13.981413"
         height="13.981413"
         x="181.57027"
         y="209.23332" />
      <rect
         style="fill:#ffffff;stroke:#000000;stroke-width:0.720177"
         id="rect184-9-5-5-2-5"
         width="13.981413"
         height="13.981413"
         x="195.55171"
         y="209.23332" />
      <rect
         style="fill:#ffffff;stroke:#000000;stroke-width:0.720177"
         id="rect184-03-7-22"
         width="13.981413"
         height="13.981413"
         x="139.62605"
         y="228.03592" />
      <rect
         style="fill:#ffffff;stroke:#000000;stroke-width:0.720177"
         id="rect184-9-98-0-6"
         width="13.981413"
         height="13.981413"
         x="153.60744"
         y="228.03592" />
      <rect
         style="fill:#ffffff;stroke:#000000;stroke-width:0.720177"
         id="rect184-0-6-3-67"
         width="13.981413"
         height="13.981413"
         x="167.58888"
         y="228.03592" />
      <rect
         style="fill:#ffffff;stroke:#000000;stroke-width:0.720177"
         id="rect184-9-5-5-9-8"
         width="13.981413"
         height="13.981413"
         x="181.57027"
         y="228.03592" />
      <rect
         style="fill:#ffffff;stroke:#000000;stroke-width:0.720177"
         id="rect184-9-5-5-2-9-4"
         width="13.981413"
         height="13.981413"
         x="195.55171"
         y="228.03592" />
      <rect
         style="fill:#ffffff;stroke:#000000;stroke-width:0.720177"
         id="rect184-9-5-5-2-9-7-1"
         width="13.981413"
         height="13.981413"
         x="209.53307"
         y="228.03592" />
      <rect
         style="fill:#ff0000;fill-opacity:0.75;stroke:#000000;stroke-width:0.720177"
         id="rect184-03-7-2-7"
         width="13.981413"
         height="13.981413"
         x="139.62605"
         y="246.83853" />
      <rect
         style="fill:#ff0000;fill-opacity:0.75;stroke:#000000;stroke-width:0.720177"
         id="rect184-9-98-0-3-1"
         width="13.981413"
         height="13.981413"
         x="153.60744"
         y="246.83853" />
      <rect
         style="fill:#0000ff;fill-opacity:0.75;stroke:#000000;stroke-width:0.720177"
         id="rect184-0-6-3-6-8"
         width="13.981413"
         height="13.981413"
         x="209.5331"
         y="246.83853" />
      <rect
         style="fill:#0000ff;fill-opacity:0.75;stroke:#000000;stroke-width:0.720177"
         id="rect184-9-5-5-9-5-7"
         width="13.981413"
         height="13.981413"
         x="181.57027"
         y="246.83853" />
      <rect
         style="fill:#008000;fill-opacity:0.75;stroke:#000000;stroke-width:0.720177"
         id="rect184-9-5-5-2-9-5-8"
         width="13.981413"
         height="13.981413"
         x="167.58879"
         y="246.83853" />
      <rect
         style="fill:#ffff00;fill-opacity:0.75;stroke:#000000;stroke-width:0.720177"
         id="rect184-9-5-5-2-9-7-8-7"
         width="13.981413"
         height="13.981413"
         x="195.5515"
         y="246.90469" />
      <rect
         style="fill:#ffffff;stroke:#000000;stroke-width:0.720177"
         id="rect184-2-7"
         width="13.981413"
         height="13.981413"
         x="43.643623"
         y="223.21474" />
      <rect
         style="fill:#ffffff;stroke:#000000;stroke-width:0.720177"
         id="rect184-9-2-4"
         width="13.981413"
         height="13.981413"
         x="57.625038"
         y="223.21474" />
      <rect
         style="fill:#0000ff;fill-opacity:0.75;stroke:#000000;stroke-width:0.720177"
         id="rect184-0-7-4"
         width="13.981413"
         height="13.981413"
         x="71.606461"
         y="223.21474" />
      <rect
         style="fill:#0000ff;fill-opacity:0.75;stroke:#000000;stroke-width:0.720177"
         id="rect184-9-5-3-9"
         width="13.981413"
         height="13.981413"
         x="85.587875"
         y="223.21474" />
      <rect
         style="fill:#ffffff;stroke:#000000;stroke-width:0.720177"
         id="rect184-7-1"
         width="13.981413"
         height="13.981413"
         x="43.643623"
         y="236.95508" />
      <rect
         style="fill:#008000;fill-opacity:0.75;stroke:#000000;stroke-width:0.720177"
         id="rect184-9-9-5"
         width="13.981413"
         height="13.981413"
         x="57.625038"
         y="236.95508" />
      <rect
         style="fill:#ffffff;stroke:#000000;stroke-width:0.720177"
         id="rect184-0-0-5"
         width="13.981413"
         height="13.981413"
         x="71.606461"
         y="236.95508" />
      <rect
         style="fill:#ffffff;stroke:#000000;stroke-width:0.720177"
         id="rect184-9-5-2-5"
         width="13.981413"
         height="13.981413"
         x="85.587875"
         y="236.95508" />
      <rect
         style="fill:#ffffff;stroke:#000000;stroke-width:0.720177"
         id="rect184-2-3-8"
         width="13.981413"
         height="13.981413"
         x="43.643623"
         y="250.93649" />
      <rect
         style="fill:#ffffff;stroke:#000000;stroke-width:0.720177"
         id="rect184-9-2-9-2"
         width="13.981413"
         height="13.981413"
         x="57.625038"
         y="250.93649" />
      <rect
         style="fill:#ffff00;fill-opacity:0.75;stroke:#000000;stroke-width:0.720177"
         id="rect184-0-7-9-9"
         width="13.981413"
         height="13.981413"
         x="71.606461"
         y="250.93649" />
      <rect
         style="fill:#ffffff;stroke:#000000;stroke-width:0.720177"
         id="rect184-9-5-3-7-8"
         width="13.981413"
         height="13.981413"
         x="85.587875"
         y="250.93649" />
      <text
         xml:space="preserve"
         style="font-size:3.61808px;line-height:normal;font-family:'Times New Roman';-inkscape-font-specification:'Times New Roman, Normal';text-decoration-color:#000000;fill:#000000;stroke-width:1.2003;stop-color:#000000"
         x="119.46598"
         y="218.0728"
         id="text772-2"><tspan
           sodipodi:role="line"
           id="tspan770-0"
           style="font-size:3.61808px;stroke-width:1.2003"
           x="119.46598"
           y="218.0728">$A_{p} =$</tspan></text>
      <text
         xml:space="preserve"
         style="font-size:3.61808px;line-height:normal;font-family:'Times New Roman';-inkscape-font-specification:'Times New Roman, Normal';text-decoration-color:#000000;fill:#000000;stroke-width:1.2003;stop-color:#000000"
         x="119.8679"
         y="235.93469"
         id="text772-9-7"><tspan
           sodipodi:role="line"
           id="tspan770-7-4"
           style="font-size:3.61808px;stroke-width:1.2003"
           x="119.8679"
           y="235.93469">$A_{i} =$</tspan></text>
      <path
         d="m 145.40824,216.2516 q 0,-0.63941 0.19293,-1.09967 0.19292,-0.46302 0.51263,-0.68902 0.24805,-0.17914 0.51263,-0.17914 0.42995,0 0.7717,0.43821 0.42719,0.54295 0.42719,1.47175 0,0.65043 -0.18741,1.10518 -0.18742,0.45475 -0.47956,0.66146 -0.28939,0.20395 -0.55948,0.20395 -0.53468,0 -0.89021,-0.63114 -0.30042,-0.53193 -0.30042,-1.28158 z m 0.54019,0.0689 q 0,0.77171 0.19017,1.25953 0.1571,0.41066 0.46854,0.41066 0.14882,0 0.30868,-0.1323 0.15985,-0.13504 0.24253,-0.44924 0.12678,-0.47404 0.12678,-1.33669 0,-0.63941 -0.13229,-1.0666 -0.0992,-0.31695 -0.25632,-0.44924 -0.113,-0.0909 -0.27285,-0.0909 -0.18741,0 -0.33348,0.16812 -0.19844,0.22875 -0.2701,0.71933 -0.0717,0.49058 -0.0717,0.96738 z"
         id="text1031-8"
         style="font-size:5.64444px;font-family:'Times New Roman';-inkscape-font-specification:'Times New Roman, Normal';stroke-width:1.2003"
         aria-label="0" />
      <path
         d="m 159.90501,214.76057 0.90951,-0.44372 h 0.091 v 3.1557 q 0,0.31419 0.0248,0.39136 0.0276,0.0772 0.11025,0.11852 0.0827,0.0413 0.33624,0.0469 v 0.10197 h -1.4056 v -0.10197 q 0.26458,-0.006 0.34175,-0.0441 0.0772,-0.0413 0.10749,-0.10749 0.0303,-0.0689 0.0303,-0.40514 v -2.01744 q 0,-0.4079 -0.0276,-0.52366 -0.0193,-0.0882 -0.0717,-0.12953 -0.0496,-0.0414 -0.12127,-0.0414 -0.10198,0 -0.28388,0.0854 z"
         id="text1062-58"
         style="font-size:5.64444px;font-family:'Times New Roman';-inkscape-font-specification:'Times New Roman, Normal';stroke-width:1.2003"
         aria-label="1" />
      <path
         d="m 173.50882,215.10508 q 0.15986,-0.37758 0.40239,-0.58153 0.24529,-0.2067 0.60909,-0.2067 0.44924,0 0.68902,0.29214 0.1819,0.21773 0.1819,0.46578 0,0.4079 -0.51263,0.84336 0.34451,0.13504 0.5209,0.38585 0.17639,0.2508 0.17639,0.5898 0,0.48507 -0.30868,0.8406 -0.40239,0.46302 -1.16582,0.46302 -0.37758,0 -0.51539,-0.0937 -0.13504,-0.0937 -0.13504,-0.20119 0,-0.0799 0.0634,-0.14056 0.0661,-0.0606 0.15709,-0.0606 0.0689,0 0.14056,0.022 0.0469,0.0138 0.21222,0.10198 0.16536,0.0854 0.22875,0.10197 0.10198,0.0303 0.21773,0.0303 0.28112,0 0.48783,-0.21773 0.20946,-0.21773 0.20946,-0.51538 0,-0.21773 -0.0965,-0.42444 -0.0717,-0.15434 -0.1571,-0.23427 -0.11851,-0.11024 -0.32521,-0.19843 -0.20671,-0.091 -0.42168,-0.091 h -0.0882 v -0.0827 q 0.21773,-0.0276 0.43546,-0.15709 0.22049,-0.12954 0.31971,-0.31144 0.0992,-0.1819 0.0992,-0.39963 0,-0.28388 -0.17914,-0.45751 -0.17639,-0.17639 -0.44097,-0.17639 -0.42719,0 -0.71383,0.45751 z"
         id="text1062-7-3"
         style="font-size:5.64444px;font-family:'Times New Roman';-inkscape-font-specification:'Times New Roman, Normal';stroke-width:1.2003"
         aria-label="3" />
      <path
         d="m 189.5876,214.36094 -0.21498,0.46853 h -1.12448 l -0.24529,0.5016 q 0.73036,0.10749 1.15755,0.54295 0.36656,0.37483 0.36656,0.88194 0,0.2949 -0.12127,0.54571 -0.11851,0.2508 -0.30041,0.42719 -0.1819,0.17639 -0.40514,0.28387 -0.31695,0.15159 -0.65043,0.15159 -0.33625,0 -0.49059,-0.113 -0.15158,-0.11576 -0.15158,-0.25356 0,-0.0772 0.0634,-0.13505 0.0634,-0.0606 0.15985,-0.0606 0.0717,0 0.12403,0.0221 0.0551,0.0221 0.18465,0.113 0.20671,0.14331 0.41893,0.14331 0.32246,0 0.56499,-0.24253 0.24529,-0.24529 0.24529,-0.59531 0,-0.339 -0.21773,-0.63114 -0.21773,-0.2949 -0.60082,-0.45476 -0.30041,-0.12402 -0.81856,-0.14331 l 0.71658,-1.45245 z"
         id="text1062-5-0"
         style="font-size:5.64444px;font-family:'Times New Roman';-inkscape-font-specification:'Times New Roman, Normal';stroke-width:1.2003"
         aria-label="5" />
      <path
         d="m 203.64897,214.28377 v 0.10197 q -0.3638,0.0358 -0.59532,0.14607 -0.22875,0.10749 -0.45475,0.33073 -0.22324,0.22324 -0.37207,0.49885 -0.14607,0.27285 -0.24529,0.65043 0.39688,-0.27285 0.79651,-0.27285 0.38309,0 0.66421,0.30868 0.28112,0.30868 0.28112,0.79375 0,0.46854 -0.28387,0.85439 -0.34176,0.46853 -0.904,0.46853 -0.38309,0 -0.65043,-0.25356 -0.52365,-0.49334 -0.52365,-1.27882 0,-0.5016 0.20119,-0.9536 0.20119,-0.452 0.57326,-0.80202 0.37483,-0.35002 0.71658,-0.47129 0.34175,-0.12126 0.63665,-0.12126 z m -1.71428,1.92925 q -0.0496,0.37207 -0.0496,0.60082 0,0.26458 0.0965,0.57602 0.0992,0.30868 0.29215,0.49058 0.14056,0.12954 0.34175,0.12954 0.23978,0 0.42719,-0.226 0.19017,-0.226 0.19017,-0.64492 0,-0.47129 -0.18741,-0.8158 -0.18742,-0.34451 -0.53193,-0.34451 -0.10473,0 -0.22599,0.0441 -0.11851,0.0441 -0.35278,0.19017 z"
         id="text1062-5-1-6"
         style="font-size:5.64444px;font-family:'Times New Roman';-inkscape-font-specification:'Times New Roman, Normal';stroke-width:1.2003"
         aria-label="6" />
      <path
         d="m 145.4661,235.08728 q 0,-0.63941 0.19293,-1.09967 0.19293,-0.46302 0.51263,-0.68902 0.24805,-0.17915 0.51263,-0.17915 0.42995,0 0.7717,0.43822 0.42719,0.54295 0.42719,1.47174 0,0.65044 -0.18741,1.10519 -0.18741,0.45475 -0.47956,0.66146 Q 146.92682,237 146.65673,237 q -0.53468,0 -0.89021,-0.63114 -0.30042,-0.53193 -0.30042,-1.28158 z m 0.5402,0.0689 q 0,0.7717 0.19016,1.25953 0.1571,0.41065 0.46854,0.41065 0.14883,0 0.30868,-0.13229 0.15985,-0.13505 0.24253,-0.44924 0.12678,-0.47404 0.12678,-1.33669 0,-0.63941 -0.13229,-1.0666 -0.0992,-0.31695 -0.25631,-0.44924 -0.113,-0.091 -0.27286,-0.091 -0.18741,0 -0.33348,0.16813 -0.19844,0.22875 -0.2701,0.71933 -0.0717,0.49058 -0.0717,0.96738 z"
         id="text1322-22"
         style="font-size:5.64444px;font-family:'Times New Roman';-inkscape-font-specification:'Times New Roman, Normal';stroke-width:0.702204"
         aria-label="0&#10;" />
      <path
         d="m 159.44746,235.08728 q 0,-0.63941 0.19292,-1.09967 0.19293,-0.46302 0.51263,-0.68902 0.24805,-0.17915 0.51263,-0.17915 0.42995,0 0.7717,0.43822 0.4272,0.54295 0.4272,1.47174 0,0.65044 -0.18742,1.10519 -0.18741,0.45475 -0.47955,0.66146 Q 160.90818,237 160.63808,237 q -0.53468,0 -0.89021,-0.63114 -0.30041,-0.53193 -0.30041,-1.28158 z m 0.54019,0.0689 q 0,0.7717 0.19017,1.25953 0.15709,0.41065 0.46853,0.41065 0.14883,0 0.30868,-0.13229 0.15985,-0.13505 0.24254,-0.44924 0.12678,-0.47404 0.12678,-1.33669 0,-0.63941 -0.1323,-1.0666 -0.0992,-0.31695 -0.25631,-0.44924 -0.113,-0.091 -0.27285,-0.091 -0.18742,0 -0.33349,0.16813 -0.19843,0.22875 -0.27009,0.71933 -0.0717,0.49058 -0.0717,0.96738 z"
         id="text1322-3-5"
         style="font-size:5.64444px;font-family:'Times New Roman';-inkscape-font-specification:'Times New Roman, Normal';stroke-width:0.702204"
         aria-label="0&#10;" />
      <path
         d="m 175.81291,236.21452 -0.26183,0.71933 h -2.20486 v -0.10197 q 0.9729,-0.88746 1.36977,-1.4497 0.39688,-0.56224 0.39688,-1.02801 0,-0.35554 -0.21773,-0.58429 -0.21773,-0.22876 -0.5209,-0.22876 -0.27561,0 -0.4961,0.16261 -0.21773,0.15985 -0.32246,0.47129 h -0.10197 q 0.0689,-0.50987 0.35278,-0.78272 0.28663,-0.27286 0.71382,-0.27286 0.45475,0 0.75792,0.29215 0.30592,0.29214 0.30592,0.68902 0,0.28387 -0.13229,0.56775 -0.20395,0.44648 -0.66146,0.94533 -0.68626,0.74965 -0.85713,0.90399 h 0.97565 q 0.29765,0 0.41616,-0.0221 0.12127,-0.022 0.21773,-0.0882 0.0965,-0.0689 0.16812,-0.19292 z"
         id="text1322-2-22"
         style="font-size:5.64444px;font-family:'Times New Roman';-inkscape-font-specification:'Times New Roman, Normal';stroke-width:0.702204"
         aria-label="2&#10;" />
      <path
         d="m 187.8678,233.56317 0.9095,-0.44373 h 0.0909 v 3.15571 q 0,0.31419 0.0248,0.39136 0.0276,0.0772 0.11024,0.11851 0.0827,0.0413 0.33624,0.0469 v 0.10197 h -1.4056 v -0.10197 q 0.26459,-0.006 0.34176,-0.0441 0.0772,-0.0413 0.10748,-0.10749 0.0303,-0.0689 0.0303,-0.40514 v -2.01745 q 0,-0.4079 -0.0276,-0.52365 -0.0193,-0.0882 -0.0717,-0.12954 -0.0496,-0.0413 -0.12127,-0.0413 -0.10197,0 -0.28387,0.0854 z"
         id="text1322-2-2-7"
         style="font-size:5.64444px;font-family:'Times New Roman';-inkscape-font-specification:'Times New Roman, Normal';stroke-width:0.702204"
         aria-label="1&#10;" />
      <path
         d="m 201.47442,233.90768 q 0.15985,-0.37758 0.40238,-0.58153 0.24529,-0.20671 0.6091,-0.20671 0.44924,0 0.68901,0.29215 0.1819,0.21773 0.1819,0.46577 0,0.4079 -0.51263,0.84336 0.34451,0.13505 0.5209,0.38585 0.17639,0.25081 0.17639,0.5898 0,0.48507 -0.30868,0.84061 Q 202.8304,237 202.06697,237 q -0.37758,0 -0.51538,-0.0937 -0.13505,-0.0937 -0.13505,-0.20119 0,-0.0799 0.0634,-0.14056 0.0661,-0.0606 0.15709,-0.0606 0.0689,0 0.14056,0.0221 0.0469,0.0138 0.21222,0.10198 0.16537,0.0854 0.22876,0.10197 0.10197,0.0303 0.21773,0.0303 0.28112,0 0.48782,-0.21773 0.20946,-0.21773 0.20946,-0.51539 0,-0.21773 -0.0965,-0.42443 -0.0717,-0.15434 -0.1571,-0.23427 -0.11851,-0.11024 -0.32521,-0.19844 -0.20671,-0.0909 -0.42168,-0.0909 h -0.0882 v -0.0827 q 0.21773,-0.0276 0.43546,-0.1571 0.22049,-0.12953 0.31971,-0.31143 0.0992,-0.1819 0.0992,-0.39963 0,-0.28388 -0.17915,-0.45751 -0.17639,-0.17639 -0.44097,-0.17639 -0.42719,0 -0.71382,0.45751 z"
         id="text1322-2-2-1-15"
         style="font-size:5.64444px;font-family:'Times New Roman';-inkscape-font-specification:'Times New Roman, Normal';stroke-width:0.702204"
         aria-label="3&#10;" />
      <path
         d="m 215.83061,233.56317 0.90951,-0.44373 h 0.0909 v 3.15571 q 0,0.31419 0.0248,0.39136 0.0276,0.0772 0.11024,0.11851 0.0827,0.0413 0.33624,0.0469 v 0.10197 h -1.40559 v -0.10197 q 0.26458,-0.006 0.34175,-0.0441 0.0772,-0.0413 0.10749,-0.10749 0.0303,-0.0689 0.0303,-0.40514 v -2.01745 q 0,-0.4079 -0.0276,-0.52365 -0.0193,-0.0882 -0.0717,-0.12954 -0.0496,-0.0413 -0.12127,-0.0413 -0.10198,0 -0.28388,0.0854 z"
         id="text1322-2-2-1-1-2"
         style="font-size:5.64444px;font-family:'Times New Roman';-inkscape-font-specification:'Times New Roman, Normal';stroke-width:0.702204"
         aria-label="1&#10;" />
      <text
         xml:space="preserve"
         style="font-size:3.61808px;line-height:normal;font-family:'Times New Roman';-inkscape-font-specification:'Times New Roman, Normal';text-decoration-color:#000000;fill:#000000;stroke-width:1.2003;stop-color:#000000"
         x="119.46598"
         y="254.73727"
         id="text772-5-1"><tspan
           sodipodi:role="line"
           id="tspan770-5-1"
           style="font-size:3.61808px;stroke-width:1.2003"
           x="119.46598"
           y="254.73727">$A_{x} =$</tspan></text>
    </g>
  </g>
</svg>
