<?xml version="1.0" encoding="utf-8" standalone="no"?>
<!DOCTYPE svg PUBLIC "-//W3C//DTD SVG 1.1//EN"
  "http://www.w3.org/Graphics/SVG/1.1/DTD/svg11.dtd">
<svg xmlns:xlink="http://www.w3.org/1999/xlink" width="864pt" height="432pt" viewBox="0 0 864 432" xmlns="http://www.w3.org/2000/svg" version="1.1">
 <metadata>
  <rdf:RDF xmlns:dc="http://purl.org/dc/elements/1.1/" xmlns:cc="http://creativecommons.org/ns#" xmlns:rdf="http://www.w3.org/1999/02/22-rdf-syntax-ns#">
   <cc:Work>
    <dc:type rdf:resource="http://purl.org/dc/dcmitype/StillImage"/>
    <dc:date>2025-05-15T12:51:33.716776</dc:date>
    <dc:format>image/svg+xml</dc:format>
    <dc:creator>
     <cc:Agent>
      <dc:title>Matplotlib v3.8.4, https://matplotlib.org/</dc:title>
     </cc:Agent>
    </dc:creator>
   </cc:Work>
  </rdf:RDF>
 </metadata>
 <defs>
  <style type="text/css">*{stroke-linejoin: round; stroke-linecap: butt}</style>
 </defs>
 <g id="figure_1">
  <g id="patch_1">
   <path d="M 0 432 
L 864 432 
L 864 0 
L 0 0 
z
" style="fill: #ffffff"/>
  </g>
  <g id="axes_1">
   <g id="patch_2">
    <path d="M 92.380286 369.677271 
L 844.56 369.677271 
L 844.56 19.44 
L 92.380286 19.44 
z
" style="fill: #ffffff"/>
   </g>
   <g id="matplotlib.axis_1">
    <g id="xtick_1">
     <g id="line2d_1">
      <path d="M 126.570273 369.677271 
L 126.570273 19.44 
" clip-path="url(#p7711b4ba10)" style="fill: none; stroke-dasharray: 2.96,1.28; stroke-dashoffset: 0; stroke: #b0b0b0; stroke-opacity: 0.6; stroke-width: 0.8"/>
     </g>
     <g id="line2d_2">
      <defs>
       <path id="md226e5da55" d="M 0 0 
L 0 3.5 
" style="stroke: #000000; stroke-width: 0.8"/>
      </defs>
      <g>
       <use xlink:href="#md226e5da55" x="126.570273" y="369.677271" style="stroke: #000000; stroke-width: 0.8"/>
      </g>
     </g>
     <g id="text_1">
      <!-- 1 -->
      <g transform="translate(122.45813 389.130572) scale(0.18 -0.18)">
       <defs>
        <path id="CMR17-31" d="M 1702 4083 
C 1702 4217 1696 4224 1606 4224 
C 1357 3927 979 3833 621 3820 
C 602 3820 570 3820 563 3808 
C 557 3795 557 3782 557 3648 
C 755 3648 1088 3686 1344 3839 
L 1344 467 
C 1344 243 1331 166 781 166 
L 589 166 
L 589 0 
C 896 6 1216 12 1523 12 
C 1830 12 2150 6 2458 0 
L 2458 166 
L 2266 166 
C 1715 166 1702 236 1702 467 
L 1702 4083 
z
" transform="scale(0.015625)"/>
       </defs>
       <use xlink:href="#CMR17-31" transform="scale(0.996264)"/>
      </g>
     </g>
    </g>
    <g id="xtick_2">
     <g id="line2d_3">
      <path d="M 224.25595 369.677271 
L 224.25595 19.44 
" clip-path="url(#p7711b4ba10)" style="fill: none; stroke-dasharray: 2.96,1.28; stroke-dashoffset: 0; stroke: #b0b0b0; stroke-opacity: 0.6; stroke-width: 0.8"/>
     </g>
     <g id="line2d_4">
      <g>
       <use xlink:href="#md226e5da55" x="224.25595" y="369.677271" style="stroke: #000000; stroke-width: 0.8"/>
      </g>
     </g>
     <g id="text_2">
      <!-- 2 -->
      <g transform="translate(220.143807 389.130572) scale(0.18 -0.18)">
       <defs>
        <path id="CMR17-32" d="M 2669 990 
L 2554 990 
C 2490 537 2438 460 2413 422 
C 2381 371 1920 371 1830 371 
L 602 371 
C 832 620 1280 1073 1824 1596 
C 2214 1966 2669 2400 2669 3033 
C 2669 3788 2067 4224 1395 4224 
C 691 4224 262 3603 262 3027 
C 262 2777 448 2745 525 2745 
C 589 2745 781 2783 781 3007 
C 781 3206 614 3264 525 3264 
C 486 3264 448 3257 422 3244 
C 544 3788 915 4057 1306 4057 
C 1862 4057 2227 3616 2227 3033 
C 2227 2477 1901 1998 1536 1583 
L 262 147 
L 262 0 
L 2515 0 
L 2669 990 
z
" transform="scale(0.015625)"/>
       </defs>
       <use xlink:href="#CMR17-32" transform="scale(0.996264)"/>
      </g>
     </g>
    </g>
    <g id="xtick_3">
     <g id="line2d_5">
      <path d="M 321.941627 369.677271 
L 321.941627 19.44 
" clip-path="url(#p7711b4ba10)" style="fill: none; stroke-dasharray: 2.96,1.28; stroke-dashoffset: 0; stroke: #b0b0b0; stroke-opacity: 0.6; stroke-width: 0.8"/>
     </g>
     <g id="line2d_6">
      <g>
       <use xlink:href="#md226e5da55" x="321.941627" y="369.677271" style="stroke: #000000; stroke-width: 0.8"/>
      </g>
     </g>
     <g id="text_3">
      <!-- 3 -->
      <g transform="translate(317.829484 389.130572) scale(0.18 -0.18)">
       <defs>
        <path id="CMR17-33" d="M 1414 2176 
C 1984 2176 2234 1673 2234 1094 
C 2234 322 1824 25 1453 25 
C 1114 25 563 193 390 691 
C 422 678 454 678 486 678 
C 640 678 755 780 755 947 
C 755 1132 614 1216 486 1216 
C 378 1216 211 1164 211 927 
C 211 335 787 -128 1466 -128 
C 2176 -128 2720 432 2720 1087 
C 2720 1718 2208 2176 1600 2246 
C 2086 2347 2554 2776 2554 3353 
C 2554 3856 2048 4224 1472 4224 
C 890 4224 378 3862 378 3347 
C 378 3123 544 3084 627 3084 
C 762 3084 877 3167 877 3334 
C 877 3500 762 3584 627 3584 
C 602 3584 570 3584 544 3571 
C 730 3999 1235 4076 1459 4076 
C 1683 4076 2106 3966 2106 3347 
C 2106 3167 2080 2851 1862 2574 
C 1670 2329 1453 2316 1242 2297 
C 1210 2297 1062 2284 1037 2284 
C 992 2278 966 2272 966 2227 
C 966 2182 973 2176 1101 2176 
L 1414 2176 
z
" transform="scale(0.015625)"/>
       </defs>
       <use xlink:href="#CMR17-33" transform="scale(0.996264)"/>
      </g>
     </g>
    </g>
    <g id="xtick_4">
     <g id="line2d_7">
      <path d="M 419.627304 369.677271 
L 419.627304 19.44 
" clip-path="url(#p7711b4ba10)" style="fill: none; stroke-dasharray: 2.96,1.28; stroke-dashoffset: 0; stroke: #b0b0b0; stroke-opacity: 0.6; stroke-width: 0.8"/>
     </g>
     <g id="line2d_8">
      <g>
       <use xlink:href="#md226e5da55" x="419.627304" y="369.677271" style="stroke: #000000; stroke-width: 0.8"/>
      </g>
     </g>
     <g id="text_4">
      <!-- 4 -->
      <g transform="translate(415.515161 389.130572) scale(0.18 -0.18)">
       <defs>
        <path id="CMR17-34" d="M 2150 4147 
C 2150 4281 2144 4288 2029 4288 
L 128 1254 
L 128 1088 
L 1779 1088 
L 1779 460 
C 1779 230 1766 166 1318 166 
L 1197 166 
L 1197 0 
C 1402 12 1747 12 1965 12 
C 2182 12 2528 12 2733 0 
L 2733 166 
L 2611 166 
C 2163 166 2150 230 2150 460 
L 2150 1088 
L 2803 1088 
L 2803 1254 
L 2150 1254 
L 2150 4147 
z
M 1798 3723 
L 1798 1254 
L 256 1254 
L 1798 3723 
z
" transform="scale(0.015625)"/>
       </defs>
       <use xlink:href="#CMR17-34" transform="scale(0.996264)"/>
      </g>
     </g>
    </g>
    <g id="xtick_5">
     <g id="line2d_9">
      <path d="M 517.312981 369.677271 
L 517.312981 19.44 
" clip-path="url(#p7711b4ba10)" style="fill: none; stroke-dasharray: 2.96,1.28; stroke-dashoffset: 0; stroke: #b0b0b0; stroke-opacity: 0.6; stroke-width: 0.8"/>
     </g>
     <g id="line2d_10">
      <g>
       <use xlink:href="#md226e5da55" x="517.312981" y="369.677271" style="stroke: #000000; stroke-width: 0.8"/>
      </g>
     </g>
     <g id="text_5">
      <!-- 5 -->
      <g transform="translate(513.200838 389.130572) scale(0.18 -0.18)">
       <defs>
        <path id="CMR17-35" d="M 730 3750 
C 794 3724 1056 3641 1325 3641 
C 1920 3641 2246 3961 2432 4140 
C 2432 4191 2432 4224 2394 4224 
C 2387 4224 2374 4224 2323 4198 
C 2099 4102 1837 4032 1517 4032 
C 1325 4032 1037 4055 723 4191 
C 653 4224 640 4224 634 4224 
C 602 4224 595 4217 595 4090 
L 595 2231 
C 595 2113 595 2080 659 2080 
C 691 2080 704 2093 736 2139 
C 941 2435 1222 2560 1542 2560 
C 1766 2560 2246 2415 2246 1293 
C 2246 1087 2246 716 2054 422 
C 1894 159 1645 25 1370 25 
C 947 25 518 319 403 812 
C 429 806 480 793 506 793 
C 589 793 749 838 749 1036 
C 749 1209 627 1280 506 1280 
C 358 1280 262 1190 262 1011 
C 262 454 704 -128 1382 -128 
C 2042 -128 2669 441 2669 1267 
C 2669 2054 2170 2662 1549 2662 
C 1222 2662 947 2540 730 2304 
L 730 3750 
z
" transform="scale(0.015625)"/>
       </defs>
       <use xlink:href="#CMR17-35" transform="scale(0.996264)"/>
      </g>
     </g>
    </g>
    <g id="xtick_6">
     <g id="line2d_11">
      <path d="M 614.998659 369.677271 
L 614.998659 19.44 
" clip-path="url(#p7711b4ba10)" style="fill: none; stroke-dasharray: 2.96,1.28; stroke-dashoffset: 0; stroke: #b0b0b0; stroke-opacity: 0.6; stroke-width: 0.8"/>
     </g>
     <g id="line2d_12">
      <g>
       <use xlink:href="#md226e5da55" x="614.998659" y="369.677271" style="stroke: #000000; stroke-width: 0.8"/>
      </g>
     </g>
     <g id="text_6">
      <!-- 6 -->
      <g transform="translate(610.886516 389.130572) scale(0.18 -0.18)">
       <defs>
        <path id="CMR17-36" d="M 678 2198 
C 678 3712 1395 4076 1811 4076 
C 1946 4076 2272 4049 2400 3782 
C 2298 3782 2106 3782 2106 3558 
C 2106 3385 2246 3328 2336 3328 
C 2394 3328 2566 3353 2566 3571 
C 2566 3987 2246 4224 1805 4224 
C 1043 4224 243 3411 243 2011 
C 243 257 966 -128 1478 -128 
C 2099 -128 2688 431 2688 1295 
C 2688 2101 2170 2688 1517 2688 
C 1126 2688 838 2430 678 1979 
L 678 2198 
z
M 1478 25 
C 691 25 691 1212 691 1450 
C 691 1914 909 2585 1504 2585 
C 1613 2585 1926 2585 2138 2140 
C 2253 1889 2253 1624 2253 1302 
C 2253 954 2253 696 2118 438 
C 1978 173 1773 25 1478 25 
z
" transform="scale(0.015625)"/>
       </defs>
       <use xlink:href="#CMR17-36" transform="scale(0.996264)"/>
      </g>
     </g>
    </g>
    <g id="xtick_7">
     <g id="line2d_13">
      <path d="M 712.684336 369.677271 
L 712.684336 19.44 
" clip-path="url(#p7711b4ba10)" style="fill: none; stroke-dasharray: 2.96,1.28; stroke-dashoffset: 0; stroke: #b0b0b0; stroke-opacity: 0.6; stroke-width: 0.8"/>
     </g>
     <g id="line2d_14">
      <g>
       <use xlink:href="#md226e5da55" x="712.684336" y="369.677271" style="stroke: #000000; stroke-width: 0.8"/>
      </g>
     </g>
     <g id="text_7">
      <!-- 7 -->
      <g transform="translate(708.572193 389.130572) scale(0.18 -0.18)">
       <defs>
        <path id="CMR17-37" d="M 2886 3955 
L 2886 4096 
L 1382 4096 
C 634 4096 621 4166 595 4288 
L 480 4288 
L 294 3104 
L 410 3104 
C 429 3226 474 3552 550 3673 
C 589 3724 1062 3724 1171 3724 
L 2579 3724 
L 1869 2670 
C 1395 1961 1069 1003 1069 166 
C 1069 89 1069 -128 1299 -128 
C 1530 -128 1530 89 1530 172 
L 1530 466 
C 1530 1514 1709 2204 2003 2644 
L 2886 3955 
z
" transform="scale(0.015625)"/>
       </defs>
       <use xlink:href="#CMR17-37" transform="scale(0.996264)"/>
      </g>
     </g>
    </g>
    <g id="xtick_8">
     <g id="line2d_15">
      <path d="M 810.370013 369.677271 
L 810.370013 19.44 
" clip-path="url(#p7711b4ba10)" style="fill: none; stroke-dasharray: 2.96,1.28; stroke-dashoffset: 0; stroke: #b0b0b0; stroke-opacity: 0.6; stroke-width: 0.8"/>
     </g>
     <g id="line2d_16">
      <g>
       <use xlink:href="#md226e5da55" x="810.370013" y="369.677271" style="stroke: #000000; stroke-width: 0.8"/>
      </g>
     </g>
     <g id="text_8">
      <!-- 8 -->
      <g transform="translate(806.25787 389.130572) scale(0.18 -0.18)">
       <defs>
        <path id="CMR17-38" d="M 1741 2289 
C 2144 2494 2554 2803 2554 3298 
C 2554 3884 1990 4224 1472 4224 
C 890 4224 378 3800 378 3215 
C 378 3054 416 2777 666 2533 
C 730 2469 998 2276 1171 2154 
C 883 2006 211 1652 211 945 
C 211 282 838 -128 1459 -128 
C 2144 -128 2720 366 2720 1022 
C 2720 1607 2330 1877 2074 2051 
L 1741 2289 
z
M 902 2855 
C 851 2887 595 3086 595 3388 
C 595 3781 998 4076 1459 4076 
C 1965 4076 2336 3716 2336 3298 
C 2336 2700 1670 2359 1638 2359 
C 1632 2359 1626 2359 1574 2398 
L 902 2855 
z
M 2080 1536 
C 2176 1466 2483 1253 2483 861 
C 2483 385 2010 25 1472 25 
C 890 25 448 443 448 951 
C 448 1459 838 1884 1280 2083 
L 2080 1536 
z
" transform="scale(0.015625)"/>
       </defs>
       <use xlink:href="#CMR17-38" transform="scale(0.996264)"/>
      </g>
     </g>
    </g>
    <g id="text_9">
     <!-- Ranks -->
     <g transform="translate(446.107751 409.071936) scale(0.18 -0.18)">
      <defs>
       <path id="CMR17-52" d="M 2509 2156 
C 3117 2278 3629 2689 3629 3203 
C 3629 3806 2950 4352 2054 4352 
L 333 4352 
L 333 4185 
C 774 4185 845 4185 845 3896 
L 845 428 
C 845 140 774 140 333 140 
L 333 -26 
C 518 -13 851 -13 1050 -13 
C 1248 -13 1581 -13 1766 -26 
L 1766 140 
C 1325 140 1254 140 1254 428 
L 1254 2112 
L 2003 2112 
C 2368 2112 2573 1964 2662 1881 
C 2918 1632 2918 1459 2918 1024 
C 2918 595 2918 377 3110 160 
C 3354 -103 3680 -128 3821 -128 
C 4294 -128 4365 403 4365 512 
C 4365 550 4365 595 4307 595 
C 4256 595 4250 556 4250 531 
C 4218 115 4032 -26 3834 -26 
C 3482 -26 3443 377 3405 768 
C 3386 902 3373 998 3360 1139 
C 3322 1459 3270 1926 2509 2156 
z
M 1984 2214 
L 1254 2214 
L 1254 3935 
C 1254 4153 1267 4185 1523 4185 
L 1990 4185 
C 2522 4185 3142 3999 3142 3203 
C 3142 2374 2464 2214 1984 2214 
z
" transform="scale(0.015625)"/>
       <path id="CMR17-61" d="M 2304 1656 
C 2304 2048 2304 2275 2035 2534 
C 1798 2751 1523 2816 1306 2816 
C 800 2816 435 2408 435 1977 
C 435 1740 627 1728 666 1728 
C 749 1728 896 1779 896 1958 
C 896 2118 774 2188 666 2188 
C 640 2188 608 2182 589 2176 
C 723 2594 1069 2713 1293 2713 
C 1613 2713 1965 2421 1965 1875 
L 1965 1632 
C 1587 1619 1133 1568 774 1373 
C 371 1147 256 822 256 576 
C 256 77 832 -64 1171 -64 
C 1523 -64 1850 135 1990 505 
C 2003 219 2182 -39 2464 -39 
C 2598 -39 2938 51 2938 563 
L 2938 926 
L 2822 926 
L 2822 557 
C 2822 161 2650 109 2566 109 
C 2304 109 2304 446 2304 732 
L 2304 1656 
z
M 1965 887 
C 1965 323 1568 38 1216 38 
C 896 38 646 278 646 576 
C 646 771 730 1114 1101 1322 
C 1408 1497 1760 1523 1965 1536 
L 1965 887 
z
" transform="scale(0.015625)"/>
       <path id="CMR17-6e" d="M 2656 1954 
C 2656 2282 2592 2816 1837 2816 
C 1331 2816 1069 2424 973 2166 
L 966 2166 
L 966 2816 
L 211 2745 
L 211 2578 
C 589 2578 646 2540 646 2231 
L 646 443 
C 646 198 621 166 211 166 
L 211 0 
C 365 12 646 12 813 12 
C 979 12 1267 12 1421 0 
L 1421 166 
C 1011 166 986 192 986 443 
L 986 1678 
C 986 2269 1344 2713 1792 2713 
C 2266 2713 2317 2289 2317 1980 
L 2317 443 
C 2317 198 2291 166 1882 166 
L 1882 0 
C 2035 12 2317 12 2483 12 
C 2650 12 2938 12 3091 0 
L 3091 166 
C 2682 166 2656 192 2656 443 
L 2656 1954 
z
" transform="scale(0.015625)"/>
       <path id="CMR17-6b" d="M 1670 1679 
C 1664 1692 1632 1730 1632 1749 
C 1632 1762 2086 2175 2144 2226 
C 2509 2532 2739 2563 2906 2570 
L 2906 2735 
C 2867 2735 2854 2735 2848 2729 
L 2534 2722 
C 2355 2722 2080 2722 1907 2735 
L 1907 2570 
C 1997 2563 2061 2513 2061 2423 
C 2061 2296 1933 2175 1926 2175 
L 960 1298 
L 960 4416 
L 198 4345 
L 198 4179 
C 576 4179 634 4141 634 3835 
L 634 439 
C 634 198 608 166 198 166 
L 198 0 
C 352 12 634 12 794 12 
C 954 12 1235 12 1389 0 
L 1389 166 
C 979 166 954 191 954 439 
L 954 1139 
L 1395 1540 
L 2042 586 
C 2118 471 2182 382 2182 299 
C 2182 185 2067 166 1990 166 
L 1990 0 
C 2144 12 2419 12 2579 12 
C 2694 12 2931 6 3040 0 
L 3040 166 
C 2739 166 2669 223 2477 503 
L 1670 1679 
z
" transform="scale(0.015625)"/>
       <path id="CMR17-73" d="M 1978 2688 
C 1978 2803 1971 2809 1933 2809 
C 1907 2809 1901 2803 1824 2707 
C 1805 2681 1747 2617 1728 2592 
C 1523 2809 1235 2816 1126 2816 
C 416 2816 160 2444 160 2073 
C 160 1497 813 1363 998 1324 
C 1402 1241 1542 1216 1677 1100 
C 1760 1024 1901 883 1901 652 
C 1901 384 1747 38 1158 38 
C 602 38 403 460 288 1024 
C 269 1113 269 1120 218 1120 
C 166 1120 160 1113 160 985 
L 160 64 
C 160 -52 166 -58 205 -58 
C 237 -58 243 -52 275 0 
C 314 57 410 211 448 275 
C 576 102 800 -64 1158 -64 
C 1792 -64 2131 281 2131 780 
C 2131 1107 1958 1280 1875 1356 
C 1683 1555 1459 1600 1190 1651 
C 838 1728 390 1817 390 2208 
C 390 2374 480 2726 1126 2726 
C 1811 2726 1850 2086 1862 1881 
C 1869 1849 1901 1843 1920 1843 
C 1978 1843 1978 1862 1978 1971 
L 1978 2688 
z
" transform="scale(0.015625)"/>
      </defs>
      <use xlink:href="#CMR17-52" transform="scale(0.996264)"/>
      <use xlink:href="#CMR17-61" transform="translate(67.791102 0) scale(0.996264)"/>
      <use xlink:href="#CMR17-6e" transform="translate(113.481579 0) scale(0.996264)"/>
      <use xlink:href="#CMR17-6b" transform="translate(164.376949 0) scale(0.996264)"/>
      <use xlink:href="#CMR17-73" transform="translate(212.669865 0) scale(0.996264)"/>
     </g>
    </g>
   </g>
   <g id="matplotlib.axis_2">
    <g id="ytick_1">
     <g id="line2d_17">
      <path d="M 92.380286 353.807673 
L 844.56 353.807673 
" clip-path="url(#p7711b4ba10)" style="fill: none; stroke-dasharray: 2.96,1.28; stroke-dashoffset: 0; stroke: #b0b0b0; stroke-opacity: 0.6; stroke-width: 0.8"/>
     </g>
     <g id="line2d_18">
      <defs>
       <path id="me0f2d2a9bc" d="M 0 0 
L -3.5 0 
" style="stroke: #000000; stroke-width: 0.8"/>
      </defs>
      <g>
       <use xlink:href="#me0f2d2a9bc" x="92.380286" y="353.807673" style="stroke: #000000; stroke-width: 0.8"/>
      </g>
     </g>
     <g id="text_10">
      <!-- $\mathdefault{0.0000}$ -->
      <g transform="translate(39.381364 360.034323) scale(0.18 -0.18)">
       <defs>
        <path id="CMR17-30" d="M 2688 2038 
C 2688 2430 2682 3099 2413 3613 
C 2176 4063 1798 4224 1466 4224 
C 1158 4224 768 4082 525 3620 
C 269 3137 243 2539 243 2038 
C 243 1671 250 1112 448 623 
C 723 -39 1216 -128 1466 -128 
C 1760 -128 2208 -7 2470 604 
C 2662 1048 2688 1568 2688 2038 
z
M 1466 -26 
C 1056 -26 813 328 723 816 
C 653 1196 653 1749 653 2109 
C 653 2604 653 3015 736 3407 
C 858 3954 1216 4121 1466 4121 
C 1728 4121 2067 3947 2189 3420 
C 2272 3054 2278 2623 2278 2109 
C 2278 1691 2278 1176 2202 797 
C 2067 96 1690 -26 1466 -26 
z
" transform="scale(0.015625)"/>
        <path id="CMMI12-3a" d="M 1178 307 
C 1178 492 1024 620 870 620 
C 685 620 557 467 557 313 
C 557 128 710 0 864 0 
C 1050 0 1178 153 1178 307 
z
" transform="scale(0.015625)"/>
       </defs>
       <use xlink:href="#CMR17-30" transform="scale(0.996264)"/>
       <use xlink:href="#CMMI12-3a" transform="translate(45.690477 0) scale(0.996264)"/>
       <use xlink:href="#CMR17-30" transform="translate(72.787654 0) scale(0.996264)"/>
       <use xlink:href="#CMR17-30" transform="translate(118.478131 0) scale(0.996264)"/>
       <use xlink:href="#CMR17-30" transform="translate(164.168608 0) scale(0.996264)"/>
       <use xlink:href="#CMR17-30" transform="translate(209.859086 0) scale(0.996264)"/>
      </g>
     </g>
    </g>
    <g id="ytick_2">
     <g id="line2d_19">
      <path d="M 92.380286 281.982959 
L 844.56 281.982959 
" clip-path="url(#p7711b4ba10)" style="fill: none; stroke-dasharray: 2.96,1.28; stroke-dashoffset: 0; stroke: #b0b0b0; stroke-opacity: 0.6; stroke-width: 0.8"/>
     </g>
     <g id="line2d_20">
      <g>
       <use xlink:href="#me0f2d2a9bc" x="92.380286" y="281.982959" style="stroke: #000000; stroke-width: 0.8"/>
      </g>
     </g>
     <g id="text_11">
      <!-- $\mathdefault{0.0005}$ -->
      <g transform="translate(39.381364 288.209609) scale(0.18 -0.18)">
       <use xlink:href="#CMR17-30" transform="scale(0.996264)"/>
       <use xlink:href="#CMMI12-3a" transform="translate(45.690477 0) scale(0.996264)"/>
       <use xlink:href="#CMR17-30" transform="translate(72.787654 0) scale(0.996264)"/>
       <use xlink:href="#CMR17-30" transform="translate(118.478131 0) scale(0.996264)"/>
       <use xlink:href="#CMR17-30" transform="translate(164.168608 0) scale(0.996264)"/>
       <use xlink:href="#CMR17-35" transform="translate(209.859086 0) scale(0.996264)"/>
      </g>
     </g>
    </g>
    <g id="ytick_3">
     <g id="line2d_21">
      <path d="M 92.380286 210.158245 
L 844.56 210.158245 
" clip-path="url(#p7711b4ba10)" style="fill: none; stroke-dasharray: 2.96,1.28; stroke-dashoffset: 0; stroke: #b0b0b0; stroke-opacity: 0.6; stroke-width: 0.8"/>
     </g>
     <g id="line2d_22">
      <g>
       <use xlink:href="#me0f2d2a9bc" x="92.380286" y="210.158245" style="stroke: #000000; stroke-width: 0.8"/>
      </g>
     </g>
     <g id="text_12">
      <!-- $\mathdefault{0.0010}$ -->
      <g transform="translate(39.381364 216.384895) scale(0.18 -0.18)">
       <use xlink:href="#CMR17-30" transform="scale(0.996264)"/>
       <use xlink:href="#CMMI12-3a" transform="translate(45.690477 0) scale(0.996264)"/>
       <use xlink:href="#CMR17-30" transform="translate(72.787654 0) scale(0.996264)"/>
       <use xlink:href="#CMR17-30" transform="translate(118.478131 0) scale(0.996264)"/>
       <use xlink:href="#CMR17-31" transform="translate(164.168608 0) scale(0.996264)"/>
       <use xlink:href="#CMR17-30" transform="translate(209.859086 0) scale(0.996264)"/>
      </g>
     </g>
    </g>
    <g id="ytick_4">
     <g id="line2d_23">
      <path d="M 92.380286 138.333532 
L 844.56 138.333532 
" clip-path="url(#p7711b4ba10)" style="fill: none; stroke-dasharray: 2.96,1.28; stroke-dashoffset: 0; stroke: #b0b0b0; stroke-opacity: 0.6; stroke-width: 0.8"/>
     </g>
     <g id="line2d_24">
      <g>
       <use xlink:href="#me0f2d2a9bc" x="92.380286" y="138.333532" style="stroke: #000000; stroke-width: 0.8"/>
      </g>
     </g>
     <g id="text_13">
      <!-- $\mathdefault{0.0015}$ -->
      <g transform="translate(39.381364 144.560182) scale(0.18 -0.18)">
       <use xlink:href="#CMR17-30" transform="scale(0.996264)"/>
       <use xlink:href="#CMMI12-3a" transform="translate(45.690477 0) scale(0.996264)"/>
       <use xlink:href="#CMR17-30" transform="translate(72.787654 0) scale(0.996264)"/>
       <use xlink:href="#CMR17-30" transform="translate(118.478131 0) scale(0.996264)"/>
       <use xlink:href="#CMR17-31" transform="translate(164.168608 0) scale(0.996264)"/>
       <use xlink:href="#CMR17-35" transform="translate(209.859086 0) scale(0.996264)"/>
      </g>
     </g>
    </g>
    <g id="ytick_5">
     <g id="line2d_25">
      <path d="M 92.380286 66.508818 
L 844.56 66.508818 
" clip-path="url(#p7711b4ba10)" style="fill: none; stroke-dasharray: 2.96,1.28; stroke-dashoffset: 0; stroke: #b0b0b0; stroke-opacity: 0.6; stroke-width: 0.8"/>
     </g>
     <g id="line2d_26">
      <g>
       <use xlink:href="#me0f2d2a9bc" x="92.380286" y="66.508818" style="stroke: #000000; stroke-width: 0.8"/>
      </g>
     </g>
     <g id="text_14">
      <!-- $\mathdefault{0.0020}$ -->
      <g transform="translate(39.381364 72.735468) scale(0.18 -0.18)">
       <use xlink:href="#CMR17-30" transform="scale(0.996264)"/>
       <use xlink:href="#CMMI12-3a" transform="translate(45.690477 0) scale(0.996264)"/>
       <use xlink:href="#CMR17-30" transform="translate(72.787654 0) scale(0.996264)"/>
       <use xlink:href="#CMR17-30" transform="translate(118.478131 0) scale(0.996264)"/>
       <use xlink:href="#CMR17-32" transform="translate(164.168608 0) scale(0.996264)"/>
       <use xlink:href="#CMR17-30" transform="translate(209.859086 0) scale(0.996264)"/>
      </g>
     </g>
    </g>
    <g id="text_15">
     <!-- Communication time per iteration SpMV -->
     <g transform="translate(31.8933 343.421641) rotate(-90) scale(0.18 -0.18)">
      <defs>
       <path id="CMR17-43" d="M 3974 4351 
C 3974 4467 3968 4473 3930 4473 
C 3904 4473 3898 4467 3853 4390 
L 3571 3849 
C 3258 4249 2874 4480 2381 4480 
C 1286 4480 294 3507 294 2179 
C 294 837 1286 -128 2387 -128 
C 3366 -128 3974 741 3974 1482 
C 3974 1547 3974 1573 3917 1573 
C 3866 1573 3866 1553 3859 1495 
C 3808 592 3168 38 2477 38 
C 1824 38 781 502 781 2179 
C 781 3862 1843 4313 2464 4313 
C 3187 4313 3712 3681 3834 2785 
C 3846 2707 3846 2695 3904 2695 
C 3974 2695 3974 2707 3974 2824 
L 3974 4351 
z
" transform="scale(0.015625)"/>
       <path id="CMR17-6f" d="M 2758 1356 
C 2758 2176 2163 2816 1466 2816 
C 768 2816 173 2176 173 1356 
C 173 550 768 -64 1466 -64 
C 2163 -64 2758 550 2758 1356 
z
M 1466 51 
C 1165 51 909 230 762 480 
C 602 768 582 1126 582 1408 
C 582 1676 595 2009 762 2297 
C 890 2508 1139 2713 1466 2713 
C 1754 2713 1997 2553 2150 2329 
C 2349 2028 2349 1606 2349 1408 
C 2349 1158 2336 774 2163 467 
C 1984 172 1709 51 1466 51 
z
" transform="scale(0.015625)"/>
       <path id="CMR17-6d" d="M 4326 1954 
C 4326 2276 4269 2816 3507 2816 
C 3072 2816 2771 2520 2656 2173 
L 2650 2173 
C 2573 2700 2195 2816 1837 2816 
C 1331 2816 1069 2424 973 2166 
L 966 2166 
L 966 2816 
L 211 2745 
L 211 2578 
C 589 2578 646 2540 646 2231 
L 646 443 
C 646 198 621 166 211 166 
L 211 0 
C 365 12 646 12 813 12 
C 979 12 1267 12 1421 0 
L 1421 166 
C 1011 166 986 192 986 443 
L 986 1678 
C 986 2269 1344 2713 1792 2713 
C 2266 2713 2317 2289 2317 1980 
L 2317 443 
C 2317 198 2291 166 1882 166 
L 1882 0 
C 2035 12 2317 12 2483 12 
C 2650 12 2938 12 3091 0 
L 3091 166 
C 2682 166 2656 192 2656 443 
L 2656 1678 
C 2656 2269 3014 2713 3462 2713 
C 3936 2713 3987 2289 3987 1980 
L 3987 443 
C 3987 198 3962 166 3552 166 
L 3552 0 
C 3706 12 3987 12 4154 12 
C 4320 12 4608 12 4762 0 
L 4762 166 
C 4352 166 4326 192 4326 443 
L 4326 1954 
z
" transform="scale(0.015625)"/>
       <path id="CMR17-75" d="M 1882 2745 
L 1882 2579 
C 2259 2579 2317 2540 2317 2229 
L 2317 1053 
C 2317 510 2029 38 1555 38 
C 1030 38 986 355 986 691 
L 986 2816 
L 211 2745 
L 211 2579 
C 467 2579 640 2579 646 2320 
L 646 1079 
C 646 646 646 368 813 187 
C 896 103 1056 -64 1517 -64 
C 2061 -64 2272 400 2323 536 
L 2330 536 
L 2330 -64 
L 3091 -13 
L 3091 154 
C 2714 154 2656 193 2656 503 
L 2656 2816 
L 1882 2745 
z
" transform="scale(0.015625)"/>
       <path id="CMR17-69" d="M 992 3961 
C 992 4102 877 4224 730 4224 
C 589 4224 467 4108 467 3961 
C 467 3820 582 3699 730 3699 
C 870 3699 992 3814 992 3961 
z
M 243 2745 
L 243 2579 
C 602 2579 653 2540 653 2231 
L 653 443 
C 653 198 627 166 218 166 
L 218 0 
C 371 12 646 12 806 12 
C 960 12 1222 12 1370 0 
L 1370 166 
C 992 166 979 205 979 436 
L 979 2816 
L 243 2745 
z
" transform="scale(0.015625)"/>
       <path id="CMR17-63" d="M 2234 2240 
C 2112 2240 1933 2240 1933 2015 
C 1933 1836 2080 1785 2163 1785 
C 2208 1785 2394 1804 2394 2028 
C 2394 2476 1958 2816 1466 2816 
C 787 2816 211 2201 211 1379 
C 211 521 813 -64 1466 -64 
C 2259 -64 2458 676 2458 747 
C 2458 773 2451 792 2406 792 
C 2362 792 2355 786 2330 702 
C 2163 180 1798 51 1523 51 
C 1114 51 621 431 621 1385 
C 621 2358 1094 2700 1472 2700 
C 1722 2700 2093 2582 2234 2240 
z
" transform="scale(0.015625)"/>
       <path id="CMR17-74" d="M 966 2585 
L 1862 2585 
L 1862 2752 
L 966 2752 
L 966 3968 
L 851 3968 
C 838 3292 614 2700 70 2687 
L 70 2585 
L 627 2585 
L 627 778 
C 627 655 627 -64 1370 -64 
C 1747 -64 1965 308 1965 784 
L 1965 1151 
L 1850 1151 
L 1850 790 
C 1850 347 1677 51 1408 51 
C 1222 51 966 179 966 765 
L 966 2585 
z
" transform="scale(0.015625)"/>
       <path id="CMR17-65" d="M 2438 1503 
C 2464 1529 2464 1542 2464 1606 
C 2464 2251 2118 2816 1389 2816 
C 710 2816 173 2175 173 1394 
C 173 554 781 -64 1459 -64 
C 2176 -64 2458 619 2458 755 
C 2458 800 2419 800 2406 800 
C 2362 800 2355 787 2330 709 
C 2189 270 1837 51 1504 51 
C 1229 51 954 206 781 490 
C 582 819 582 1200 582 1503 
L 2438 1503 
z
M 589 1600 
C 634 2511 1126 2713 1382 2713 
C 1818 2713 2112 2308 2118 1600 
L 589 1600 
z
" transform="scale(0.015625)"/>
       <path id="CMR17-70" d="M 1408 -1114 
C 998 -1114 973 -1088 973 -834 
L 973 380 
C 1158 109 1427 -64 1766 -64 
C 2406 -64 3053 503 3053 1382 
C 3053 2196 2496 2816 1837 2816 
C 1453 2816 1139 2603 960 2345 
L 960 2816 
L 198 2745 
L 198 2577 
C 576 2577 634 2539 634 2228 
L 634 -834 
C 634 -1081 608 -1114 198 -1114 
L 198 -1280 
C 352 -1268 634 -1268 800 -1268 
C 966 -1268 1254 -1268 1408 -1280 
L 1408 -1114 
z
M 973 2015 
C 973 2106 973 2241 1222 2481 
C 1254 2506 1472 2700 1792 2700 
C 2259 2700 2643 2112 2643 1376 
C 2643 639 2234 38 1728 38 
C 1498 38 1248 148 1056 451 
C 973 594 973 632 973 736 
L 973 2015 
z
" transform="scale(0.015625)"/>
       <path id="CMR17-72" d="M 960 1517 
C 960 2134 1222 2713 1702 2713 
C 1747 2713 1792 2707 1837 2687 
C 1837 2687 1696 2642 1696 2475 
C 1696 2321 1818 2257 1914 2257 
C 1990 2257 2131 2302 2131 2482 
C 2131 2687 1926 2816 1709 2816 
C 1222 2816 1011 2340 947 2115 
L 941 2115 
L 941 2816 
L 198 2745 
L 198 2578 
C 576 2578 634 2540 634 2231 
L 634 443 
C 634 198 608 166 198 166 
L 198 0 
C 352 12 646 12 813 12 
C 998 12 1325 12 1498 0 
L 1498 166 
C 1037 166 960 166 960 455 
L 960 1517 
z
" transform="scale(0.015625)"/>
       <path id="CMR17-53" d="M 2803 4351 
C 2803 4467 2797 4473 2758 4473 
C 2720 4473 2707 4447 2682 4390 
L 2490 3965 
C 2246 4320 1875 4480 1472 4480 
C 819 4480 294 3958 294 3301 
C 294 3101 339 2817 557 2546 
C 794 2250 1018 2198 1530 2063 
C 1722 2011 2042 1927 2106 1901 
C 2470 1747 2662 1360 2662 999 
C 2662 534 2336 38 1779 38 
C 1094 38 454 425 410 1328 
C 403 1431 397 1437 352 1437 
C 301 1437 294 1431 294 1302 
L 294 0 
C 294 -116 301 -122 339 -122 
C 384 -122 397 -90 486 109 
C 493 128 493 141 614 386 
C 934 -39 1472 -128 1779 -128 
C 2477 -128 2970 457 2970 1141 
C 2970 1476 2848 1734 2778 1850 
C 2509 2263 2221 2340 1914 2417 
C 1869 2437 1856 2437 1498 2527 
C 1152 2617 1005 2662 845 2836 
C 666 3036 602 3243 602 3449 
C 602 3868 934 4326 1478 4326 
C 2157 4326 2579 3842 2675 3036 
C 2694 2920 2701 2914 2746 2914 
C 2803 2914 2803 2933 2803 3043 
L 2803 4351 
z
" transform="scale(0.015625)"/>
       <path id="CMR17-4d" d="M 1338 4249 
C 1299 4345 1293 4352 1158 4352 
L 339 4352 
L 339 4185 
C 781 4185 851 4185 851 3898 
L 851 624 
C 851 465 851 166 339 166 
L 339 0 
C 486 12 755 12 915 12 
C 1075 12 1344 12 1491 0 
L 1491 166 
C 979 166 979 465 979 624 
L 979 4159 
L 986 4159 
L 2490 102 
C 2515 38 2528 0 2579 0 
C 2630 0 2643 38 2669 102 
L 4186 4191 
L 4192 4191 
L 4192 453 
C 4192 166 4122 166 3680 166 
L 3680 0 
C 3853 12 4198 12 4384 12 
C 4570 12 4922 12 5094 0 
L 5094 166 
C 4653 166 4582 166 4582 453 
L 4582 3898 
C 4582 4185 4653 4185 5094 4185 
L 5094 4352 
L 4282 4352 
C 4147 4352 4141 4345 4102 4249 
L 2720 516 
L 1338 4249 
z
" transform="scale(0.015625)"/>
       <path id="CMR17-56" d="M 3776 3762 
C 3834 3903 3936 4179 4365 4185 
L 4365 4352 
C 4218 4339 4051 4339 3891 4339 
C 3738 4339 3475 4339 3328 4352 
L 3328 4185 
C 3648 4166 3661 3942 3661 3903 
C 3661 3833 3642 3788 3622 3737 
L 2362 448 
L 1043 3903 
C 1024 3948 1011 3980 1011 4012 
C 1011 4185 1267 4185 1402 4185 
L 1402 4352 
C 1197 4339 896 4339 685 4339 
C 518 4339 218 4339 64 4352 
L 64 4185 
C 435 4185 506 4160 582 3955 
L 2106 -26 
C 2138 -116 2144 -128 2214 -128 
C 2285 -128 2291 -116 2323 -26 
L 3776 3762 
z
" transform="scale(0.015625)"/>
      </defs>
      <use xlink:href="#CMR17-43" transform="scale(0.996264)"/>
      <use xlink:href="#CMR17-6f" transform="translate(66.509881 0) scale(0.996264)"/>
      <use xlink:href="#CMR17-6d" transform="translate(112.200358 0) scale(0.996264)"/>
      <use xlink:href="#CMR17-6d" transform="translate(189.119948 0) scale(0.996264)"/>
      <use xlink:href="#CMR17-75" transform="translate(263.437083 0) scale(0.996264)"/>
      <use xlink:href="#CMR17-6e" transform="translate(314.332453 0) scale(0.996264)"/>
      <use xlink:href="#CMR17-69" transform="translate(365.227823 0) scale(0.996264)"/>
      <use xlink:href="#CMR17-63" transform="translate(390.098882 0) scale(0.996264)"/>
      <use xlink:href="#CMR17-61" transform="translate(430.584542 0) scale(0.996264)"/>
      <use xlink:href="#CMR17-74" transform="translate(476.275019 0) scale(0.996264)"/>
      <use xlink:href="#CMR17-69" transform="translate(511.555787 0) scale(0.996264)"/>
      <use xlink:href="#CMR17-6f" transform="translate(536.426845 0) scale(0.996264)"/>
      <use xlink:href="#CMR17-6e" transform="translate(582.117322 0) scale(0.996264)"/>
      <use xlink:href="#CMR17-74" transform="translate(663.088659 0) scale(0.996264)"/>
      <use xlink:href="#CMR17-69" transform="translate(698.369426 0) scale(0.996264)"/>
      <use xlink:href="#CMR17-6d" transform="translate(723.240485 0) scale(0.996264)"/>
      <use xlink:href="#CMR17-65" transform="translate(800.160075 0) scale(0.996264)"/>
      <use xlink:href="#CMR17-70" transform="translate(870.721702 0) scale(0.996264)"/>
      <use xlink:href="#CMR17-65" transform="translate(924.21951 0) scale(0.996264)"/>
      <use xlink:href="#CMR17-72" transform="translate(964.705171 0) scale(0.996264)"/>
      <use xlink:href="#CMR17-69" transform="translate(1030.061905 0) scale(0.996264)"/>
      <use xlink:href="#CMR17-74" transform="translate(1054.932963 0) scale(0.996264)"/>
      <use xlink:href="#CMR17-65" transform="translate(1090.213731 0) scale(0.996264)"/>
      <use xlink:href="#CMR17-72" transform="translate(1130.699391 0) scale(0.996264)"/>
      <use xlink:href="#CMR17-61" transform="translate(1165.980159 0) scale(0.996264)"/>
      <use xlink:href="#CMR17-74" transform="translate(1211.670636 0) scale(0.996264)"/>
      <use xlink:href="#CMR17-69" transform="translate(1246.951404 0) scale(0.996264)"/>
      <use xlink:href="#CMR17-6f" transform="translate(1271.822463 0) scale(0.996264)"/>
      <use xlink:href="#CMR17-6e" transform="translate(1317.51294 0) scale(0.996264)"/>
      <use xlink:href="#CMR17-53" transform="translate(1398.484276 0) scale(0.996264)"/>
      <use xlink:href="#CMR17-70" transform="translate(1449.379646 0) scale(0.996264)"/>
      <use xlink:href="#CMR17-4d" transform="translate(1500.275015 0) scale(0.996264)"/>
      <use xlink:href="#CMR17-56" transform="translate(1584.961956 0) scale(0.996264)"/>
     </g>
    </g>
   </g>
   <g id="line2d_27">
    <path d="M 126.570273 352.705882 
L 224.25595 276.064603 
L 321.941627 293.289605 
L 419.627304 185.100039 
L 517.312981 276.847492 
L 614.998659 105.383226 
L 712.684336 258.703133 
L 810.370013 35.359876 
" clip-path="url(#p7711b4ba10)" style="fill: none; stroke: #0000ff; stroke-width: 1.5; stroke-linecap: square"/>
    <defs>
     <path id="ma4cfb5fd07" d="M 0 3 
C 0.795609 3 1.55874 2.683901 2.12132 2.12132 
C 2.683901 1.55874 3 0.795609 3 0 
C 3 -0.795609 2.683901 -1.55874 2.12132 -2.12132 
C 1.55874 -2.683901 0.795609 -3 0 -3 
C -0.795609 -3 -1.55874 -2.683901 -2.12132 -2.12132 
C -2.683901 -1.55874 -3 -0.795609 -3 0 
C -3 0.795609 -2.683901 1.55874 -2.12132 2.12132 
C -1.55874 2.683901 -0.795609 3 0 3 
z
" style="stroke: #0000ff"/>
    </defs>
    <g clip-path="url(#p7711b4ba10)">
     <use xlink:href="#ma4cfb5fd07" x="126.570273" y="352.705882" style="fill: #0000ff; stroke: #0000ff"/>
     <use xlink:href="#ma4cfb5fd07" x="224.25595" y="276.064603" style="fill: #0000ff; stroke: #0000ff"/>
     <use xlink:href="#ma4cfb5fd07" x="321.941627" y="293.289605" style="fill: #0000ff; stroke: #0000ff"/>
     <use xlink:href="#ma4cfb5fd07" x="419.627304" y="185.100039" style="fill: #0000ff; stroke: #0000ff"/>
     <use xlink:href="#ma4cfb5fd07" x="517.312981" y="276.847492" style="fill: #0000ff; stroke: #0000ff"/>
     <use xlink:href="#ma4cfb5fd07" x="614.998659" y="105.383226" style="fill: #0000ff; stroke: #0000ff"/>
     <use xlink:href="#ma4cfb5fd07" x="712.684336" y="258.703133" style="fill: #0000ff; stroke: #0000ff"/>
     <use xlink:href="#ma4cfb5fd07" x="810.370013" y="35.359876" style="fill: #0000ff; stroke: #0000ff"/>
    </g>
   </g>
   <g id="line2d_28">
    <path d="M 126.570273 353.757395 
L 224.25595 342.127538 
L 321.941627 335.776797 
L 419.627304 330.170159 
L 517.312981 318.291788 
L 614.998659 319.22551 
L 712.684336 309.375468 
L 810.370013 311.051857 
" clip-path="url(#p7711b4ba10)" style="fill: none; stroke: #008000; stroke-width: 1.5; stroke-linecap: square"/>
    <defs>
     <path id="m4486ee952b" d="M 0 3 
C 0.795609 3 1.55874 2.683901 2.12132 2.12132 
C 2.683901 1.55874 3 0.795609 3 0 
C 3 -0.795609 2.683901 -1.55874 2.12132 -2.12132 
C 1.55874 -2.683901 0.795609 -3 0 -3 
C -0.795609 -3 -1.55874 -2.683901 -2.12132 -2.12132 
C -2.683901 -1.55874 -3 -0.795609 -3 0 
C -3 0.795609 -2.683901 1.55874 -2.12132 2.12132 
C -1.55874 2.683901 -0.795609 3 0 3 
z
" style="stroke: #008000"/>
    </defs>
    <g clip-path="url(#p7711b4ba10)">
     <use xlink:href="#m4486ee952b" x="126.570273" y="353.757395" style="fill: #008000; stroke: #008000"/>
     <use xlink:href="#m4486ee952b" x="224.25595" y="342.127538" style="fill: #008000; stroke: #008000"/>
     <use xlink:href="#m4486ee952b" x="321.941627" y="335.776797" style="fill: #008000; stroke: #008000"/>
     <use xlink:href="#m4486ee952b" x="419.627304" y="330.170159" style="fill: #008000; stroke: #008000"/>
     <use xlink:href="#m4486ee952b" x="517.312981" y="318.291788" style="fill: #008000; stroke: #008000"/>
     <use xlink:href="#m4486ee952b" x="614.998659" y="319.22551" style="fill: #008000; stroke: #008000"/>
     <use xlink:href="#m4486ee952b" x="712.684336" y="309.375468" style="fill: #008000; stroke: #008000"/>
     <use xlink:href="#m4486ee952b" x="810.370013" y="311.051857" style="fill: #008000; stroke: #008000"/>
    </g>
   </g>
   <g id="line2d_29">
    <path d="M 126.570273 353.701372 
L 224.25595 348.656404 
L 321.941627 345.460205 
L 419.627304 342.736611 
L 517.312981 336.394489 
L 614.998659 334.683624 
L 712.684336 332.257386 
L 810.370013 317.791888 
" clip-path="url(#p7711b4ba10)" style="fill: none; stroke: #ff0000; stroke-width: 1.5; stroke-linecap: square"/>
    <defs>
     <path id="m5992b6117c" d="M 0 3 
C 0.795609 3 1.55874 2.683901 2.12132 2.12132 
C 2.683901 1.55874 3 0.795609 3 0 
C 3 -0.795609 2.683901 -1.55874 2.12132 -2.12132 
C 1.55874 -2.683901 0.795609 -3 0 -3 
C -0.795609 -3 -1.55874 -2.683901 -2.12132 -2.12132 
C -2.683901 -1.55874 -3 -0.795609 -3 0 
C -3 0.795609 -2.683901 1.55874 -2.12132 2.12132 
C -1.55874 2.683901 -0.795609 3 0 3 
z
" style="stroke: #ff0000"/>
    </defs>
    <g clip-path="url(#p7711b4ba10)">
     <use xlink:href="#m5992b6117c" x="126.570273" y="353.701372" style="fill: #ff0000; stroke: #ff0000"/>
     <use xlink:href="#m5992b6117c" x="224.25595" y="348.656404" style="fill: #ff0000; stroke: #ff0000"/>
     <use xlink:href="#m5992b6117c" x="321.941627" y="345.460205" style="fill: #ff0000; stroke: #ff0000"/>
     <use xlink:href="#m5992b6117c" x="419.627304" y="342.736611" style="fill: #ff0000; stroke: #ff0000"/>
     <use xlink:href="#m5992b6117c" x="517.312981" y="336.394489" style="fill: #ff0000; stroke: #ff0000"/>
     <use xlink:href="#m5992b6117c" x="614.998659" y="334.683624" style="fill: #ff0000; stroke: #ff0000"/>
     <use xlink:href="#m5992b6117c" x="712.684336" y="332.257386" style="fill: #ff0000; stroke: #ff0000"/>
     <use xlink:href="#m5992b6117c" x="810.370013" y="317.791888" style="fill: #ff0000; stroke: #ff0000"/>
    </g>
   </g>
   <g id="line2d_30">
    <path d="M 126.570273 353.154068 
L 224.25595 331.187197 
L 321.941627 327.884697 
L 419.627304 324.895352 
L 517.312981 313.167813 
L 614.998659 321.19638 
L 712.684336 321.429092 
L 810.370013 308.983305 
" clip-path="url(#p7711b4ba10)" style="fill: none; stroke: #00bfbf; stroke-width: 1.5; stroke-linecap: square"/>
    <defs>
     <path id="m6890cdd202" d="M 0 3 
C 0.795609 3 1.55874 2.683901 2.12132 2.12132 
C 2.683901 1.55874 3 0.795609 3 0 
C 3 -0.795609 2.683901 -1.55874 2.12132 -2.12132 
C 1.55874 -2.683901 0.795609 -3 0 -3 
C -0.795609 -3 -1.55874 -2.683901 -2.12132 -2.12132 
C -2.683901 -1.55874 -3 -0.795609 -3 0 
C -3 0.795609 -2.683901 1.55874 -2.12132 2.12132 
C -1.55874 2.683901 -0.795609 3 0 3 
z
" style="stroke: #00bfbf"/>
    </defs>
    <g clip-path="url(#p7711b4ba10)">
     <use xlink:href="#m6890cdd202" x="126.570273" y="353.154068" style="fill: #00bfbf; stroke: #00bfbf"/>
     <use xlink:href="#m6890cdd202" x="224.25595" y="331.187197" style="fill: #00bfbf; stroke: #00bfbf"/>
     <use xlink:href="#m6890cdd202" x="321.941627" y="327.884697" style="fill: #00bfbf; stroke: #00bfbf"/>
     <use xlink:href="#m6890cdd202" x="419.627304" y="324.895352" style="fill: #00bfbf; stroke: #00bfbf"/>
     <use xlink:href="#m6890cdd202" x="517.312981" y="313.167813" style="fill: #00bfbf; stroke: #00bfbf"/>
     <use xlink:href="#m6890cdd202" x="614.998659" y="321.19638" style="fill: #00bfbf; stroke: #00bfbf"/>
     <use xlink:href="#m6890cdd202" x="712.684336" y="321.429092" style="fill: #00bfbf; stroke: #00bfbf"/>
     <use xlink:href="#m6890cdd202" x="810.370013" y="308.983305" style="fill: #00bfbf; stroke: #00bfbf"/>
    </g>
   </g>
   <g id="line2d_31">
    <path d="M 126.570273 353.414073 
L 224.25595 267.007506 
L 321.941627 241.835817 
L 419.627304 182.171027 
L 517.312981 204.247071 
L 614.998659 249.33719 
L 712.684336 231.409742 
L 810.370013 217.402486 
" clip-path="url(#p7711b4ba10)" style="fill: none; stroke: #bf00bf; stroke-width: 1.5; stroke-linecap: square"/>
    <defs>
     <path id="md348e583f2" d="M 0 3 
C 0.795609 3 1.55874 2.683901 2.12132 2.12132 
C 2.683901 1.55874 3 0.795609 3 0 
C 3 -0.795609 2.683901 -1.55874 2.12132 -2.12132 
C 1.55874 -2.683901 0.795609 -3 0 -3 
C -0.795609 -3 -1.55874 -2.683901 -2.12132 -2.12132 
C -2.683901 -1.55874 -3 -0.795609 -3 0 
C -3 0.795609 -2.683901 1.55874 -2.12132 2.12132 
C -1.55874 2.683901 -0.795609 3 0 3 
z
" style="stroke: #bf00bf"/>
    </defs>
    <g clip-path="url(#p7711b4ba10)">
     <use xlink:href="#md348e583f2" x="126.570273" y="353.414073" style="fill: #bf00bf; stroke: #bf00bf"/>
     <use xlink:href="#md348e583f2" x="224.25595" y="267.007506" style="fill: #bf00bf; stroke: #bf00bf"/>
     <use xlink:href="#md348e583f2" x="321.941627" y="241.835817" style="fill: #bf00bf; stroke: #bf00bf"/>
     <use xlink:href="#md348e583f2" x="419.627304" y="182.171027" style="fill: #bf00bf; stroke: #bf00bf"/>
     <use xlink:href="#md348e583f2" x="517.312981" y="204.247071" style="fill: #bf00bf; stroke: #bf00bf"/>
     <use xlink:href="#md348e583f2" x="614.998659" y="249.33719" style="fill: #bf00bf; stroke: #bf00bf"/>
     <use xlink:href="#md348e583f2" x="712.684336" y="231.409742" style="fill: #bf00bf; stroke: #bf00bf"/>
     <use xlink:href="#md348e583f2" x="810.370013" y="217.402486" style="fill: #bf00bf; stroke: #bf00bf"/>
    </g>
   </g>
   <g id="patch_3">
    <path d="M 92.380286 369.677271 
L 92.380286 19.44 
" style="fill: none; stroke: #000000; stroke-width: 0.8; stroke-linejoin: miter; stroke-linecap: square"/>
   </g>
   <g id="patch_4">
    <path d="M 844.56 369.677271 
L 844.56 19.44 
" style="fill: none; stroke: #000000; stroke-width: 0.8; stroke-linejoin: miter; stroke-linecap: square"/>
   </g>
   <g id="patch_5">
    <path d="M 92.380286 369.677271 
L 844.56 369.677271 
" style="fill: none; stroke: #000000; stroke-width: 0.8; stroke-linejoin: miter; stroke-linecap: square"/>
   </g>
   <g id="patch_6">
    <path d="M 92.380286 19.44 
L 844.56 19.44 
" style="fill: none; stroke: #000000; stroke-width: 0.8; stroke-linejoin: miter; stroke-linecap: square"/>
   </g>
   <g id="legend_1">
    <g id="patch_7">
     <path d="M 104.980286 159.280321 
L 491.815381 159.280321 
Q 495.415381 159.280321 495.415381 155.680321 
L 495.415381 32.04 
Q 495.415381 28.44 491.815381 28.44 
L 104.980286 28.44 
Q 101.380286 28.44 101.380286 32.04 
L 101.380286 155.680321 
Q 101.380286 159.280321 104.980286 159.280321 
z
" style="fill: #ffffff; opacity: 0.8; stroke: #cccccc; stroke-linejoin: miter"/>
    </g>
    <g id="line2d_32">
     <path d="M 108.580286 41.94 
L 126.580286 41.94 
L 144.580286 41.94 
" style="fill: none; stroke: #0000ff; stroke-width: 1.5; stroke-linecap: square"/>
     <g>
      <use xlink:href="#ma4cfb5fd07" x="126.580286" y="41.94" style="fill: #0000ff; stroke: #0000ff"/>
     </g>
    </g>
    <g id="text_16">
     <!-- Exchange entire vector -->
     <g transform="translate(158.980286 48.24) scale(0.18 -0.18)">
      <defs>
       <path id="CMR17-45" d="M 3885 1614 
L 3770 1614 
C 3629 676 3546 166 2419 166 
L 1530 166 
C 1274 166 1261 198 1261 415 
L 1261 2176 
L 1862 2176 
C 2464 2176 2522 1959 2522 1429 
L 2637 1429 
L 2637 3086 
L 2522 3086 
C 2522 2558 2464 2342 1862 2342 
L 1261 2342 
L 1261 3924 
C 1261 4141 1274 4172 1530 4172 
L 2406 4172 
C 3398 4172 3514 3778 3603 2933 
L 3718 2933 
L 3565 4339 
L 326 4339 
L 326 4172 
C 768 4172 838 4172 838 3886 
L 838 453 
C 838 166 768 166 326 166 
L 326 0 
L 3654 0 
L 3885 1614 
z
" transform="scale(0.015625)"/>
       <path id="CMR17-78" d="M 1664 1491 
C 1856 1740 2074 2022 2253 2233 
C 2464 2476 2707 2579 2989 2585 
L 2989 2752 
C 2880 2745 2656 2739 2541 2739 
C 2368 2739 2170 2739 2022 2752 
L 2022 2585 
C 2112 2572 2163 2508 2163 2419 
C 2163 2304 2099 2233 2067 2188 
L 1594 1587 
L 1030 2323 
C 973 2393 973 2406 973 2438 
C 973 2515 1037 2579 1146 2585 
L 1146 2752 
C 992 2739 717 2739 557 2739 
C 384 2739 179 2739 38 2752 
L 38 2585 
C 384 2585 461 2560 614 2368 
L 1350 1414 
C 1363 1401 1395 1363 1395 1344 
C 1395 1318 838 633 768 544 
C 480 198 179 172 6 166 
L 6 0 
C 115 6 339 12 454 12 
C 582 12 864 12 979 0 
L 979 166 
C 941 172 838 185 838 332 
C 838 448 890 518 947 595 
L 1478 1248 
L 2035 524 
C 2086 454 2163 358 2163 313 
C 2163 224 2086 172 1984 166 
L 1984 0 
C 2138 12 2413 12 2573 12 
C 2746 12 2950 12 3091 0 
L 3091 166 
C 2771 166 2675 179 2522 377 
L 1664 1491 
z
" transform="scale(0.015625)"/>
       <path id="CMR17-68" d="M 2656 1954 
C 2656 2282 2592 2816 1837 2816 
C 1312 2816 1056 2392 979 2179 
L 973 2179 
L 973 4416 
L 211 4345 
L 211 4179 
C 589 4179 646 4141 646 3843 
L 646 443 
C 646 198 621 166 211 166 
L 211 0 
C 365 12 646 12 813 12 
C 979 12 1267 12 1421 0 
L 1421 166 
C 1011 166 986 192 986 443 
L 986 1678 
C 986 2269 1344 2713 1792 2713 
C 2266 2713 2317 2289 2317 1980 
L 2317 443 
C 2317 198 2291 166 1882 166 
L 1882 0 
C 2035 12 2317 12 2483 12 
C 2650 12 2938 12 3091 0 
L 3091 166 
C 2682 166 2656 192 2656 443 
L 2656 1954 
z
" transform="scale(0.015625)"/>
       <path id="CMR17-67" d="M 710 1165 
C 832 1068 1043 960 1299 960 
C 1805 960 2240 1359 2240 1895 
C 2240 2063 2189 2321 1997 2521 
C 2176 2713 2438 2777 2586 2777 
C 2611 2777 2650 2777 2682 2758 
C 2656 2751 2598 2726 2598 2623 
C 2598 2540 2656 2483 2739 2483 
C 2835 2483 2886 2547 2886 2630 
C 2886 2751 2790 2880 2586 2880 
C 2330 2880 2106 2758 1926 2591 
C 1734 2764 1504 2828 1299 2828 
C 794 2828 358 2431 358 1895 
C 358 1527 570 1294 634 1230 
C 442 1004 442 742 442 710 
C 442 544 506 300 723 166 
C 390 82 128 -184 128 -517 
C 128 -996 736 -1344 1466 -1344 
C 2170 -1344 2803 -1009 2803 -510 
C 2803 384 1856 384 1363 384 
C 1216 384 954 384 922 390 
C 723 422 589 601 589 825 
C 589 883 589 1024 710 1165 
z
M 1299 1068 
C 736 1068 736 1766 736 1895 
C 736 2024 736 2719 1299 2719 
C 1862 2719 1862 2024 1862 1895 
C 1862 1766 1862 1068 1299 1068 
z
M 1466 -1236 
C 826 -1236 384 -883 384 -517 
C 384 -311 493 -118 634 -11 
C 794 102 858 102 1293 102 
C 1818 102 2547 102 2547 -517 
C 2547 -883 2106 -1236 1466 -1236 
z
" transform="scale(0.015625)"/>
       <path id="CMR17-76" d="M 2502 2173 
C 2560 2315 2662 2572 3034 2585 
L 3034 2752 
C 2912 2745 2752 2739 2630 2739 
C 2496 2739 2285 2739 2157 2752 
L 2157 2585 
C 2317 2572 2406 2495 2406 2328 
C 2406 2270 2406 2257 2368 2167 
L 1664 379 
L 902 2308 
C 864 2392 864 2405 864 2431 
C 864 2585 1075 2585 1171 2585 
L 1171 2752 
C 1018 2739 736 2739 576 2739 
C 403 2739 205 2739 64 2752 
L 64 2585 
C 307 2585 442 2585 518 2386 
L 1446 44 
C 1485 -52 1491 -64 1549 -64 
C 1606 -64 1613 -52 1651 44 
L 2502 2173 
z
" transform="scale(0.015625)"/>
      </defs>
      <use xlink:href="#CMR17-45" transform="scale(0.996264)"/>
      <use xlink:href="#CMR17-78" transform="translate(62.586301 0) scale(0.996264)"/>
      <use xlink:href="#CMR17-63" transform="translate(110.879216 0) scale(0.996264)"/>
      <use xlink:href="#CMR17-68" transform="translate(148.762423 0) scale(0.996264)"/>
      <use xlink:href="#CMR17-61" transform="translate(199.657793 0) scale(0.996264)"/>
      <use xlink:href="#CMR17-6e" transform="translate(245.34827 0) scale(0.996264)"/>
      <use xlink:href="#CMR17-67" transform="translate(296.24364 0) scale(0.996264)"/>
      <use xlink:href="#CMR17-65" transform="translate(341.934117 0) scale(0.996264)"/>
      <use xlink:href="#CMR17-65" transform="translate(412.495744 0) scale(0.996264)"/>
      <use xlink:href="#CMR17-6e" transform="translate(452.981404 0) scale(0.996264)"/>
      <use xlink:href="#CMR17-74" transform="translate(501.27432 0) scale(0.996264)"/>
      <use xlink:href="#CMR17-69" transform="translate(536.555088 0) scale(0.996264)"/>
      <use xlink:href="#CMR17-72" transform="translate(561.426146 0) scale(0.996264)"/>
      <use xlink:href="#CMR17-65" transform="translate(596.706914 0) scale(0.996264)"/>
      <use xlink:href="#CMR17-76" transform="translate(667.268541 0) scale(0.996264)"/>
      <use xlink:href="#CMR17-65" transform="translate(712.959003 0) scale(0.996264)"/>
      <use xlink:href="#CMR17-63" transform="translate(753.444663 0) scale(0.996264)"/>
      <use xlink:href="#CMR17-74" transform="translate(793.930324 0) scale(0.996264)"/>
      <use xlink:href="#CMR17-6f" transform="translate(829.211091 0) scale(0.996264)"/>
      <use xlink:href="#CMR17-72" transform="translate(874.901568 0) scale(0.996264)"/>
     </g>
    </g>
    <g id="line2d_33">
     <path d="M 108.580286 67.028064 
L 126.580286 67.028064 
L 144.580286 67.028064 
" style="fill: none; stroke: #008000; stroke-width: 1.5; stroke-linecap: square"/>
     <g>
      <use xlink:href="#m4486ee952b" x="126.580286" y="67.028064" style="fill: #008000; stroke: #008000"/>
     </g>
    </g>
    <g id="text_17">
     <!-- Exchange separators -->
     <g transform="translate(158.980286 73.328064) scale(0.18 -0.18)">
      <use xlink:href="#CMR17-45" transform="scale(0.996264)"/>
      <use xlink:href="#CMR17-78" transform="translate(62.586301 0) scale(0.996264)"/>
      <use xlink:href="#CMR17-63" transform="translate(110.879216 0) scale(0.996264)"/>
      <use xlink:href="#CMR17-68" transform="translate(148.762423 0) scale(0.996264)"/>
      <use xlink:href="#CMR17-61" transform="translate(199.657793 0) scale(0.996264)"/>
      <use xlink:href="#CMR17-6e" transform="translate(245.34827 0) scale(0.996264)"/>
      <use xlink:href="#CMR17-67" transform="translate(296.24364 0) scale(0.996264)"/>
      <use xlink:href="#CMR17-65" transform="translate(341.934117 0) scale(0.996264)"/>
      <use xlink:href="#CMR17-73" transform="translate(412.495744 0) scale(0.996264)"/>
      <use xlink:href="#CMR17-65" transform="translate(448.297081 0) scale(0.996264)"/>
      <use xlink:href="#CMR17-70" transform="translate(488.782742 0) scale(0.996264)"/>
      <use xlink:href="#CMR17-61" transform="translate(539.678111 0) scale(0.996264)"/>
      <use xlink:href="#CMR17-72" transform="translate(585.368588 0) scale(0.996264)"/>
      <use xlink:href="#CMR17-61" transform="translate(620.649356 0) scale(0.996264)"/>
      <use xlink:href="#CMR17-74" transform="translate(666.339833 0) scale(0.996264)"/>
      <use xlink:href="#CMR17-6f" transform="translate(701.620601 0) scale(0.996264)"/>
      <use xlink:href="#CMR17-72" transform="translate(747.311078 0) scale(0.996264)"/>
      <use xlink:href="#CMR17-73" transform="translate(782.591846 0) scale(0.996264)"/>
     </g>
    </g>
    <g id="line2d_34">
     <path d="M 108.580286 92.116128 
L 126.580286 92.116128 
L 144.580286 92.116128 
" style="fill: none; stroke: #ff0000; stroke-width: 1.5; stroke-linecap: square"/>
     <g>
      <use xlink:href="#m5992b6117c" x="126.580286" y="92.116128" style="fill: #ff0000; stroke: #ff0000"/>
     </g>
    </g>
    <g id="text_18">
     <!-- Exchange required separators -->
     <g transform="translate(158.980286 98.416128) scale(0.18 -0.18)">
      <defs>
       <path id="CMR17-71" d="M 2630 2816 
L 2528 2816 
L 2336 2177 
C 2189 2519 1920 2816 1491 2816 
C 838 2816 211 2228 211 1376 
C 211 529 800 -64 1440 -64 
C 1933 -64 2208 316 2291 458 
L 2291 -834 
C 2291 -1081 2266 -1114 1856 -1114 
L 1856 -1280 
C 2010 -1268 2291 -1268 2458 -1268 
C 2624 -1268 2912 -1268 3066 -1280 
L 3066 -1114 
C 2656 -1114 2630 -1088 2630 -834 
L 2630 2816 
z
M 2304 871 
C 2304 594 2074 335 2054 316 
C 1856 90 1626 38 1472 38 
C 992 38 621 652 621 1369 
C 621 2125 1043 2700 1536 2700 
C 2048 2700 2304 2112 2304 1776 
L 2304 871 
z
" transform="scale(0.015625)"/>
       <path id="CMR17-64" d="M 1869 4345 
L 1869 4179 
C 2246 4179 2304 4141 2304 3843 
L 2304 2371 
C 2278 2403 2016 2816 1498 2816 
C 845 2816 211 2228 211 1376 
C 211 529 806 -64 1434 -64 
C 1978 -64 2259 361 2291 406 
L 2291 -64 
L 3066 -13 
L 3066 154 
C 2688 154 2630 193 2630 503 
L 2630 4416 
L 1869 4345 
z
M 2291 762 
C 2291 568 2176 393 2029 264 
C 1811 70 1594 38 1472 38 
C 1286 38 621 135 621 1369 
C 621 2636 1363 2713 1530 2713 
C 1824 2713 2061 2545 2208 2313 
C 2291 2177 2291 2157 2291 2041 
L 2291 762 
z
" transform="scale(0.015625)"/>
      </defs>
      <use xlink:href="#CMR17-45" transform="scale(0.996264)"/>
      <use xlink:href="#CMR17-78" transform="translate(62.586301 0) scale(0.996264)"/>
      <use xlink:href="#CMR17-63" transform="translate(110.879216 0) scale(0.996264)"/>
      <use xlink:href="#CMR17-68" transform="translate(148.762423 0) scale(0.996264)"/>
      <use xlink:href="#CMR17-61" transform="translate(199.657793 0) scale(0.996264)"/>
      <use xlink:href="#CMR17-6e" transform="translate(245.34827 0) scale(0.996264)"/>
      <use xlink:href="#CMR17-67" transform="translate(296.24364 0) scale(0.996264)"/>
      <use xlink:href="#CMR17-65" transform="translate(341.934117 0) scale(0.996264)"/>
      <use xlink:href="#CMR17-72" transform="translate(412.495744 0) scale(0.996264)"/>
      <use xlink:href="#CMR17-65" transform="translate(447.776511 0) scale(0.996264)"/>
      <use xlink:href="#CMR17-71" transform="translate(488.262172 0) scale(0.996264)"/>
      <use xlink:href="#CMR17-75" transform="translate(536.555088 0) scale(0.996264)"/>
      <use xlink:href="#CMR17-69" transform="translate(587.450457 0) scale(0.996264)"/>
      <use xlink:href="#CMR17-72" transform="translate(612.321516 0) scale(0.996264)"/>
      <use xlink:href="#CMR17-65" transform="translate(647.602284 0) scale(0.996264)"/>
      <use xlink:href="#CMR17-64" transform="translate(688.087944 0) scale(0.996264)"/>
      <use xlink:href="#CMR17-73" transform="translate(769.05928 0) scale(0.996264)"/>
      <use xlink:href="#CMR17-65" transform="translate(804.860618 0) scale(0.996264)"/>
      <use xlink:href="#CMR17-70" transform="translate(845.346278 0) scale(0.996264)"/>
      <use xlink:href="#CMR17-61" transform="translate(896.241648 0) scale(0.996264)"/>
      <use xlink:href="#CMR17-72" transform="translate(941.932125 0) scale(0.996264)"/>
      <use xlink:href="#CMR17-61" transform="translate(977.212893 0) scale(0.996264)"/>
      <use xlink:href="#CMR17-74" transform="translate(1022.90337 0) scale(0.996264)"/>
      <use xlink:href="#CMR17-6f" transform="translate(1058.184138 0) scale(0.996264)"/>
      <use xlink:href="#CMR17-72" transform="translate(1103.874615 0) scale(0.996264)"/>
      <use xlink:href="#CMR17-73" transform="translate(1139.155383 0) scale(0.996264)"/>
     </g>
    </g>
    <g id="line2d_35">
     <path d="M 108.580286 117.204193 
L 126.580286 117.204193 
L 144.580286 117.204193 
" style="fill: none; stroke: #00bfbf; stroke-width: 1.5; stroke-linecap: square"/>
     <g>
      <use xlink:href="#m6890cdd202" x="126.580286" y="117.204193" style="fill: #00bfbf; stroke: #00bfbf"/>
     </g>
    </g>
    <g id="text_19">
     <!-- Exchange required elements -->
     <g transform="translate(158.980286 123.504193) scale(0.18 -0.18)">
      <defs>
       <path id="CMR17-6c" d="M 979 4416 
L 218 4345 
L 218 4179 
C 595 4179 653 4141 653 3835 
L 653 439 
C 653 198 627 166 218 166 
L 218 0 
C 371 12 653 12 813 12 
C 979 12 1261 12 1414 0 
L 1414 166 
C 1005 166 979 191 979 439 
L 979 4416 
z
" transform="scale(0.015625)"/>
      </defs>
      <use xlink:href="#CMR17-45" transform="scale(0.996264)"/>
      <use xlink:href="#CMR17-78" transform="translate(62.586301 0) scale(0.996264)"/>
      <use xlink:href="#CMR17-63" transform="translate(110.879216 0) scale(0.996264)"/>
      <use xlink:href="#CMR17-68" transform="translate(148.762423 0) scale(0.996264)"/>
      <use xlink:href="#CMR17-61" transform="translate(199.657793 0) scale(0.996264)"/>
      <use xlink:href="#CMR17-6e" transform="translate(245.34827 0) scale(0.996264)"/>
      <use xlink:href="#CMR17-67" transform="translate(296.24364 0) scale(0.996264)"/>
      <use xlink:href="#CMR17-65" transform="translate(341.934117 0) scale(0.996264)"/>
      <use xlink:href="#CMR17-72" transform="translate(412.495744 0) scale(0.996264)"/>
      <use xlink:href="#CMR17-65" transform="translate(447.776511 0) scale(0.996264)"/>
      <use xlink:href="#CMR17-71" transform="translate(488.262172 0) scale(0.996264)"/>
      <use xlink:href="#CMR17-75" transform="translate(536.555088 0) scale(0.996264)"/>
      <use xlink:href="#CMR17-69" transform="translate(587.450457 0) scale(0.996264)"/>
      <use xlink:href="#CMR17-72" transform="translate(612.321516 0) scale(0.996264)"/>
      <use xlink:href="#CMR17-65" transform="translate(647.602284 0) scale(0.996264)"/>
      <use xlink:href="#CMR17-64" transform="translate(688.087944 0) scale(0.996264)"/>
      <use xlink:href="#CMR17-65" transform="translate(769.05928 0) scale(0.996264)"/>
      <use xlink:href="#CMR17-6c" transform="translate(809.544941 0) scale(0.996264)"/>
      <use xlink:href="#CMR17-65" transform="translate(834.415999 0) scale(0.996264)"/>
      <use xlink:href="#CMR17-6d" transform="translate(874.90166 0) scale(0.996264)"/>
      <use xlink:href="#CMR17-65" transform="translate(951.82125 0) scale(0.996264)"/>
      <use xlink:href="#CMR17-6e" transform="translate(992.30691 0) scale(0.996264)"/>
      <use xlink:href="#CMR17-74" transform="translate(1040.599826 0) scale(0.996264)"/>
      <use xlink:href="#CMR17-73" transform="translate(1075.880594 0) scale(0.996264)"/>
     </g>
    </g>
    <g id="line2d_36">
     <path d="M 108.580286 142.292257 
L 126.580286 142.292257 
L 144.580286 142.292257 
" style="fill: none; stroke: #bf00bf; stroke-width: 1.5; stroke-linecap: square"/>
     <g>
      <use xlink:href="#md348e583f2" x="126.580286" y="142.292257" style="fill: #bf00bf; stroke: #bf00bf"/>
     </g>
    </g>
    <g id="text_20">
     <!-- Exchange required elements, memory scalable -->
     <g transform="translate(158.980286 148.592257) scale(0.18 -0.18)">
      <defs>
       <path id="CMR17-2c" d="M 1011 102 
C 1024 44 1024 25 1024 -76 
C 1024 -451 896 -795 627 -1108 
C 595 -1140 595 -1152 595 -1165 
C 595 -1191 621 -1216 646 -1216 
C 685 -1216 1126 -776 1126 -82 
C 1126 128 1101 524 800 524 
C 659 524 538 428 538 262 
C 538 96 659 0 800 0 
C 877 0 960 32 1011 102 
z
" transform="scale(0.015625)"/>
       <path id="CMR17-79" d="M 2496 2183 
C 2656 2579 2944 2585 3034 2585 
L 3034 2752 
C 2912 2745 2752 2739 2630 2739 
C 2496 2739 2285 2739 2157 2752 
L 2157 2585 
C 2400 2566 2406 2384 2406 2332 
C 2406 2268 2394 2235 2362 2158 
L 1664 409 
L 902 2300 
C 870 2378 870 2423 870 2430 
C 870 2572 1018 2585 1171 2585 
L 1171 2752 
C 1018 2739 742 2739 582 2739 
C 410 2739 205 2739 64 2752 
L 64 2585 
C 410 2585 448 2553 531 2345 
L 1485 -31 
C 1197 -795 1030 -1242 627 -1242 
C 557 -1242 397 -1223 282 -1106 
C 429 -1093 493 -1002 493 -892 
C 493 -782 416 -685 288 -685 
C 147 -685 77 -782 77 -899 
C 77 -1158 339 -1344 627 -1344 
C 998 -1344 1229 -983 1357 -659 
L 2496 2183 
z
" transform="scale(0.015625)"/>
       <path id="CMR17-62" d="M 960 4416 
L 198 4345 
L 198 4179 
C 576 4179 634 4141 634 3843 
L 634 -13 
L 749 -13 
L 934 445 
C 1120 141 1395 -64 1766 -64 
C 2406 -64 3053 503 3053 1382 
C 3053 2209 2477 2816 1830 2816 
C 1434 2816 1152 2603 960 2351 
L 960 4416 
z
M 973 2022 
C 973 2138 973 2157 1062 2293 
C 1312 2681 1670 2713 1792 2713 
C 1984 2713 2643 2610 2643 1388 
C 2643 109 1888 38 1734 38 
C 1536 38 1248 115 1043 490 
C 973 613 973 626 973 742 
L 973 2022 
z
" transform="scale(0.015625)"/>
      </defs>
      <use xlink:href="#CMR17-45" transform="scale(0.996264)"/>
      <use xlink:href="#CMR17-78" transform="translate(62.586301 0) scale(0.996264)"/>
      <use xlink:href="#CMR17-63" transform="translate(110.879216 0) scale(0.996264)"/>
      <use xlink:href="#CMR17-68" transform="translate(148.762423 0) scale(0.996264)"/>
      <use xlink:href="#CMR17-61" transform="translate(199.657793 0) scale(0.996264)"/>
      <use xlink:href="#CMR17-6e" transform="translate(245.34827 0) scale(0.996264)"/>
      <use xlink:href="#CMR17-67" transform="translate(296.24364 0) scale(0.996264)"/>
      <use xlink:href="#CMR17-65" transform="translate(341.934117 0) scale(0.996264)"/>
      <use xlink:href="#CMR17-72" transform="translate(412.495744 0) scale(0.996264)"/>
      <use xlink:href="#CMR17-65" transform="translate(447.776511 0) scale(0.996264)"/>
      <use xlink:href="#CMR17-71" transform="translate(488.262172 0) scale(0.996264)"/>
      <use xlink:href="#CMR17-75" transform="translate(536.555088 0) scale(0.996264)"/>
      <use xlink:href="#CMR17-69" transform="translate(587.450457 0) scale(0.996264)"/>
      <use xlink:href="#CMR17-72" transform="translate(612.321516 0) scale(0.996264)"/>
      <use xlink:href="#CMR17-65" transform="translate(647.602284 0) scale(0.996264)"/>
      <use xlink:href="#CMR17-64" transform="translate(688.087944 0) scale(0.996264)"/>
      <use xlink:href="#CMR17-65" transform="translate(769.05928 0) scale(0.996264)"/>
      <use xlink:href="#CMR17-6c" transform="translate(809.544941 0) scale(0.996264)"/>
      <use xlink:href="#CMR17-65" transform="translate(834.415999 0) scale(0.996264)"/>
      <use xlink:href="#CMR17-6d" transform="translate(874.90166 0) scale(0.996264)"/>
      <use xlink:href="#CMR17-65" transform="translate(951.82125 0) scale(0.996264)"/>
      <use xlink:href="#CMR17-6e" transform="translate(992.30691 0) scale(0.996264)"/>
      <use xlink:href="#CMR17-74" transform="translate(1040.599826 0) scale(0.996264)"/>
      <use xlink:href="#CMR17-73" transform="translate(1075.880594 0) scale(0.996264)"/>
      <use xlink:href="#CMR17-2c" transform="translate(1111.681931 0) scale(0.996264)"/>
      <use xlink:href="#CMR17-6d" transform="translate(1166.628956 0) scale(0.996264)"/>
      <use xlink:href="#CMR17-65" transform="translate(1243.548546 0) scale(0.996264)"/>
      <use xlink:href="#CMR17-6d" transform="translate(1284.034206 0) scale(0.996264)"/>
      <use xlink:href="#CMR17-6f" transform="translate(1360.953796 0) scale(0.996264)"/>
      <use xlink:href="#CMR17-72" transform="translate(1406.644273 0) scale(0.996264)"/>
      <use xlink:href="#CMR17-79" transform="translate(1441.925041 0) scale(0.996264)"/>
      <use xlink:href="#CMR17-73" transform="translate(1520.293923 0) scale(0.996264)"/>
      <use xlink:href="#CMR17-63" transform="translate(1556.095261 0) scale(0.996264)"/>
      <use xlink:href="#CMR17-61" transform="translate(1596.580922 0) scale(0.996264)"/>
      <use xlink:href="#CMR17-6c" transform="translate(1642.271399 0) scale(0.996264)"/>
      <use xlink:href="#CMR17-61" transform="translate(1667.142457 0) scale(0.996264)"/>
      <use xlink:href="#CMR17-62" transform="translate(1712.832934 0) scale(0.996264)"/>
      <use xlink:href="#CMR17-6c" transform="translate(1763.728304 0) scale(0.996264)"/>
      <use xlink:href="#CMR17-65" transform="translate(1788.599362 0) scale(0.996264)"/>
     </g>
    </g>
   </g>
  </g>
 </g>
 <defs>
  <clipPath id="p7711b4ba10">
   <rect x="92.380286" y="19.44" width="752.179714" height="350.237271"/>
  </clipPath>
 </defs>
</svg>
