<?xml version="1.0" encoding="UTF-8" standalone="no"?>
<!-- Created with Inkscape (http://www.inkscape.org/) -->

<svg
   width="240mm"
   height="120mm"
   viewBox="0 0 240 120"
   version="1.1"
   id="svg8"
   inkscape:version="1.4 (e7c3feb1, 2024-10-09)"
   sodipodi:docname="numanode.svg"
   xmlns:inkscape="http://www.inkscape.org/namespaces/inkscape"
   xmlns:sodipodi="http://sodipodi.sourceforge.net/DTD/sodipodi-0.dtd"
   xmlns="http://www.w3.org/2000/svg"
   xmlns:svg="http://www.w3.org/2000/svg"
   xmlns:rdf="http://www.w3.org/1999/02/22-rdf-syntax-ns#"
   xmlns:cc="http://creativecommons.org/ns#"
   xmlns:dc="http://purl.org/dc/elements/1.1/">
  <defs
     id="defs2" />
  <sodipodi:namedview
     id="base"
     pagecolor="#ffffff"
     bordercolor="#666666"
     borderopacity="1.0"
     inkscape:pageopacity="0.0"
     inkscape:pageshadow="2"
     inkscape:zoom="1.4"
     inkscape:cx="381.78571"
     inkscape:cy="176.07143"
     inkscape:document-units="mm"
     inkscape:current-layer="layer1"
     showgrid="false"
     showborder="true"
     width="200mm"
     showguides="true"
     inkscape:guide-bbox="true"
     inkscape:window-width="1920"
     inkscape:window-height="1010"
     inkscape:window-x="1517"
     inkscape:window-y="37"
     inkscape:window-maximized="0"
     inkscape:showpageshadow="2"
     inkscape:pagecheckerboard="0"
     inkscape:deskcolor="#d1d1d1">
    <inkscape:grid
       type="xygrid"
       id="grid815"
       units="mm"
       spacingx="10"
       spacingy="10"
       empspacing="4"
       dotted="false"
       originx="0"
       originy="0" />
  </sodipodi:namedview>
  <metadata
     id="metadata5">
    <rdf:RDF>
      <cc:Work
         rdf:about="">
        <dc:format>image/svg+xml</dc:format>
        <dc:type
           rdf:resource="http://purl.org/dc/dcmitype/StillImage" />
        <dc:title />
      </cc:Work>
    </rdf:RDF>
  </metadata>
  <g
     inkscape:label="Layer 1"
     inkscape:groupmode="layer"
     id="layer1"
     transform="translate(0,-177)">
    <path
       d="m 146.94987,191.20185 h 0.76067 l 1.71359,2.10219 v -1.61643 q 0,-0.25839 -0.0579,-0.32246 -0.0765,-0.0868 -0.24184,-0.0868 h -0.0971 v -0.0765 h 0.97565 v 0.0765 h -0.0992 q -0.17777,0 -0.25218,0.10749 -0.0455,0.0661 -0.0455,0.30179 v 2.36264 h -0.0744 l -1.84795,-2.25722 v 1.72599 q 0,0.25838 0.0558,0.32246 0.0786,0.0868 0.24185,0.0868 h 0.0992 v 0.0765 h -0.97566 v -0.0765 h 0.0972 q 0.17983,0 0.25424,-0.10748 0.0455,-0.0661 0.0455,-0.30179 v -1.94924 q -0.12196,-0.14262 -0.18604,-0.1881 -0.062,-0.0455 -0.18396,-0.0847 -0.0599,-0.0186 -0.1819,-0.0186 z m 5.13249,0.0765 v -0.0765 h 0.99219 v 0.0765 h -0.10542 q -0.16536,0 -0.25425,0.13849 -0.0434,0.0641 -0.0434,0.29766 v 1.13688 q 0,0.42168 -0.0848,0.65526 -0.0827,0.23151 -0.32867,0.39894 -0.24391,0.16536 -0.66559,0.16536 -0.45888,0 -0.6966,-0.15916 -0.23771,-0.15916 -0.33693,-0.42788 -0.0661,-0.18397 -0.0661,-0.6904 v -1.09554 q 0,-0.25838 -0.0724,-0.339 -0.0703,-0.0806 -0.22944,-0.0806 h -0.10542 v -0.0765 h 1.21129 v 0.0765 h -0.10748 q -0.17364,0 -0.24805,0.10955 -0.0517,0.0744 -0.0517,0.31006 v 1.22163 q 0,0.1633 0.0289,0.37414 0.031,0.21084 0.10956,0.32866 0.0785,0.11782 0.22531,0.1943 0.14882,0.0765 0.3638,0.0765 0.27492,0 0.49196,-0.11989 0.21704,-0.11989 0.29559,-0.30593 0.0806,-0.1881 0.0806,-0.63458 v -1.13482 q 0,-0.26251 -0.0579,-0.32866 -0.0806,-0.0909 -0.23978,-0.0909 z m 2.76986,2.72645 -1.08314,-2.35851 v 1.87275 q 0,0.25838 0.0558,0.32246 0.0765,0.0868 0.24185,0.0868 h 0.0992 v 0.0765 h -0.97565 v -0.0765 h 0.0992 q 0.17776,0 0.25218,-0.10748 0.0455,-0.0661 0.0455,-0.30179 v -1.83141 q 0,-0.18604 -0.0413,-0.26872 -0.0289,-0.06 -0.10749,-0.0992 -0.0765,-0.0413 -0.24804,-0.0413 v -0.0765 h 0.79375 l 1.01699,2.19314 1.00045,-2.19314 h 0.79375 v 0.0765 h -0.0971 q -0.17983,0 -0.25425,0.10749 -0.0455,0.0661 -0.0455,0.30179 v 1.83141 q 0,0.25838 0.0579,0.32246 0.0765,0.0868 0.24185,0.0868 h 0.0971 v 0.0765 h -1.19062 v -0.0765 h 0.0992 q 0.17983,0 0.25218,-0.10748 0.0455,-0.0661 0.0455,-0.30179 v -1.87275 l -1.08107,2.35851 z m 3.96875,-0.93845 h -1.08521 l -0.19017,0.44235 q -0.0703,0.1633 -0.0703,0.24392 0,0.0641 0.0599,0.11368 0.062,0.0476 0.26458,0.062 v 0.0765 h -0.88263 v -0.0765 q 0.1757,-0.031 0.22737,-0.0806 0.10542,-0.0992 0.23358,-0.40308 l 0.98599,-2.30683 h 0.0723 l 0.97565,2.33164 q 0.11783,0.28112 0.21291,0.36587 0.0971,0.0827 0.26872,0.093 v 0.0765 h -1.10588 v -0.0765 q 0.16743,-0.008 0.22531,-0.0558 0.0599,-0.0475 0.0599,-0.11575 0,-0.0909 -0.0827,-0.28732 z m -0.0579,-0.15296 -0.47542,-1.13275 -0.48783,1.13275 z m 2.68717,-0.45682 q 0.3328,-0.40101 0.63459,-0.40101 0.15503,0 0.26665,0.0785 0.11162,0.0765 0.17776,0.25425 0.0455,0.12402 0.0455,0.38034 v 0.80822 q 0,0.17983 0.0289,0.24391 0.0227,0.0517 0.0723,0.0806 0.0517,0.0289 0.18811,0.0289 v 0.0744 h -0.93638 v -0.0744 h 0.0393 q 0.1323,0 0.18397,-0.0393 0.0537,-0.0413 0.0744,-0.11989 0.008,-0.031 0.008,-0.1943 v -0.77515 q 0,-0.25838 -0.0682,-0.37414 -0.0661,-0.11782 -0.22531,-0.11782 -0.24598,0 -0.48989,0.26872 v 0.99839 q 0,0.19223 0.0227,0.23771 0.0289,0.0599 0.0785,0.0889 0.0517,0.0269 0.2067,0.0269 v 0.0744 h -0.93637 v -0.0744 h 0.0413 q 0.14469,0 0.1943,-0.0723 0.0517,-0.0744 0.0517,-0.28112 v -0.7028 q 0,-0.34107 -0.0165,-0.41548 -0.0145,-0.0744 -0.0475,-0.10129 -0.031,-0.0269 -0.0847,-0.0269 -0.0579,0 -0.13849,0.031 l -0.031,-0.0744 0.57051,-0.23151 h 0.0889 z m 2.4908,-0.40101 q 0.42995,0 0.6904,0.3266 0.22117,0.27905 0.22117,0.64078 0,0.25425 -0.12195,0.5147 -0.12196,0.26045 -0.33693,0.39274 -0.21291,0.13229 -0.47542,0.13229 -0.42789,0 -0.68007,-0.34106 -0.2129,-0.28732 -0.2129,-0.64492 0,-0.26045 0.12815,-0.51677 0.13023,-0.25838 0.34107,-0.38033 0.21084,-0.12403 0.44648,-0.12403 z m -0.0641,0.13436 q -0.10955,0 -0.22117,0.0661 -0.10955,0.0641 -0.17777,0.22737 -0.0682,0.1633 -0.0682,0.41962 0,0.41341 0.1633,0.71313 0.16536,0.29972 0.43408,0.29972 0.2005,0 0.33073,-0.16536 0.13022,-0.16537 0.13022,-0.56844 0,-0.50436 -0.21704,-0.79375 -0.14676,-0.19844 -0.37414,-0.19844 z m 2.59209,1.60197 q -0.13849,0.14469 -0.27078,0.20877 -0.13229,0.062 -0.28526,0.062 -0.31005,0 -0.54156,-0.25838 -0.23151,-0.26045 -0.23151,-0.66766 0,-0.40721 0.25631,-0.74414 0.25631,-0.33899 0.65939,-0.33899 0.25011,0 0.41341,0.15916 v -0.34933 q 0,-0.32453 -0.0165,-0.39895 -0.0145,-0.0744 -0.0476,-0.10128 -0.0331,-0.0269 -0.0827,-0.0269 -0.0537,0 -0.14263,0.0331 l -0.0269,-0.0724 0.56431,-0.23151 h 0.093 v 2.18901 q 0,0.3328 0.0145,0.40721 0.0165,0.0724 0.0496,0.10129 0.0351,0.0289 0.0806,0.0289 0.0558,0 0.14883,-0.0351 l 0.0227,0.0724 -0.56224,0.23357 h -0.0951 z m 0,-0.14469 v -0.97565 q -0.0124,-0.14056 -0.0744,-0.25632 -0.062,-0.11575 -0.16537,-0.17363 -0.10128,-0.0599 -0.19843,-0.0599 -0.1819,0 -0.32453,0.1633 -0.1881,0.21497 -0.1881,0.62839 0,0.41754 0.1819,0.64078 0.1819,0.22118 0.40514,0.22118 0.1881,0 0.3638,-0.1881 z m 1.09761,-0.82269 q -0.002,0.42168 0.20464,0.66146 0.2067,0.23977 0.48575,0.23977 0.18604,0 0.32247,-0.10128 0.13849,-0.10335 0.23151,-0.3514 l 0.0641,0.0413 q -0.0434,0.28319 -0.25218,0.51676 -0.20877,0.23151 -0.52296,0.23151 -0.34107,0 -0.58498,-0.26458 -0.24184,-0.26665 -0.24184,-0.7152 0,-0.48576 0.24804,-0.75654 0.25012,-0.27285 0.62632,-0.27285 0.31833,0 0.52297,0.21084 0.20463,0.20877 0.20463,0.56017 z m 0,-0.11989 h 0.87643 q -0.0103,-0.1819 -0.0434,-0.25632 -0.0517,-0.11575 -0.15503,-0.1819 -0.10128,-0.0661 -0.2129,-0.0661 -0.17157,0 -0.308,0.13436 -0.13435,0.13229 -0.15709,0.37 z m 2.98276,-1.22783 0.68213,-0.3328 h 0.0682 v 2.36678 q 0,0.23564 0.0186,0.29352 0.0207,0.0579 0.0827,0.0889 0.062,0.031 0.25219,0.0351 v 0.0765 h -1.0542 v -0.0765 q 0.19843,-0.004 0.25631,-0.0331 0.0579,-0.031 0.0806,-0.0806 0.0227,-0.0517 0.0227,-0.30386 v -1.51308 q 0,-0.30593 -0.0207,-0.39275 -0.0145,-0.0661 -0.0537,-0.0971 -0.0372,-0.031 -0.0909,-0.031 -0.0765,0 -0.21291,0.0641 z"
       id="text3"
       style="font-size:4.23333px;font-family:'Times New Roman';-inkscape-font-specification:'Times New Roman, ';stroke-width:0.421322"
       aria-label="NUMA node 1" />
    <path
       id="rect1"
       style="fill:#ececec;stroke:#000000;stroke-width:0.421322;marker-start:none;marker-end:none"
       d="m 59.60199,196.82187 h 40.178131 v 80.35626 H 59.60199 Z" />
    <path
       id="rect1-3"
       style="fill:none;stroke:#000000;stroke-width:0.421322;marker-start:none;marker-end:none"
       d="m 140.31374,196.82187 h 40.17813 v 80.35626 h -40.17813 z" />
    <path
       id="rect2"
       style="fill:#cccccc;stroke:#000000;stroke-width:0.421322;marker-start:none;marker-end:none"
       d="m 64.444946,207.13988 h 13.545222 v 59.72023 H 64.444946 Z" />
    <path
       id="path3"
       style="fill:#cccccc;stroke:#000000;stroke-width:0.421322;marker-start:none;marker-end:none"
       d="m 95.43899,212.43155 a 5.2916665,5.2916665 0 0 1 -5.291666,5.29167 5.2916665,5.2916665 0 0 1 -5.291667,-5.29167 5.2916665,5.2916665 0 0 1 5.291667,-5.29167 5.2916665,5.2916665 0 0 1 5.291666,5.29167 z" />
    <path
       id="path3-5"
       style="fill:#cccccc;stroke:#000000;stroke-width:0.421322;marker-start:none;marker-end:none"
       d="m 95.43899,261.56845 a 5.2916665,5.2916665 0 0 1 -5.291666,5.29167 5.2916665,5.2916665 0 0 1 -5.291667,-5.29167 5.2916665,5.2916665 0 0 1 5.291667,-5.29167 5.2916665,5.2916665 0 0 1 5.291666,5.29167 z" />
    <path
       id="path3-5-6"
       style="fill:#cccccc;stroke:#000000;stroke-width:0.421322;marker-start:none;marker-end:none"
       d="m 95.43899,229.14363 a 5.2916665,5.2916665 0 0 1 -5.291666,5.29167 5.2916665,5.2916665 0 0 1 -5.291667,-5.29167 5.2916665,5.2916665 0 0 1 5.291667,-5.29167 5.2916665,5.2916665 0 0 1 5.291666,5.29167 z" />
    <path
       id="path3-5-6-6"
       style="fill:#cccccc;stroke:#000000;stroke-width:0.421322;marker-start:none;marker-end:none"
       d="m 95.43899,245.65526 a 5.2916665,5.2916665 0 0 1 -5.291666,5.29166 5.2916665,5.2916665 0 0 1 -5.291667,-5.29166 5.2916665,5.2916665 0 0 1 5.291667,-5.29167 5.2916665,5.2916665 0 0 1 5.291666,5.29167 z" />
    <path
       id="rect1-8"
       style="fill:#ececec;stroke:#000000;stroke-width:0.421322;marker-start:none;marker-end:none"
       transform="scale(-1,1)"
       d="m -180.46678,196.82185 h 40.17813 v 80.35627 h -40.17813 z" />
    <path
       id="rect2-3"
       style="fill:#cccccc;stroke:#000000;stroke-width:0.421322;marker-start:none;marker-end:none"
       transform="scale(-1,1)"
       d="m -175.62383,207.13988 h 13.54523 v 59.72023 h -13.54523 z" />
    <path
       id="path3-0"
       style="fill:#cccccc;stroke:#000000;stroke-width:0.421322;marker-start:none;marker-end:none"
       transform="scale(-1,1)"
       d="m -144.62977,212.43153 a 5.2916665,5.2916665 0 0 1 -5.29166,5.29167 5.2916665,5.2916665 0 0 1 -5.29167,-5.29167 5.2916665,5.2916665 0 0 1 5.29167,-5.29166 5.2916665,5.2916665 0 0 1 5.29166,5.29166 z" />
    <path
       id="path3-5-62"
       style="fill:#cccccc;stroke:#000000;stroke-width:0.421322;marker-start:none;marker-end:none"
       transform="scale(-1,1)"
       d="m -144.62977,261.56845 a 5.2916665,5.2916665 0 0 1 -5.29166,5.29167 5.2916665,5.2916665 0 0 1 -5.29167,-5.29167 5.2916665,5.2916665 0 0 1 5.29167,-5.29167 5.2916665,5.2916665 0 0 1 5.29166,5.29167 z" />
    <path
       id="path3-5-6-2"
       style="fill:#cccccc;stroke:#000000;stroke-width:0.421322;marker-start:none;marker-end:none"
       transform="scale(-1,1)"
       d="m -144.62977,229.14363 a 5.2916665,5.2916665 0 0 1 -5.29166,5.29167 5.2916665,5.2916665 0 0 1 -5.29167,-5.29167 5.2916665,5.2916665 0 0 1 5.29167,-5.29167 5.2916665,5.2916665 0 0 1 5.29166,5.29167 z" />
    <path
       id="path3-5-6-6-5"
       style="fill:#cccccc;stroke:#000000;stroke-width:0.421322;marker-start:none;marker-end:none"
       transform="scale(-1,1)"
       d="m -144.62977,245.65526 a 5.2916665,5.2916665 0 0 1 -5.29166,5.29166 5.2916665,5.2916665 0 0 1 -5.29167,-5.29166 5.2916665,5.2916665 0 0 1 5.29167,-5.29167 5.2916665,5.2916665 0 0 1 5.29166,5.29167 z" />
    <path
       style="fill:none;fill-opacity:1;stroke:#000000;stroke-width:0.421322;stroke-dasharray:none;stroke-opacity:1;marker-start:none;marker-end:none"
       d="m 99.990782,237 40.112288,-1e-5"
       id="path4" />
    <path
       d="m 110.12286,231.51733 q 0.0868,0 0.14676,0.062 0.062,0.0599 0.062,0.14676 0,0.0868 -0.062,0.14883 -0.06,0.062 -0.14676,0.062 -0.0868,0 -0.14883,-0.062 -0.062,-0.062 -0.062,-0.14883 0,-0.0868 0.0599,-0.14676 0.062,-0.062 0.1509,-0.062 z m 0.17156,0.99012 v 1.52135 q 0,0.17777 0.0248,0.23771 0.0269,0.0579 0.0765,0.0868 0.0517,0.0289 0.18603,0.0289 v 0.0744 h -0.91984 v -0.0744 q 0.1385,0 0.18604,-0.0269 0.0475,-0.0269 0.0744,-0.0889 0.0289,-0.062 0.0289,-0.23771 v -0.72967 q 0,-0.30799 -0.0186,-0.39894 -0.0145,-0.0662 -0.0455,-0.091 -0.031,-0.0269 -0.0847,-0.0269 -0.0579,0 -0.14056,0.031 l -0.0289,-0.0744 0.57051,-0.23151 z m 1.07487,0.40101 q 0.3328,-0.40101 0.63459,-0.40101 0.15503,0 0.26665,0.0786 0.11162,0.0765 0.17776,0.25424 0.0455,0.12403 0.0455,0.38034 v 0.80822 q 0,0.17983 0.0289,0.24391 0.0227,0.0517 0.0724,0.0806 0.0517,0.0289 0.1881,0.0289 v 0.0744 h -0.93638 v -0.0744 h 0.0393 q 0.13229,0 0.18396,-0.0393 0.0537,-0.0413 0.0744,-0.11989 0.008,-0.031 0.008,-0.1943 v -0.77515 q 0,-0.25838 -0.0682,-0.37413 -0.0661,-0.11783 -0.22531,-0.11783 -0.24598,0 -0.48989,0.26872 v 0.99839 q 0,0.19224 0.0227,0.23771 0.0289,0.0599 0.0785,0.0889 0.0517,0.0269 0.2067,0.0269 v 0.0744 h -0.93637 v -0.0744 h 0.0413 q 0.14469,0 0.1943,-0.0724 0.0517,-0.0744 0.0517,-0.28112 v -0.7028 q 0,-0.34106 -0.0165,-0.41548 -0.0145,-0.0744 -0.0475,-0.10128 -0.031,-0.0269 -0.0847,-0.0269 -0.0579,0 -0.13849,0.031 l -0.031,-0.0744 0.57051,-0.23151 h 0.0889 z m 2.1146,-0.96739 v 0.62219 h 0.44235 v 0.14469 h -0.44235 v 1.22783 q 0,0.18397 0.0517,0.24805 0.0537,0.0641 0.13642,0.0641 0.0682,0 0.13229,-0.0413 0.0641,-0.0434 0.0992,-0.12609 h 0.0806 q -0.0724,0.20257 -0.20464,0.30592 -0.13229,0.10129 -0.27285,0.10129 -0.0951,0 -0.18604,-0.0517 -0.0909,-0.0537 -0.13436,-0.1509 -0.0434,-0.0992 -0.0434,-0.30385 v -1.27331 h -0.29973 v -0.0682 q 0.11369,-0.0455 0.23151,-0.15296 0.11989,-0.10956 0.21291,-0.25839 0.0475,-0.0785 0.13229,-0.28732 z m 0.94464,1.33532 q -0.002,0.42168 0.20464,0.66146 0.20671,0.23978 0.48576,0.23978 0.18604,0 0.32246,-0.10129 0.13849,-0.10335 0.23151,-0.3514 l 0.0641,0.0413 q -0.0434,0.28319 -0.25218,0.51677 -0.20877,0.23151 -0.52297,0.23151 -0.34106,0 -0.58497,-0.26459 -0.24185,-0.26665 -0.24185,-0.7152 0,-0.48575 0.24805,-0.75654 0.25011,-0.27285 0.62632,-0.27285 0.31832,0 0.52296,0.21084 0.20464,0.20877 0.20464,0.56017 z m 0,-0.11989 h 0.87644 q -0.0103,-0.1819 -0.0434,-0.25631 -0.0517,-0.11576 -0.15503,-0.1819 -0.10129,-0.0661 -0.21291,-0.0661 -0.17156,0 -0.30799,0.13436 -0.13436,0.13229 -0.1571,0.37 z m 2.1146,-0.64905 v 0.42581 q 0.23771,-0.42581 0.48783,-0.42581 0.11368,0 0.1881,0.0703 0.0744,0.0682 0.0744,0.15916 0,0.0806 -0.0537,0.13643 -0.0537,0.0558 -0.12816,0.0558 -0.0724,0 -0.1633,-0.0703 -0.0889,-0.0724 -0.13229,-0.0724 -0.0372,0 -0.0806,0.0413 -0.093,0.0847 -0.19224,0.27905 v 0.90744 q 0,0.1571 0.0393,0.23771 0.0269,0.0558 0.0951,0.093 0.0682,0.0372 0.19637,0.0372 v 0.0744 h -0.96945 v -0.0744 q 0.1447,0 0.21498,-0.0455 0.0517,-0.0331 0.0723,-0.10542 0.0103,-0.0351 0.0103,-0.2005 v -0.73381 q 0,-0.33073 -0.0145,-0.39274 -0.0124,-0.0641 -0.0496,-0.093 -0.0351,-0.0289 -0.0889,-0.0289 -0.0641,0 -0.1447,0.031 l -0.0207,-0.0744 0.57258,-0.23151 z m 2.46393,1.22989 q -0.0765,0.37414 -0.29972,0.57671 -0.22324,0.20051 -0.49403,0.20051 -0.32246,0 -0.56224,-0.27079 -0.23978,-0.27078 -0.23978,-0.73173 0,-0.44649 0.26459,-0.72554 0.26665,-0.27905 0.63872,-0.27905 0.27905,0 0.45888,0.14882 0.17984,0.14677 0.17984,0.30593 0,0.0786 -0.0517,0.12816 -0.0496,0.0475 -0.14056,0.0475 -0.12195,0 -0.18397,-0.0786 -0.0351,-0.0434 -0.0475,-0.16536 -0.0103,-0.12196 -0.0827,-0.18604 -0.0724,-0.062 -0.2005,-0.062 -0.20671,0 -0.3328,0.15296 -0.16743,0.20257 -0.16743,0.53537 0,0.339 0.16536,0.59945 0.16743,0.25838 0.45062,0.25838 0.20257,0 0.3638,-0.1385 0.11369,-0.0951 0.22118,-0.34519 z m 1.19683,-1.22989 q 0.42994,0 0.69039,0.32659 0.22118,0.27905 0.22118,0.64079 0,0.25425 -0.12196,0.5147 -0.12195,0.26044 -0.33693,0.39274 -0.2129,0.13229 -0.47542,0.13229 -0.42788,0 -0.68006,-0.34107 -0.21291,-0.28732 -0.21291,-0.64492 0,-0.26045 0.12816,-0.51676 0.13022,-0.25838 0.34106,-0.38034 0.21084,-0.12402 0.44649,-0.12402 z m -0.0641,0.13436 q -0.10956,0 -0.22118,0.0661 -0.10955,0.0641 -0.17776,0.22738 -0.0682,0.16329 -0.0682,0.41961 0,0.41341 0.1633,0.71313 0.16537,0.29973 0.43408,0.29973 0.20051,0 0.33073,-0.16537 0.13023,-0.16536 0.13023,-0.56844 0,-0.50436 -0.21704,-0.79375 -0.14677,-0.19843 -0.37414,-0.19843 z m 1.8066,0.26665 q 0.3328,-0.40101 0.63459,-0.40101 0.15503,0 0.26665,0.0786 0.11162,0.0765 0.17777,0.25424 0.0455,0.12403 0.0455,0.38034 v 0.80822 q 0,0.17983 0.0289,0.24391 0.0227,0.0517 0.0724,0.0806 0.0517,0.0289 0.1881,0.0289 v 0.0744 h -0.93638 v -0.0744 h 0.0393 q 0.13229,0 0.18397,-0.0393 0.0537,-0.0413 0.0744,-0.11989 0.008,-0.031 0.008,-0.1943 v -0.77515 q 0,-0.25838 -0.0682,-0.37413 -0.0661,-0.11783 -0.22531,-0.11783 -0.24598,0 -0.4899,0.26872 v 0.99839 q 0,0.19224 0.0227,0.23771 0.0289,0.0599 0.0786,0.0889 0.0517,0.0269 0.20671,0.0269 v 0.0744 h -0.93638 v -0.0744 h 0.0413 q 0.14469,0 0.1943,-0.0724 0.0517,-0.0744 0.0517,-0.28112 v -0.7028 q 0,-0.34106 -0.0165,-0.41548 -0.0145,-0.0744 -0.0475,-0.10128 -0.031,-0.0269 -0.0847,-0.0269 -0.0579,0 -0.13849,0.031 l -0.031,-0.0744 0.57051,-0.23151 h 0.0889 z m 2.11667,0 q 0.3328,-0.40101 0.63459,-0.40101 0.15502,0 0.26665,0.0786 0.11162,0.0765 0.17776,0.25424 0.0455,0.12403 0.0455,0.38034 v 0.80822 q 0,0.17983 0.0289,0.24391 0.0227,0.0517 0.0723,0.0806 0.0517,0.0289 0.18811,0.0289 v 0.0744 h -0.93638 v -0.0744 h 0.0393 q 0.1323,0 0.18397,-0.0393 0.0537,-0.0413 0.0744,-0.11989 0.008,-0.031 0.008,-0.1943 v -0.77515 q 0,-0.25838 -0.0682,-0.37413 -0.0661,-0.11783 -0.22531,-0.11783 -0.24598,0 -0.48989,0.26872 v 0.99839 q 0,0.19224 0.0227,0.23771 0.0289,0.0599 0.0786,0.0889 0.0517,0.0269 0.2067,0.0269 v 0.0744 h -0.93638 v -0.0744 h 0.0413 q 0.14469,0 0.1943,-0.0724 0.0517,-0.0744 0.0517,-0.28112 v -0.7028 q 0,-0.34106 -0.0165,-0.41548 -0.0145,-0.0744 -0.0475,-0.10128 -0.031,-0.0269 -0.0847,-0.0269 -0.0579,0 -0.1385,0.031 l -0.031,-0.0744 0.57051,-0.23151 h 0.0889 z m 1.88309,0.36793 q -0.002,0.42168 0.20464,0.66146 0.2067,0.23978 0.48575,0.23978 0.18604,0 0.32246,-0.10129 0.1385,-0.10335 0.23151,-0.3514 l 0.0641,0.0413 q -0.0434,0.28319 -0.25218,0.51677 -0.20877,0.23151 -0.52296,0.23151 -0.34107,0 -0.58498,-0.26459 -0.24184,-0.26665 -0.24184,-0.7152 0,-0.48575 0.24804,-0.75654 0.25012,-0.27285 0.62632,-0.27285 0.31833,0 0.52296,0.21084 0.20464,0.20877 0.20464,0.56017 z m 0,-0.11989 h 0.87643 q -0.0103,-0.1819 -0.0434,-0.25631 -0.0517,-0.11576 -0.15503,-0.1819 -0.10128,-0.0661 -0.21291,-0.0661 -0.17156,0 -0.30799,0.13436 -0.13436,0.13229 -0.15709,0.37 z m 3.16879,0.58084 q -0.0765,0.37414 -0.29972,0.57671 -0.22324,0.20051 -0.49403,0.20051 -0.32246,0 -0.56224,-0.27079 -0.23977,-0.27078 -0.23977,-0.73173 0,-0.44649 0.26458,-0.72554 0.26665,-0.27905 0.63872,-0.27905 0.27905,0 0.45889,0.14882 0.17983,0.14677 0.17983,0.30593 0,0.0786 -0.0517,0.12816 -0.0496,0.0475 -0.14056,0.0475 -0.12195,0 -0.18396,-0.0786 -0.0351,-0.0434 -0.0476,-0.16536 -0.0103,-0.12196 -0.0827,-0.18604 -0.0724,-0.062 -0.2005,-0.062 -0.20671,0 -0.3328,0.15296 -0.16743,0.20257 -0.16743,0.53537 0,0.339 0.16536,0.59945 0.16744,0.25838 0.45062,0.25838 0.20257,0 0.3638,-0.1385 0.11369,-0.0951 0.22118,-0.34519 z m 0.82062,-1.79627 v 0.62219 h 0.44235 v 0.14469 h -0.44235 v 1.22783 q 0,0.18397 0.0517,0.24805 0.0537,0.0641 0.13643,0.0641 0.0682,0 0.13229,-0.0413 0.0641,-0.0434 0.0992,-0.12609 h 0.0806 q -0.0724,0.20257 -0.20464,0.30592 -0.13229,0.10129 -0.27285,0.10129 -0.0951,0 -0.18603,-0.0517 -0.0909,-0.0537 -0.13436,-0.1509 -0.0434,-0.0992 -0.0434,-0.30385 v -1.27331 h -0.29972 v -0.0682 q 0.11369,-0.0455 0.23151,-0.15296 0.11989,-0.10956 0.2129,-0.25839 0.0475,-0.0785 0.1323,-0.28732 z"
       id="text4"
       style="font-size:4.23333px;font-family:'Times New Roman';-inkscape-font-specification:'Times New Roman, ';stroke-width:0.421322;marker-start:none;marker-end:none"
       aria-label="interconnect" />
    <path
       d="m 88.233228,212.65893 q -0.07648,0.37414 -0.299723,0.57671 -0.223242,0.2005 -0.494026,0.2005 -0.322461,0 -0.562239,-0.27078 -0.239779,-0.27079 -0.239779,-0.73174 0,-0.44648 0.264583,-0.72554 0.26665,-0.27905 0.63872,-0.27905 0.279053,0 0.458887,0.14883 0.179834,0.14676 0.179834,0.30592 0,0.0786 -0.05168,0.12816 -0.04961,0.0475 -0.14056,0.0475 -0.121956,0 -0.183967,-0.0785 -0.03514,-0.0434 -0.04754,-0.16537 -0.01033,-0.12195 -0.08268,-0.18603 -0.07235,-0.062 -0.200504,-0.062 -0.206706,0 -0.332796,0.15297 -0.167432,0.20257 -0.167432,0.53536 0,0.339 0.165365,0.59945 0.167431,0.25838 0.450618,0.25838 0.202571,0 0.363802,-0.13849 0.113688,-0.0951 0.221174,-0.3452 z m 1.196825,-1.2299 q 0.429948,0 0.690397,0.3266 0.221175,0.27905 0.221175,0.64078 0,0.25425 -0.121957,0.5147 -0.121956,0.26045 -0.33693,0.39274 -0.212906,0.13229 -0.475422,0.13229 -0.427881,0 -0.680062,-0.34106 -0.212906,-0.28732 -0.212906,-0.64492 0,-0.26045 0.128157,-0.51677 0.130225,-0.25838 0.341064,-0.38033 0.21084,-0.12403 0.446484,-0.12403 z m -0.06408,0.13436 q -0.109554,0 -0.221175,0.0661 -0.109554,0.0641 -0.177767,0.22737 -0.06821,0.1633 -0.06821,0.41961 0,0.41342 0.163297,0.71314 0.165365,0.29972 0.434082,0.29972 0.200504,0 0.330729,-0.16536 0.130224,-0.16537 0.130224,-0.56844 0,-0.50436 -0.21704,-0.79375 -0.146761,-0.19844 -0.374137,-0.19844 z m 1.808673,-0.13436 v 0.42582 q 0.237712,-0.42582 0.487825,-0.42582 0.113688,0 0.188102,0.0703 0.07441,0.0682 0.07441,0.15917 0,0.0806 -0.05374,0.13642 -0.05374,0.0558 -0.128158,0.0558 -0.07235,0 -0.163297,-0.0703 -0.08888,-0.0724 -0.132292,-0.0724 -0.03721,0 -0.08061,0.0413 -0.09302,0.0847 -0.192236,0.27905 v 0.90744 q 0,0.15709 0.03927,0.23771 0.02687,0.0558 0.09508,0.093 0.06821,0.0372 0.19637,0.0372 v 0.0744 h -0.969449 v -0.0744 q 0.144694,0 0.214974,-0.0455 0.05168,-0.0331 0.07235,-0.10542 0.01033,-0.0351 0.01033,-0.20051 v -0.7338 q 0,-0.33073 -0.01447,-0.39274 -0.0124,-0.0641 -0.04961,-0.093 -0.03514,-0.0289 -0.08888,-0.0289 -0.06408,0 -0.144694,0.031 l -0.02067,-0.0744 0.572575,-0.23151 z m 1.174088,0.76895 q -0.0021,0.42168 0.204638,0.66145 0.206706,0.23978 0.485758,0.23978 0.186035,0 0.322461,-0.10128 0.138493,-0.10336 0.23151,-0.3514 l 0.06408,0.0413 q -0.04341,0.28319 -0.252181,0.51676 -0.208773,0.23151 -0.522965,0.23151 -0.341064,0 -0.584977,-0.26458 -0.241845,-0.26665 -0.241845,-0.7152 0,-0.48576 0.248046,-0.75654 0.250114,-0.27286 0.626318,-0.27286 0.318327,0 0.522965,0.21084 0.204639,0.20878 0.204639,0.56018 z m 0,-0.11989 h 0.876431 q -0.01033,-0.1819 -0.04341,-0.25632 -0.05168,-0.11575 -0.155029,-0.1819 -0.101286,-0.0661 -0.212907,-0.0661 -0.171565,0 -0.307991,0.13435 -0.134359,0.1323 -0.157096,0.37001 z"
       id="text5"
       style="font-size:4.23333px;font-family:'Times New Roman';-inkscape-font-specification:'Times New Roman, ';stroke-width:0.421322;marker-start:none;marker-end:none"
       aria-label="core" />
    <path
       d="m 88.233228,229.27078 q -0.07648,0.37413 -0.299723,0.57671 -0.223242,0.2005 -0.494026,0.2005 -0.322461,0 -0.562239,-0.27078 -0.239779,-0.27079 -0.239779,-0.73174 0,-0.44649 0.264583,-0.72554 0.26665,-0.27905 0.63872,-0.27905 0.279053,0 0.458887,0.14883 0.179834,0.14676 0.179834,0.30592 0,0.0786 -0.05168,0.12816 -0.04961,0.0475 -0.14056,0.0475 -0.121956,0 -0.183967,-0.0786 -0.03514,-0.0434 -0.04754,-0.16536 -0.01033,-0.12196 -0.08268,-0.18604 -0.07235,-0.062 -0.200504,-0.062 -0.206706,0 -0.332796,0.15296 -0.167432,0.20258 -0.167432,0.53537 0,0.339 0.165365,0.59945 0.167431,0.25838 0.450618,0.25838 0.202571,0 0.363802,-0.13849 0.113688,-0.0951 0.221174,-0.3452 z m 1.196825,-1.2299 q 0.429948,0 0.690397,0.32659 0.221175,0.27906 0.221175,0.64079 0,0.25425 -0.121957,0.5147 -0.121956,0.26045 -0.33693,0.39274 -0.212906,0.13229 -0.475422,0.13229 -0.427881,0 -0.680062,-0.34106 -0.212906,-0.28733 -0.212906,-0.64493 0,-0.26044 0.128157,-0.51676 0.130225,-0.25838 0.341064,-0.38034 0.21084,-0.12402 0.446484,-0.12402 z m -0.06408,0.13436 q -0.109554,0 -0.221175,0.0661 -0.109554,0.0641 -0.177767,0.22738 -0.06821,0.1633 -0.06821,0.41961 0,0.41341 0.163297,0.71314 0.165365,0.29972 0.434082,0.29972 0.200504,0 0.330729,-0.16537 0.130224,-0.16536 0.130224,-0.56844 0,-0.50436 -0.21704,-0.79375 -0.146761,-0.19843 -0.374137,-0.19843 z m 1.808673,-0.13436 v 0.42581 q 0.237712,-0.42581 0.487825,-0.42581 0.113688,0 0.188102,0.0703 0.07441,0.0682 0.07441,0.15916 0,0.0806 -0.05374,0.13643 -0.05374,0.0558 -0.128158,0.0558 -0.07235,0 -0.163297,-0.0703 -0.08888,-0.0724 -0.132292,-0.0724 -0.03721,0 -0.08061,0.0413 -0.09302,0.0848 -0.192236,0.27906 v 0.90743 q 0,0.1571 0.03927,0.23771 0.02687,0.0558 0.09508,0.093 0.06821,0.0372 0.19637,0.0372 v 0.0744 h -0.969449 v -0.0744 q 0.144694,0 0.214974,-0.0455 0.05168,-0.0331 0.07235,-0.10542 0.01033,-0.0351 0.01033,-0.2005 v -0.73381 q 0,-0.33072 -0.01447,-0.39274 -0.0124,-0.0641 -0.04961,-0.093 -0.03514,-0.0289 -0.08888,-0.0289 -0.06408,0 -0.144694,0.031 l -0.02067,-0.0744 0.572575,-0.23151 z m 1.174088,0.76894 q -0.0021,0.42168 0.204638,0.66146 0.206706,0.23978 0.485758,0.23978 0.186035,0 0.322461,-0.10129 0.138493,-0.10335 0.23151,-0.3514 l 0.06408,0.0413 q -0.04341,0.28318 -0.252181,0.51676 -0.208773,0.23151 -0.522965,0.23151 -0.341064,0 -0.584977,-0.26458 -0.241845,-0.26665 -0.241845,-0.7152 0,-0.48576 0.248046,-0.75655 0.250114,-0.27285 0.626318,-0.27285 0.318327,0 0.522965,0.21084 0.204639,0.20877 0.204639,0.56017 z m 0,-0.11989 h 0.876431 q -0.01033,-0.1819 -0.04341,-0.25631 -0.05168,-0.11576 -0.155029,-0.1819 -0.101286,-0.0661 -0.212907,-0.0661 -0.171565,0 -0.307991,0.13436 -0.134359,0.13229 -0.157096,0.37 z"
       id="text5-6"
       style="font-size:4.23333px;font-family:'Times New Roman';-inkscape-font-specification:'Times New Roman, ';stroke-width:0.421322;marker-start:none;marker-end:none"
       aria-label="core" />
    <path
       d="m 88.233228,245.88264 q -0.07648,0.37414 -0.299723,0.57671 -0.223242,0.2005 -0.494026,0.2005 -0.322461,0 -0.562239,-0.27078 -0.239779,-0.27079 -0.239779,-0.73174 0,-0.44648 0.264583,-0.72554 0.26665,-0.27905 0.63872,-0.27905 0.279053,0 0.458887,0.14883 0.179834,0.14676 0.179834,0.30592 0,0.0785 -0.05168,0.12816 -0.04961,0.0475 -0.14056,0.0475 -0.121956,0 -0.183967,-0.0785 -0.03514,-0.0434 -0.04754,-0.16536 -0.01033,-0.12196 -0.08268,-0.18603 -0.07235,-0.062 -0.200504,-0.062 -0.206706,0 -0.332796,0.15297 -0.167432,0.20257 -0.167432,0.53536 0,0.339 0.165365,0.59945 0.167431,0.25838 0.450618,0.25838 0.202571,0 0.363802,-0.13849 0.113688,-0.0951 0.221174,-0.3452 z m 1.196825,-1.2299 q 0.429948,0 0.690397,0.3266 0.221175,0.27905 0.221175,0.64078 0,0.25425 -0.121957,0.5147 -0.121956,0.26045 -0.33693,0.39274 -0.212906,0.13229 -0.475422,0.13229 -0.427881,0 -0.680062,-0.34106 -0.212906,-0.28732 -0.212906,-0.64492 0,-0.26045 0.128157,-0.51677 0.130225,-0.25838 0.341064,-0.38034 0.21084,-0.12402 0.446484,-0.12402 z m -0.06408,0.13436 q -0.109554,0 -0.221175,0.0661 -0.109554,0.0641 -0.177767,0.22737 -0.06821,0.1633 -0.06821,0.41961 0,0.41341 0.163297,0.71314 0.165365,0.29972 0.434082,0.29972 0.200504,0 0.330729,-0.16536 0.130224,-0.16537 0.130224,-0.56844 0,-0.50437 -0.21704,-0.79375 -0.146761,-0.19844 -0.374137,-0.19844 z m 1.808673,-0.13436 v 0.42581 q 0.237712,-0.42581 0.487825,-0.42581 0.113688,0 0.188102,0.0703 0.07441,0.0682 0.07441,0.15916 0,0.0806 -0.05374,0.13643 -0.05374,0.0558 -0.128158,0.0558 -0.07235,0 -0.163297,-0.0703 -0.08888,-0.0724 -0.132292,-0.0724 -0.03721,0 -0.08061,0.0413 -0.09302,0.0848 -0.192236,0.27906 v 0.90743 q 0,0.1571 0.03927,0.23772 0.02687,0.0558 0.09508,0.093 0.06821,0.0372 0.19637,0.0372 v 0.0744 h -0.969449 v -0.0744 q 0.144694,0 0.214974,-0.0455 0.05168,-0.0331 0.07235,-0.10542 0.01033,-0.0351 0.01033,-0.20051 v -0.7338 q 0,-0.33073 -0.01447,-0.39274 -0.0124,-0.0641 -0.04961,-0.093 -0.03514,-0.0289 -0.08888,-0.0289 -0.06408,0 -0.144694,0.031 l -0.02067,-0.0744 0.572575,-0.23151 z m 1.174088,0.76895 q -0.0021,0.42168 0.204638,0.66145 0.206706,0.23978 0.485758,0.23978 0.186035,0 0.322461,-0.10128 0.138493,-0.10336 0.23151,-0.3514 l 0.06408,0.0413 q -0.04341,0.28318 -0.252181,0.51676 -0.208773,0.23151 -0.522965,0.23151 -0.341064,0 -0.584977,-0.26458 -0.241845,-0.26665 -0.241845,-0.7152 0,-0.48576 0.248046,-0.75654 0.250114,-0.27286 0.626318,-0.27286 0.318327,0 0.522965,0.21084 0.204639,0.20878 0.204639,0.56018 z m 0,-0.11989 h 0.876431 q -0.01033,-0.1819 -0.04341,-0.25632 -0.05168,-0.11575 -0.155029,-0.1819 -0.101286,-0.0662 -0.212907,-0.0662 -0.171565,0 -0.307991,0.13436 -0.134359,0.1323 -0.157096,0.37001 z"
       id="text5-6-2"
       style="font-size:4.23333px;font-family:'Times New Roman';-inkscape-font-specification:'Times New Roman, ';stroke-width:0.421322;marker-start:none;marker-end:none"
       aria-label="core" />
    <path
       d="m 88.233228,261.79583 q -0.07648,0.37414 -0.299723,0.57671 -0.223242,0.2005 -0.494026,0.2005 -0.322461,0 -0.562239,-0.27078 -0.239779,-0.27078 -0.239779,-0.73174 0,-0.44648 0.264583,-0.72553 0.26665,-0.27906 0.63872,-0.27906 0.279053,0 0.458887,0.14883 0.179834,0.14676 0.179834,0.30593 0,0.0785 -0.05168,0.12815 -0.04961,0.0476 -0.14056,0.0476 -0.121956,0 -0.183967,-0.0786 -0.03514,-0.0434 -0.04754,-0.16537 -0.01033,-0.12195 -0.08268,-0.18603 -0.07235,-0.062 -0.200504,-0.062 -0.206706,0 -0.332796,0.15296 -0.167432,0.20257 -0.167432,0.53537 0,0.33899 0.165365,0.59944 0.167431,0.25838 0.450618,0.25838 0.202571,0 0.363802,-0.13849 0.113688,-0.0951 0.221174,-0.3452 z m 1.196825,-1.2299 q 0.429948,0 0.690397,0.3266 0.221175,0.27905 0.221175,0.64079 0,0.25424 -0.121957,0.51469 -0.121956,0.26045 -0.33693,0.39274 -0.212906,0.13229 -0.475422,0.13229 -0.427881,0 -0.680062,-0.34106 -0.212906,-0.28732 -0.212906,-0.64492 0,-0.26045 0.128157,-0.51676 0.130225,-0.25839 0.341064,-0.38034 0.21084,-0.12403 0.446484,-0.12403 z m -0.06408,0.13436 q -0.109554,0 -0.221175,0.0661 -0.109554,0.0641 -0.177767,0.22737 -0.06821,0.1633 -0.06821,0.41962 0,0.41341 0.163297,0.71313 0.165365,0.29972 0.434082,0.29972 0.200504,0 0.330729,-0.16536 0.130224,-0.16537 0.130224,-0.56844 0,-0.50436 -0.21704,-0.79375 -0.146761,-0.19844 -0.374137,-0.19844 z m 1.808673,-0.13436 v 0.42582 q 0.237712,-0.42582 0.487825,-0.42582 0.113688,0 0.188102,0.0703 0.07441,0.0682 0.07441,0.15917 0,0.0806 -0.05374,0.13642 -0.05374,0.0558 -0.128158,0.0558 -0.07235,0 -0.163297,-0.0703 -0.08888,-0.0723 -0.132292,-0.0723 -0.03721,0 -0.08061,0.0413 -0.09302,0.0847 -0.192236,0.27905 v 0.90744 q 0,0.15709 0.03927,0.23771 0.02687,0.0558 0.09508,0.093 0.06821,0.0372 0.19637,0.0372 v 0.0744 h -0.969449 v -0.0744 q 0.144694,0 0.214974,-0.0455 0.05168,-0.0331 0.07235,-0.10542 0.01033,-0.0351 0.01033,-0.20051 v -0.7338 q 0,-0.33073 -0.01447,-0.39274 -0.0124,-0.0641 -0.04961,-0.093 -0.03514,-0.0289 -0.08888,-0.0289 -0.06408,0 -0.144694,0.031 l -0.02067,-0.0744 0.572575,-0.23151 z m 1.174088,0.76895 q -0.0021,0.42168 0.204638,0.66146 0.206706,0.23977 0.485758,0.23977 0.186035,0 0.322461,-0.10128 0.138493,-0.10335 0.23151,-0.3514 l 0.06408,0.0413 q -0.04341,0.28319 -0.252181,0.51676 -0.208773,0.23151 -0.522965,0.23151 -0.341064,0 -0.584977,-0.26458 -0.241845,-0.26665 -0.241845,-0.7152 0,-0.48576 0.248046,-0.75654 0.250114,-0.27285 0.626318,-0.27285 0.318327,0 0.522965,0.21084 0.204639,0.20877 0.204639,0.56017 z m 0,-0.11989 h 0.876431 q -0.01033,-0.1819 -0.04341,-0.25632 -0.05168,-0.11575 -0.155029,-0.1819 -0.101286,-0.0661 -0.212907,-0.0661 -0.171565,0 -0.307991,0.13436 -0.134359,0.13229 -0.157096,0.37 z"
       id="text5-6-4"
       style="font-size:4.23333px;font-family:'Times New Roman';-inkscape-font-specification:'Times New Roman, ';stroke-width:0.421322;marker-start:none;marker-end:none"
       aria-label="core" />
    <path
       d="m 148.00734,212.65891 q -0.0765,0.37414 -0.29973,0.57671 -0.22324,0.20051 -0.49402,0.20051 -0.32246,0 -0.56224,-0.27079 -0.23978,-0.27078 -0.23978,-0.73173 0,-0.44649 0.26458,-0.72554 0.26665,-0.27905 0.63872,-0.27905 0.27906,0 0.45889,0.14882 0.17983,0.14677 0.17983,0.30593 0,0.0786 -0.0517,0.12816 -0.0496,0.0475 -0.14056,0.0475 -0.12196,0 -0.18397,-0.0786 -0.0351,-0.0434 -0.0475,-0.16536 -0.0103,-0.12196 -0.0827,-0.18604 -0.0723,-0.062 -0.2005,-0.062 -0.20671,0 -0.3328,0.15296 -0.16743,0.20257 -0.16743,0.53537 0,0.339 0.16537,0.59945 0.16743,0.25838 0.45062,0.25838 0.20257,0 0.3638,-0.1385 0.11369,-0.0951 0.22117,-0.34519 z m 1.19682,-1.22989 q 0.42995,0 0.6904,0.32659 0.22117,0.27905 0.22117,0.64079 0,0.25425 -0.12195,0.5147 -0.12196,0.26044 -0.33693,0.39274 -0.21291,0.13229 -0.47543,0.13229 -0.42788,0 -0.68006,-0.34107 -0.2129,-0.28732 -0.2129,-0.64492 0,-0.26045 0.12815,-0.51676 0.13023,-0.25838 0.34107,-0.38034 0.21084,-0.12402 0.44648,-0.12402 z m -0.0641,0.13436 q -0.10955,0 -0.22117,0.0661 -0.10956,0.0641 -0.17777,0.22738 -0.0682,0.16329 -0.0682,0.41961 0,0.41341 0.1633,0.71313 0.16536,0.29973 0.43408,0.29973 0.2005,0 0.33073,-0.16537 0.13022,-0.16536 0.13022,-0.56844 0,-0.50436 -0.21704,-0.79375 -0.14676,-0.19843 -0.37414,-0.19843 z m 1.80868,-0.13436 v 0.42581 q 0.23771,-0.42581 0.48782,-0.42581 0.11369,0 0.1881,0.0703 0.0744,0.0682 0.0744,0.15916 0,0.0806 -0.0537,0.13643 -0.0537,0.0558 -0.12815,0.0558 -0.0724,0 -0.1633,-0.0703 -0.0889,-0.0724 -0.13229,-0.0724 -0.0372,0 -0.0806,0.0413 -0.093,0.0847 -0.19223,0.27905 v 0.90744 q 0,0.1571 0.0393,0.23771 0.0269,0.0558 0.0951,0.093 0.0682,0.0372 0.19637,0.0372 v 0.0744 h -0.96945 v -0.0744 q 0.14469,0 0.21497,-0.0455 0.0517,-0.0331 0.0724,-0.10542 0.0103,-0.0351 0.0103,-0.2005 v -0.73381 q 0,-0.33073 -0.0145,-0.39274 -0.0124,-0.0641 -0.0496,-0.093 -0.0351,-0.0289 -0.0889,-0.0289 -0.0641,0 -0.14469,0.031 l -0.0207,-0.0744 0.57257,-0.23151 z m 1.17408,0.76894 q -0.002,0.42168 0.20464,0.66146 0.20671,0.23978 0.48576,0.23978 0.18604,0 0.32246,-0.10129 0.13849,-0.10335 0.23151,-0.3514 l 0.0641,0.0413 q -0.0434,0.28319 -0.25218,0.51677 -0.20877,0.23151 -0.52297,0.23151 -0.34106,0 -0.58497,-0.26459 -0.24185,-0.26665 -0.24185,-0.7152 0,-0.48575 0.24805,-0.75654 0.25011,-0.27285 0.62632,-0.27285 0.31832,0 0.52296,0.21084 0.20464,0.20877 0.20464,0.56017 z m 0,-0.11989 h 0.87644 q -0.0103,-0.1819 -0.0434,-0.25631 -0.0517,-0.11576 -0.15503,-0.1819 -0.10129,-0.0661 -0.21291,-0.0661 -0.17156,0 -0.30799,0.13436 -0.13436,0.13229 -0.1571,0.37 z"
       id="text5-6-7"
       style="font-size:4.23333px;font-family:'Times New Roman';-inkscape-font-specification:'Times New Roman, ';stroke-width:0.421322;marker-start:none;marker-end:none"
       aria-label="core" />
    <path
       d="m 148.00734,229.37101 q -0.0765,0.37414 -0.29973,0.57671 -0.22324,0.2005 -0.49402,0.2005 -0.32246,0 -0.56224,-0.27078 -0.23978,-0.27078 -0.23978,-0.73174 0,-0.44648 0.26458,-0.72553 0.26665,-0.27906 0.63872,-0.27906 0.27906,0 0.45889,0.14883 0.17983,0.14676 0.17983,0.30593 0,0.0785 -0.0517,0.12815 -0.0496,0.0476 -0.14056,0.0476 -0.12196,0 -0.18397,-0.0786 -0.0351,-0.0434 -0.0475,-0.16537 -0.0103,-0.12195 -0.0827,-0.18603 -0.0723,-0.062 -0.2005,-0.062 -0.20671,0 -0.3328,0.15296 -0.16743,0.20257 -0.16743,0.53537 0,0.33899 0.16537,0.59944 0.16743,0.25838 0.45062,0.25838 0.20257,0 0.3638,-0.13849 0.11369,-0.0951 0.22117,-0.3452 z m 1.19682,-1.2299 q 0.42995,0 0.6904,0.3266 0.22117,0.27905 0.22117,0.64079 0,0.25424 -0.12195,0.51469 -0.12196,0.26045 -0.33693,0.39274 -0.21291,0.13229 -0.47543,0.13229 -0.42788,0 -0.68006,-0.34106 -0.2129,-0.28732 -0.2129,-0.64492 0,-0.26045 0.12815,-0.51676 0.13023,-0.25839 0.34107,-0.38034 0.21084,-0.12403 0.44648,-0.12403 z m -0.0641,0.13436 q -0.10955,0 -0.22117,0.0661 -0.10956,0.0641 -0.17777,0.22737 -0.0682,0.1633 -0.0682,0.41962 0,0.41341 0.1633,0.71313 0.16536,0.29972 0.43408,0.29972 0.2005,0 0.33073,-0.16536 0.13022,-0.16536 0.13022,-0.56844 0,-0.50436 -0.21704,-0.79375 -0.14676,-0.19844 -0.37414,-0.19844 z m 1.80868,-0.13436 v 0.42582 q 0.23771,-0.42582 0.48782,-0.42582 0.11369,0 0.1881,0.0703 0.0744,0.0682 0.0744,0.15917 0,0.0806 -0.0537,0.13642 -0.0537,0.0558 -0.12815,0.0558 -0.0724,0 -0.1633,-0.0703 -0.0889,-0.0723 -0.13229,-0.0723 -0.0372,0 -0.0806,0.0413 -0.093,0.0847 -0.19223,0.27905 v 0.90744 q 0,0.15709 0.0393,0.23771 0.0269,0.0558 0.0951,0.093 0.0682,0.0372 0.19637,0.0372 v 0.0744 h -0.96945 v -0.0744 q 0.14469,0 0.21497,-0.0455 0.0517,-0.0331 0.0724,-0.10542 0.0103,-0.0351 0.0103,-0.20051 v -0.7338 q 0,-0.33073 -0.0145,-0.39274 -0.0124,-0.0641 -0.0496,-0.093 -0.0351,-0.0289 -0.0889,-0.0289 -0.0641,0 -0.14469,0.031 l -0.0207,-0.0744 0.57257,-0.23151 z m 1.17408,0.76895 q -0.002,0.42168 0.20464,0.66146 0.20671,0.23977 0.48576,0.23977 0.18604,0 0.32246,-0.10128 0.13849,-0.10335 0.23151,-0.3514 l 0.0641,0.0413 q -0.0434,0.28319 -0.25218,0.51676 -0.20877,0.23151 -0.52297,0.23151 -0.34106,0 -0.58497,-0.26458 -0.24185,-0.26665 -0.24185,-0.7152 0,-0.48576 0.24805,-0.75654 0.25011,-0.27285 0.62632,-0.27285 0.31832,0 0.52296,0.21084 0.20464,0.20877 0.20464,0.56017 z m 0,-0.11989 h 0.87644 q -0.0103,-0.1819 -0.0434,-0.25632 -0.0517,-0.11575 -0.15503,-0.1819 -0.10129,-0.0661 -0.21291,-0.0661 -0.17156,0 -0.30799,0.13436 -0.13436,0.13229 -0.1571,0.37 z"
       id="text5-6-3"
       style="font-size:4.23333px;font-family:'Times New Roman';-inkscape-font-specification:'Times New Roman, ';stroke-width:0.421322;marker-start:none;marker-end:none"
       aria-label="core" />
    <path
       d="m 148.00734,245.88264 q -0.0765,0.37414 -0.29973,0.57671 -0.22324,0.2005 -0.49402,0.2005 -0.32246,0 -0.56224,-0.27078 -0.23978,-0.27079 -0.23978,-0.73174 0,-0.44648 0.26458,-0.72554 0.26665,-0.27905 0.63872,-0.27905 0.27906,0 0.45889,0.14883 0.17983,0.14676 0.17983,0.30592 0,0.0785 -0.0517,0.12816 -0.0496,0.0475 -0.14056,0.0475 -0.12196,0 -0.18397,-0.0785 -0.0351,-0.0434 -0.0475,-0.16536 -0.0103,-0.12196 -0.0827,-0.18603 -0.0723,-0.062 -0.2005,-0.062 -0.20671,0 -0.3328,0.15297 -0.16743,0.20257 -0.16743,0.53536 0,0.339 0.16537,0.59945 0.16743,0.25838 0.45062,0.25838 0.20257,0 0.3638,-0.13849 0.11369,-0.0951 0.22117,-0.3452 z m 1.19682,-1.2299 q 0.42995,0 0.6904,0.3266 0.22117,0.27905 0.22117,0.64078 0,0.25425 -0.12195,0.5147 -0.12196,0.26045 -0.33693,0.39274 -0.21291,0.13229 -0.47543,0.13229 -0.42788,0 -0.68006,-0.34106 -0.2129,-0.28732 -0.2129,-0.64492 0,-0.26045 0.12815,-0.51677 0.13023,-0.25838 0.34107,-0.38034 0.21084,-0.12402 0.44648,-0.12402 z m -0.0641,0.13436 q -0.10955,0 -0.22117,0.0661 -0.10956,0.0641 -0.17777,0.22737 -0.0682,0.1633 -0.0682,0.41961 0,0.41341 0.1633,0.71314 0.16536,0.29972 0.43408,0.29972 0.2005,0 0.33073,-0.16536 0.13022,-0.16537 0.13022,-0.56844 0,-0.50437 -0.21704,-0.79375 -0.14676,-0.19844 -0.37414,-0.19844 z m 1.80868,-0.13436 v 0.42581 q 0.23771,-0.42581 0.48782,-0.42581 0.11369,0 0.1881,0.0703 0.0744,0.0682 0.0744,0.15916 0,0.0806 -0.0537,0.13643 -0.0537,0.0558 -0.12815,0.0558 -0.0724,0 -0.1633,-0.0703 -0.0889,-0.0724 -0.13229,-0.0724 -0.0372,0 -0.0806,0.0413 -0.093,0.0848 -0.19223,0.27906 v 0.90743 q 0,0.1571 0.0393,0.23772 0.0269,0.0558 0.0951,0.093 0.0682,0.0372 0.19637,0.0372 v 0.0744 h -0.96945 v -0.0744 q 0.14469,0 0.21497,-0.0455 0.0517,-0.0331 0.0724,-0.10542 0.0103,-0.0351 0.0103,-0.20051 v -0.7338 q 0,-0.33073 -0.0145,-0.39274 -0.0124,-0.0641 -0.0496,-0.093 -0.0351,-0.0289 -0.0889,-0.0289 -0.0641,0 -0.14469,0.031 l -0.0207,-0.0744 0.57257,-0.23151 z m 1.17408,0.76895 q -0.002,0.42168 0.20464,0.66145 0.20671,0.23978 0.48576,0.23978 0.18604,0 0.32246,-0.10128 0.13849,-0.10336 0.23151,-0.3514 l 0.0641,0.0413 q -0.0434,0.28318 -0.25218,0.51676 -0.20877,0.23151 -0.52297,0.23151 -0.34106,0 -0.58497,-0.26458 -0.24185,-0.26665 -0.24185,-0.7152 0,-0.48576 0.24805,-0.75654 0.25011,-0.27286 0.62632,-0.27286 0.31832,0 0.52296,0.21084 0.20464,0.20878 0.20464,0.56018 z m 0,-0.11989 h 0.87644 q -0.0103,-0.1819 -0.0434,-0.25632 -0.0517,-0.11575 -0.15503,-0.1819 -0.10129,-0.0662 -0.21291,-0.0662 -0.17156,0 -0.30799,0.13436 -0.13436,0.1323 -0.1571,0.37001 z"
       id="text5-6-0"
       style="font-size:4.23333px;font-family:'Times New Roman';-inkscape-font-specification:'Times New Roman, ';stroke-width:0.421322;marker-start:none;marker-end:none"
       aria-label="core" />
    <path
       d="m 148.00734,261.79583 q -0.0765,0.37414 -0.29973,0.57671 -0.22324,0.2005 -0.49402,0.2005 -0.32246,0 -0.56224,-0.27078 -0.23978,-0.27078 -0.23978,-0.73174 0,-0.44648 0.26458,-0.72553 0.26665,-0.27906 0.63872,-0.27906 0.27906,0 0.45889,0.14883 0.17983,0.14676 0.17983,0.30593 0,0.0785 -0.0517,0.12815 -0.0496,0.0476 -0.14056,0.0476 -0.12196,0 -0.18397,-0.0786 -0.0351,-0.0434 -0.0475,-0.16537 -0.0103,-0.12195 -0.0827,-0.18603 -0.0723,-0.062 -0.2005,-0.062 -0.20671,0 -0.3328,0.15296 -0.16743,0.20257 -0.16743,0.53537 0,0.33899 0.16537,0.59944 0.16743,0.25838 0.45062,0.25838 0.20257,0 0.3638,-0.13849 0.11369,-0.0951 0.22117,-0.3452 z m 1.19682,-1.2299 q 0.42995,0 0.6904,0.3266 0.22117,0.27905 0.22117,0.64079 0,0.25424 -0.12195,0.51469 -0.12196,0.26045 -0.33693,0.39274 -0.21291,0.13229 -0.47543,0.13229 -0.42788,0 -0.68006,-0.34106 -0.2129,-0.28732 -0.2129,-0.64492 0,-0.26045 0.12815,-0.51676 0.13023,-0.25839 0.34107,-0.38034 0.21084,-0.12403 0.44648,-0.12403 z m -0.0641,0.13436 q -0.10955,0 -0.22117,0.0661 -0.10956,0.0641 -0.17777,0.22737 -0.0682,0.1633 -0.0682,0.41962 0,0.41341 0.1633,0.71313 0.16536,0.29972 0.43408,0.29972 0.2005,0 0.33073,-0.16536 0.13022,-0.16537 0.13022,-0.56844 0,-0.50436 -0.21704,-0.79375 -0.14676,-0.19844 -0.37414,-0.19844 z m 1.80868,-0.13436 v 0.42582 q 0.23771,-0.42582 0.48782,-0.42582 0.11369,0 0.1881,0.0703 0.0744,0.0682 0.0744,0.15917 0,0.0806 -0.0537,0.13642 -0.0537,0.0558 -0.12815,0.0558 -0.0724,0 -0.1633,-0.0703 -0.0889,-0.0723 -0.13229,-0.0723 -0.0372,0 -0.0806,0.0413 -0.093,0.0847 -0.19223,0.27905 v 0.90744 q 0,0.15709 0.0393,0.23771 0.0269,0.0558 0.0951,0.093 0.0682,0.0372 0.19637,0.0372 v 0.0744 h -0.96945 v -0.0744 q 0.14469,0 0.21497,-0.0455 0.0517,-0.0331 0.0724,-0.10542 0.0103,-0.0351 0.0103,-0.20051 v -0.7338 q 0,-0.33073 -0.0145,-0.39274 -0.0124,-0.0641 -0.0496,-0.093 -0.0351,-0.0289 -0.0889,-0.0289 -0.0641,0 -0.14469,0.031 l -0.0207,-0.0744 0.57257,-0.23151 z m 1.17408,0.76895 q -0.002,0.42168 0.20464,0.66146 0.20671,0.23977 0.48576,0.23977 0.18604,0 0.32246,-0.10128 0.13849,-0.10335 0.23151,-0.3514 l 0.0641,0.0413 q -0.0434,0.28319 -0.25218,0.51676 -0.20877,0.23151 -0.52297,0.23151 -0.34106,0 -0.58497,-0.26458 -0.24185,-0.26665 -0.24185,-0.7152 0,-0.48576 0.24805,-0.75654 0.25011,-0.27285 0.62632,-0.27285 0.31832,0 0.52296,0.21084 0.20464,0.20877 0.20464,0.56017 z m 0,-0.11989 h 0.87644 q -0.0103,-0.1819 -0.0434,-0.25632 -0.0517,-0.11575 -0.15503,-0.1819 -0.10129,-0.0661 -0.21291,-0.0661 -0.17156,0 -0.30799,0.13436 -0.13436,0.13229 -0.1571,0.37 z"
       id="text5-6-6"
       style="font-size:4.23333px;font-family:'Times New Roman';-inkscape-font-specification:'Times New Roman, ';stroke-width:0.421322;marker-start:none;marker-end:none"
       aria-label="core" />
    <path
       d="m -249.60076,70.682191 q 0.33279,-0.401009 0.63458,-0.401009 0.15503,0 0.26665,0.07855 0.11162,0.07648 0.17777,0.254248 0.0455,0.124023 0.0455,0.380338 v 0.808219 q 0,0.179834 0.0289,0.243912 0.0227,0.05168 0.0724,0.08062 0.0517,0.02894 0.1881,0.02894 v 0.07441 h -0.93637 v -0.07441 h 0.0393 q 0.13229,0 0.18397,-0.03927 0.0537,-0.04134 0.0744,-0.119889 0.008,-0.03101 0.008,-0.194303 v -0.775146 q 0,-0.258382 -0.0682,-0.374137 -0.0661,-0.117822 -0.22531,-0.117822 -0.24598,0 -0.48989,0.268717 v 0.998388 q 0,0.192236 0.0227,0.237711 0.0289,0.05994 0.0785,0.08888 0.0517,0.02687 0.20671,0.02687 v 0.07441 h -0.93638 v -0.07441 h 0.0413 q 0.1447,0 0.19431,-0.07235 0.0517,-0.07441 0.0517,-0.281119 v -0.702799 q 0,-0.341064 -0.0165,-0.415478 -0.0145,-0.07441 -0.0476,-0.101286 -0.031,-0.02687 -0.0847,-0.02687 -0.0579,0 -0.1385,0.03101 l -0.031,-0.07441 0.5705,-0.23151 h 0.0889 z m 2.4908,-0.401009 q 0.42995,0 0.6904,0.326595 0.22117,0.279052 0.22117,0.640787 0,0.254248 -0.12196,0.514697 -0.12195,0.260449 -0.33693,0.39274 -0.2129,0.132292 -0.47542,0.132292 -0.42788,0 -0.68006,-0.341064 -0.21291,-0.287321 -0.21291,-0.644922 0,-0.260449 0.12816,-0.516763 0.13023,-0.258382 0.34107,-0.380339 0.21084,-0.124023 0.44648,-0.124023 z m -0.0641,0.134359 q -0.10955,0 -0.22117,0.06614 -0.10956,0.06408 -0.17777,0.227376 -0.0682,0.163298 -0.0682,0.419613 0,0.413411 0.16329,0.713134 0.16537,0.299723 0.43409,0.299723 0.2005,0 0.33072,-0.165364 0.13023,-0.165365 0.13023,-0.568441 0,-0.504361 -0.21704,-0.793749 -0.14676,-0.198437 -0.37414,-0.198437 z m 2.59209,1.601968 q -0.13849,0.144694 -0.27079,0.208772 -0.13229,0.06201 -0.28525,0.06201 -0.31006,0 -0.54157,-0.258382 -0.23151,-0.260449 -0.23151,-0.667659 0,-0.40721 0.25632,-0.74414 0.25631,-0.338997 0.65939,-0.338997 0.25011,0 0.41341,0.159163 v -0.349332 q 0,-0.324528 -0.0165,-0.398942 -0.0145,-0.07441 -0.0475,-0.101286 -0.0331,-0.02687 -0.0827,-0.02687 -0.0537,0 -0.14263,0.03307 l -0.0269,-0.07235 0.56431,-0.231511 h 0.093 v 2.189012 q 0,0.332796 0.0145,0.40721 0.0165,0.07235 0.0496,0.101286 0.0351,0.02894 0.0806,0.02894 0.0558,0 0.14882,-0.03514 l 0.0227,0.07235 -0.56224,0.233577 h -0.0951 z m 0,-0.144694 v -0.97565 q -0.0124,-0.14056 -0.0744,-0.256315 -0.062,-0.115755 -0.16536,-0.173633 -0.10129,-0.05994 -0.19844,-0.05994 -0.1819,0 -0.32453,0.163298 -0.1881,0.214974 -0.1881,0.628385 0,0.417545 0.1819,0.640787 0.1819,0.221175 0.40515,0.221175 0.1881,0 0.3638,-0.188102 z m 1.0976,-0.822688 q -0.002,0.421679 0.20464,0.661457 0.20671,0.239779 0.48576,0.239779 0.18604,0 0.32246,-0.101286 0.13849,-0.103353 0.23151,-0.351399 l 0.0641,0.04134 q -0.0434,0.283186 -0.25218,0.516764 -0.20877,0.23151 -0.52296,0.23151 -0.34107,0 -0.58498,-0.264583 -0.24185,-0.26665 -0.24185,-0.715201 0,-0.485758 0.24805,-0.756543 0.25011,-0.272851 0.62632,-0.272851 0.31832,0 0.52296,0.21084 0.20464,0.208772 0.20464,0.560172 z m 0,-0.11989 h 0.87644 q -0.0103,-0.1819 -0.0434,-0.256314 -0.0517,-0.115756 -0.15503,-0.181901 -0.10129,-0.06615 -0.21291,-0.06615 -0.17156,0 -0.30799,0.134358 -0.13436,0.132292 -0.1571,0.370003 z m 2.63964,-0.08475 q 0,-0.479557 0.14469,-0.824755 0.14469,-0.347265 0.38447,-0.516764 0.18604,-0.134359 0.38447,-0.134359 0.32246,0 0.57878,0.328662 0.32039,0.40721 0.32039,1.103808 0,0.487825 -0.14056,0.828889 -0.14056,0.341064 -0.35966,0.496094 -0.21705,0.152962 -0.41962,0.152962 -0.40101,0 -0.66766,-0.473356 -0.2253,-0.398942 -0.2253,-0.961181 z m 0.40514,0.05168 q 0,0.578775 0.14262,0.944644 0.11783,0.307991 0.3514,0.307991 0.11163,0 0.23151,-0.09922 0.11989,-0.101286 0.18191,-0.336931 0.0951,-0.355533 0.0951,-1.002521 0,-0.479557 -0.0992,-0.799951 -0.0744,-0.237711 -0.19223,-0.33693 -0.0848,-0.06821 -0.20464,-0.06821 -0.14056,0 -0.25012,0.126091 -0.14882,0.171565 -0.20257,0.539501 -0.0537,0.367936 -0.0537,0.725537 z m 3.31142,-0.212907 q 0.20671,-0.206706 0.24391,-0.237712 0.093,-0.07855 0.20051,-0.121956 0.10748,-0.04341 0.2129,-0.04341 0.17777,0 0.30593,0.103353 0.12816,0.103353 0.17156,0.299723 0.21291,-0.248047 0.35967,-0.324528 0.14676,-0.07855 0.30179,-0.07855 0.1509,0 0.26665,0.07855 0.11782,0.07648 0.18604,0.252181 0.0455,0.119889 0.0455,0.376204 v 0.81442 q 0,0.177767 0.0269,0.243912 0.0207,0.04548 0.0765,0.07855 0.0558,0.03101 0.1819,0.03101 v 0.07441 h -0.93431 v -0.07441 h 0.0393 q 0.12196,0 0.19017,-0.04754 0.0475,-0.03307 0.0682,-0.10542 0.008,-0.03514 0.008,-0.200504 v -0.81442 q 0,-0.23151 -0.0558,-0.326595 -0.0806,-0.132291 -0.25838,-0.132291 -0.10955,0 -0.22118,0.05581 -0.10955,0.05374 -0.26665,0.202572 l -0.004,0.02274 0.004,0.08888 v 0.903303 q 0,0.194303 0.0207,0.241845 0.0227,0.04754 0.0827,0.08062 0.0599,0.03101 0.20464,0.03101 v 0.07441 h -0.95705 v -0.07441 q 0.15709,0 0.21497,-0.03721 0.0599,-0.03721 0.0827,-0.111621 0.0103,-0.03514 0.0103,-0.204638 v -0.81442 q 0,-0.23151 -0.0682,-0.332796 -0.091,-0.132292 -0.25425,-0.132292 -0.11162,0 -0.22118,0.05994 -0.17156,0.09095 -0.26458,0.204639 v 1.014924 q 0,0.186035 0.0248,0.241845 0.0269,0.05581 0.0765,0.08475 0.0517,0.02687 0.2067,0.02687 v 0.07441 h -0.93637 v -0.07441 q 0.13022,0 0.1819,-0.02687 0.0517,-0.02894 0.0786,-0.08888 0.0269,-0.06201 0.0269,-0.237711 v -0.72347 q 0,-0.312125 -0.0186,-0.403075 -0.0145,-0.06821 -0.0455,-0.09302 -0.031,-0.02687 -0.0848,-0.02687 -0.0579,0 -0.13849,0.03101 l -0.031,-0.07441 0.57051,-0.23151 h 0.0889 z m 3.04891,0.365869 q -0.002,0.421679 0.20464,0.661457 0.2067,0.239779 0.48575,0.239779 0.18604,0 0.32246,-0.101286 0.1385,-0.103353 0.23152,-0.351399 l 0.0641,0.04134 q -0.0434,0.283186 -0.25218,0.516764 -0.20877,0.23151 -0.52296,0.23151 -0.34107,0 -0.58498,-0.264583 -0.24184,-0.26665 -0.24184,-0.715201 0,-0.485758 0.24804,-0.756543 0.25012,-0.272851 0.62632,-0.272851 0.31833,0 0.52297,0.21084 0.20463,0.208772 0.20463,0.560172 z m 0,-0.11989 h 0.87643 q -0.0103,-0.1819 -0.0434,-0.256314 -0.0517,-0.115756 -0.15503,-0.181901 -0.10128,-0.06615 -0.2129,-0.06615 -0.17157,0 -0.308,0.134358 -0.13435,0.132292 -0.15709,0.370003 z m 2.12286,-0.245979 q 0.20671,-0.206706 0.24392,-0.237712 0.093,-0.07855 0.2005,-0.121956 0.10749,-0.04341 0.21291,-0.04341 0.17776,0 0.30592,0.103353 0.12816,0.103353 0.17157,0.299723 0.2129,-0.248047 0.35966,-0.324528 0.14677,-0.07855 0.30179,-0.07855 0.1509,0 0.26665,0.07855 0.11783,0.07648 0.18604,0.252181 0.0455,0.119889 0.0455,0.376204 v 0.81442 q 0,0.177767 0.0269,0.243912 0.0207,0.04548 0.0765,0.07855 0.0558,0.03101 0.1819,0.03101 v 0.07441 h -0.93431 v -0.07441 h 0.0393 q 0.12196,0 0.19017,-0.04754 0.0475,-0.03307 0.0682,-0.10542 0.008,-0.03514 0.008,-0.200504 v -0.81442 q 0,-0.23151 -0.0558,-0.326595 -0.0806,-0.132291 -0.25838,-0.132291 -0.10955,0 -0.22117,0.05581 -0.10956,0.05374 -0.26665,0.202572 l -0.004,0.02274 0.004,0.08888 v 0.903303 q 0,0.194303 0.0207,0.241845 0.0227,0.04754 0.0827,0.08062 0.0599,0.03101 0.20464,0.03101 v 0.07441 h -0.95705 v -0.07441 q 0.1571,0 0.21497,-0.03721 0.06,-0.03721 0.0827,-0.111621 0.0103,-0.03514 0.0103,-0.204638 v -0.81442 q 0,-0.23151 -0.0682,-0.332796 -0.0909,-0.132292 -0.25425,-0.132292 -0.11162,0 -0.22117,0.05994 -0.17157,0.09095 -0.26459,0.204639 v 1.014924 q 0,0.186035 0.0248,0.241845 0.0269,0.05581 0.0765,0.08475 0.0517,0.02687 0.2067,0.02687 v 0.07441 h -0.93637 v -0.07441 q 0.13022,0 0.1819,-0.02687 0.0517,-0.02894 0.0786,-0.08888 0.0269,-0.06201 0.0269,-0.237711 v -0.72347 q 0,-0.312125 -0.0186,-0.403075 -0.0145,-0.06821 -0.0455,-0.09302 -0.031,-0.02687 -0.0847,-0.02687 -0.0579,0 -0.13849,0.03101 l -0.031,-0.07441 0.57051,-0.23151 h 0.0889 z m 3.65662,-0.403076 q 0.42995,0 0.6904,0.326595 0.22118,0.279052 0.22118,0.640787 0,0.254248 -0.12196,0.514697 -0.12196,0.260449 -0.33693,0.39274 -0.21291,0.132292 -0.47542,0.132292 -0.42788,0 -0.68006,-0.341064 -0.21291,-0.287321 -0.21291,-0.644922 0,-0.260449 0.12816,-0.516763 0.13022,-0.258382 0.34106,-0.380339 0.21084,-0.124023 0.44648,-0.124023 z m -0.0641,0.134359 q -0.10956,0 -0.22118,0.06614 -0.10955,0.06408 -0.17777,0.227376 -0.0682,0.163298 -0.0682,0.419613 0,0.413411 0.1633,0.713134 0.16536,0.299723 0.43408,0.299723 0.20051,0 0.33073,-0.165364 0.13022,-0.165365 0.13022,-0.568441 0,-0.504361 -0.21704,-0.793749 -0.14676,-0.198437 -0.37413,-0.198437 z m 1.80867,-0.134359 v 0.425813 q 0.23771,-0.425813 0.48782,-0.425813 0.11369,0 0.18811,0.07028 0.0744,0.06821 0.0744,0.159163 0,0.08061 -0.0537,0.136426 -0.0537,0.05581 -0.12816,0.05581 -0.0724,0 -0.1633,-0.07028 -0.0889,-0.07235 -0.13229,-0.07235 -0.0372,0 -0.0806,0.04134 -0.093,0.08475 -0.19224,0.279052 v 0.907437 q 0,0.157097 0.0393,0.237712 0.0269,0.05581 0.0951,0.09302 0.0682,0.03721 0.19637,0.03721 v 0.07441 h -0.96945 v -0.07441 q 0.14469,0 0.21497,-0.04548 0.0517,-0.03307 0.0724,-0.10542 0.0103,-0.03514 0.0103,-0.200504 v -0.733805 q 0,-0.330729 -0.0145,-0.39274 -0.0124,-0.06408 -0.0496,-0.09302 -0.0351,-0.02894 -0.0889,-0.02894 -0.0641,0 -0.14469,0.03101 l -0.0207,-0.07441 0.57257,-0.23151 z m 0.74827,0.05581 h 0.88264 v 0.07648 h -0.0434 q -0.093,0 -0.14056,0.04134 -0.0455,0.03927 -0.0455,0.09922 0,0.08061 0.0682,0.223242 l 0.46095,0.95498 0.42375,-1.04593 q 0.0351,-0.08475 0.0351,-0.167432 0,-0.03721 -0.0145,-0.05581 -0.0165,-0.02274 -0.0517,-0.03514 -0.0351,-0.01447 -0.12402,-0.01447 v -0.07648 h 0.61598 v 0.07648 q -0.0765,0.0083 -0.11782,0.03307 -0.0413,0.02481 -0.0909,0.09302 -0.0186,0.02894 -0.0703,0.159163 l -0.77102,1.889289 q -0.11162,0.274918 -0.29352,0.415478 -0.17983,0.14056 -0.34726,0.14056 -0.12196,0 -0.20051,-0.07028 -0.0786,-0.07028 -0.0786,-0.16123 0,-0.08682 0.0558,-0.14056 0.0579,-0.05168 0.15709,-0.05168 0.0682,0 0.18604,0.04547 0.0827,0.03101 0.10335,0.03101 0.062,0 0.13436,-0.06408 0.0744,-0.06408 0.14883,-0.248047 l 0.13435,-0.328662 -0.68006,-1.428335 q -0.031,-0.06408 -0.0992,-0.159163 -0.0517,-0.07235 -0.0847,-0.09715 -0.0476,-0.03307 -0.15297,-0.05788 z"
       id="text6"
       style="font-size:4.23333px;font-family:'Times New Roman';-inkscape-font-specification:'Times New Roman, ';stroke-width:0.421322;marker-start:none;marker-end:none"
       transform="rotate(-90)"
       aria-label="node 0 memory" />
    <path
       d="m -249.60076,168.31585 q 0.33279,-0.40101 0.63458,-0.40101 0.15503,0 0.26665,0.0786 0.11162,0.0765 0.17777,0.25425 0.0455,0.12402 0.0455,0.38034 v 0.80821 q 0,0.17984 0.0289,0.24392 0.0227,0.0517 0.0724,0.0806 0.0517,0.0289 0.1881,0.0289 v 0.0744 h -0.93637 v -0.0744 h 0.0393 q 0.13229,0 0.18397,-0.0393 0.0537,-0.0413 0.0744,-0.11989 0.008,-0.031 0.008,-0.19431 v -0.77514 q 0,-0.25838 -0.0682,-0.37414 -0.0661,-0.11782 -0.22531,-0.11782 -0.24598,0 -0.48989,0.26872 v 0.99838 q 0,0.19224 0.0227,0.23772 0.0289,0.0599 0.0785,0.0889 0.0517,0.0269 0.20671,0.0269 v 0.0744 h -0.93638 v -0.0744 h 0.0413 q 0.1447,0 0.19431,-0.0724 0.0517,-0.0744 0.0517,-0.28112 v -0.70279 q 0,-0.34107 -0.0165,-0.41548 -0.0145,-0.0744 -0.0476,-0.10129 -0.031,-0.0269 -0.0847,-0.0269 -0.0579,0 -0.1385,0.031 l -0.031,-0.0744 0.5705,-0.23151 h 0.0889 z m 2.4908,-0.40101 q 0.42995,0 0.6904,0.3266 0.22117,0.27905 0.22117,0.64078 0,0.25425 -0.12196,0.5147 -0.12195,0.26045 -0.33693,0.39274 -0.2129,0.13229 -0.47542,0.13229 -0.42788,0 -0.68006,-0.34106 -0.21291,-0.28732 -0.21291,-0.64492 0,-0.26045 0.12816,-0.51677 0.13023,-0.25838 0.34107,-0.38034 0.21084,-0.12402 0.44648,-0.12402 z m -0.0641,0.13436 q -0.10955,0 -0.22117,0.0661 -0.10956,0.0641 -0.17777,0.22737 -0.0682,0.1633 -0.0682,0.41961 0,0.41342 0.16329,0.71314 0.16537,0.29972 0.43409,0.29972 0.2005,0 0.33072,-0.16536 0.13023,-0.16537 0.13023,-0.56844 0,-0.50436 -0.21704,-0.79375 -0.14676,-0.19844 -0.37414,-0.19844 z m 2.59209,1.60197 q -0.13849,0.14469 -0.27079,0.20877 -0.13229,0.062 -0.28525,0.062 -0.31006,0 -0.54157,-0.25838 -0.23151,-0.26045 -0.23151,-0.66766 0,-0.40721 0.25632,-0.74414 0.25631,-0.339 0.65939,-0.339 0.25011,0 0.41341,0.15917 v -0.34933 q 0,-0.32453 -0.0165,-0.39895 -0.0145,-0.0744 -0.0475,-0.10128 -0.0331,-0.0269 -0.0827,-0.0269 -0.0537,0 -0.14263,0.0331 l -0.0269,-0.0724 0.56431,-0.23151 h 0.093 v 2.18901 q 0,0.3328 0.0145,0.40721 0.0165,0.0724 0.0496,0.10129 0.0351,0.0289 0.0806,0.0289 0.0558,0 0.14882,-0.0351 l 0.0227,0.0723 -0.56224,0.23358 h -0.0951 z m 0,-0.1447 v -0.97565 q -0.0124,-0.14056 -0.0744,-0.25631 -0.062,-0.11576 -0.16536,-0.17363 -0.10129,-0.0599 -0.19844,-0.0599 -0.1819,0 -0.32453,0.1633 -0.1881,0.21497 -0.1881,0.62838 0,0.41755 0.1819,0.64079 0.1819,0.22118 0.40515,0.22118 0.1881,0 0.3638,-0.18811 z m 1.0976,-0.82268 q -0.002,0.42168 0.20464,0.66145 0.20671,0.23978 0.48576,0.23978 0.18604,0 0.32246,-0.10128 0.13849,-0.10336 0.23151,-0.3514 l 0.0641,0.0413 q -0.0434,0.28318 -0.25218,0.51676 -0.20877,0.23151 -0.52296,0.23151 -0.34107,0 -0.58498,-0.26458 -0.24185,-0.26665 -0.24185,-0.7152 0,-0.48576 0.24805,-0.75654 0.25011,-0.27286 0.62632,-0.27286 0.31832,0 0.52296,0.21084 0.20464,0.20878 0.20464,0.56018 z m 0,-0.11989 h 0.87644 q -0.0103,-0.1819 -0.0434,-0.25632 -0.0517,-0.11575 -0.15503,-0.1819 -0.10129,-0.0661 -0.21291,-0.0661 -0.17156,0 -0.30799,0.13435 -0.13436,0.1323 -0.1571,0.37001 z m 2.98277,-1.22783 0.68212,-0.3328 h 0.0682 v 2.36678 q 0,0.23564 0.0186,0.29352 0.0207,0.0579 0.0827,0.0889 0.062,0.031 0.25218,0.0351 v 0.0765 h -1.05419 v -0.0765 q 0.19843,-0.004 0.25631,-0.0331 0.0579,-0.031 0.0806,-0.0806 0.0227,-0.0517 0.0227,-0.30386 v -1.51309 q 0,-0.30592 -0.0207,-0.39274 -0.0145,-0.0661 -0.0537,-0.0971 -0.0372,-0.031 -0.0909,-0.031 -0.0765,0 -0.21291,0.0641 z m 3.37343,0.98185 q 0.20671,-0.20671 0.24391,-0.23771 0.093,-0.0786 0.20051,-0.12196 0.10748,-0.0434 0.2129,-0.0434 0.17777,0 0.30593,0.10335 0.12816,0.10336 0.17156,0.29973 0.21291,-0.24805 0.35967,-0.32453 0.14676,-0.0786 0.30179,-0.0786 0.1509,0 0.26665,0.0786 0.11782,0.0765 0.18604,0.25218 0.0455,0.11989 0.0455,0.3762 v 0.81442 q 0,0.17777 0.0269,0.24392 0.0207,0.0455 0.0765,0.0785 0.0558,0.031 0.1819,0.031 v 0.0744 h -0.93431 v -0.0744 h 0.0393 q 0.12196,0 0.19017,-0.0475 0.0475,-0.0331 0.0682,-0.10542 0.008,-0.0351 0.008,-0.20051 v -0.81442 q 0,-0.23151 -0.0558,-0.32659 -0.0806,-0.13229 -0.25838,-0.13229 -0.10955,0 -0.22118,0.0558 -0.10955,0.0537 -0.26665,0.20257 l -0.004,0.0227 0.004,0.0889 v 0.9033 q 0,0.19431 0.0207,0.24185 0.0227,0.0475 0.0827,0.0806 0.0599,0.031 0.20464,0.031 v 0.0744 h -0.95705 v -0.0744 q 0.15709,0 0.21497,-0.0372 0.0599,-0.0372 0.0827,-0.11162 0.0103,-0.0351 0.0103,-0.20464 v -0.81442 q 0,-0.23151 -0.0682,-0.33279 -0.091,-0.13229 -0.25425,-0.13229 -0.11162,0 -0.22118,0.0599 -0.17156,0.0909 -0.26458,0.20464 v 1.01492 q 0,0.18604 0.0248,0.24185 0.0269,0.0558 0.0765,0.0847 0.0517,0.0269 0.2067,0.0269 v 0.0744 h -0.93637 v -0.0744 q 0.13022,0 0.1819,-0.0269 0.0517,-0.0289 0.0786,-0.0889 0.0269,-0.062 0.0269,-0.23772 v -0.72347 q 0,-0.31212 -0.0186,-0.40307 -0.0145,-0.0682 -0.0455,-0.093 -0.031,-0.0269 -0.0848,-0.0269 -0.0579,0 -0.13849,0.031 l -0.031,-0.0744 0.57051,-0.23151 h 0.0889 z m 3.04891,0.36587 q -0.002,0.42168 0.20464,0.66145 0.2067,0.23978 0.48575,0.23978 0.18604,0 0.32246,-0.10128 0.1385,-0.10336 0.23152,-0.3514 l 0.0641,0.0413 q -0.0434,0.28318 -0.25218,0.51676 -0.20877,0.23151 -0.52296,0.23151 -0.34107,0 -0.58498,-0.26458 -0.24184,-0.26665 -0.24184,-0.7152 0,-0.48576 0.24804,-0.75654 0.25012,-0.27286 0.62632,-0.27286 0.31833,0 0.52297,0.21084 0.20463,0.20878 0.20463,0.56018 z m 0,-0.11989 h 0.87643 q -0.0103,-0.1819 -0.0434,-0.25632 -0.0517,-0.11575 -0.15503,-0.1819 -0.10128,-0.0661 -0.2129,-0.0661 -0.17157,0 -0.308,0.13435 -0.13435,0.1323 -0.15709,0.37001 z m 2.12286,-0.24598 q 0.20671,-0.20671 0.24392,-0.23771 0.093,-0.0786 0.2005,-0.12196 0.10749,-0.0434 0.21291,-0.0434 0.17776,0 0.30592,0.10335 0.12816,0.10336 0.17157,0.29973 0.2129,-0.24805 0.35966,-0.32453 0.14677,-0.0786 0.30179,-0.0786 0.1509,0 0.26665,0.0786 0.11783,0.0765 0.18604,0.25218 0.0455,0.11989 0.0455,0.3762 v 0.81442 q 0,0.17777 0.0269,0.24392 0.0207,0.0455 0.0765,0.0785 0.0558,0.031 0.1819,0.031 v 0.0744 h -0.93431 v -0.0744 h 0.0393 q 0.12196,0 0.19017,-0.0475 0.0475,-0.0331 0.0682,-0.10542 0.008,-0.0351 0.008,-0.20051 v -0.81442 q 0,-0.23151 -0.0558,-0.32659 -0.0806,-0.13229 -0.25838,-0.13229 -0.10955,0 -0.22117,0.0558 -0.10956,0.0537 -0.26665,0.20257 l -0.004,0.0227 0.004,0.0889 v 0.9033 q 0,0.19431 0.0207,0.24185 0.0227,0.0475 0.0827,0.0806 0.0599,0.031 0.20464,0.031 v 0.0744 h -0.95705 v -0.0744 q 0.1571,0 0.21497,-0.0372 0.06,-0.0372 0.0827,-0.11162 0.0103,-0.0351 0.0103,-0.20464 v -0.81442 q 0,-0.23151 -0.0682,-0.33279 -0.0909,-0.13229 -0.25425,-0.13229 -0.11162,0 -0.22117,0.0599 -0.17157,0.0909 -0.26459,0.20464 v 1.01492 q 0,0.18604 0.0248,0.24185 0.0269,0.0558 0.0765,0.0847 0.0517,0.0269 0.2067,0.0269 v 0.0744 h -0.93637 v -0.0744 q 0.13022,0 0.1819,-0.0269 0.0517,-0.0289 0.0786,-0.0889 0.0269,-0.062 0.0269,-0.23772 v -0.72347 q 0,-0.31212 -0.0186,-0.40307 -0.0145,-0.0682 -0.0455,-0.093 -0.031,-0.0269 -0.0847,-0.0269 -0.0579,0 -0.13849,0.031 l -0.031,-0.0744 0.57051,-0.23151 h 0.0889 z m 3.65662,-0.40308 q 0.42995,0 0.6904,0.3266 0.22118,0.27905 0.22118,0.64078 0,0.25425 -0.12196,0.5147 -0.12196,0.26045 -0.33693,0.39274 -0.21291,0.13229 -0.47542,0.13229 -0.42788,0 -0.68006,-0.34106 -0.21291,-0.28732 -0.21291,-0.64492 0,-0.26045 0.12816,-0.51677 0.13022,-0.25838 0.34106,-0.38034 0.21084,-0.12402 0.44648,-0.12402 z m -0.0641,0.13436 q -0.10956,0 -0.22118,0.0661 -0.10955,0.0641 -0.17777,0.22737 -0.0682,0.1633 -0.0682,0.41961 0,0.41342 0.1633,0.71314 0.16536,0.29972 0.43408,0.29972 0.20051,0 0.33073,-0.16536 0.13022,-0.16537 0.13022,-0.56844 0,-0.50436 -0.21704,-0.79375 -0.14676,-0.19844 -0.37413,-0.19844 z m 1.80867,-0.13436 v 0.42581 q 0.23771,-0.42581 0.48782,-0.42581 0.11369,0 0.18811,0.0703 0.0744,0.0682 0.0744,0.15916 0,0.0806 -0.0537,0.13643 -0.0537,0.0558 -0.12816,0.0558 -0.0724,0 -0.1633,-0.0703 -0.0889,-0.0724 -0.13229,-0.0724 -0.0372,0 -0.0806,0.0413 -0.093,0.0847 -0.19224,0.27906 v 0.90743 q 0,0.1571 0.0393,0.23772 0.0269,0.0558 0.0951,0.093 0.0682,0.0372 0.19637,0.0372 v 0.0744 h -0.96945 v -0.0744 q 0.14469,0 0.21497,-0.0455 0.0517,-0.0331 0.0724,-0.10542 0.0103,-0.0351 0.0103,-0.20051 v -0.7338 q 0,-0.33073 -0.0145,-0.39274 -0.0124,-0.0641 -0.0496,-0.093 -0.0351,-0.0289 -0.0889,-0.0289 -0.0641,0 -0.14469,0.031 l -0.0207,-0.0744 0.57257,-0.23151 z m 0.74827,0.0558 h 0.88264 v 0.0765 h -0.0434 q -0.093,0 -0.14056,0.0413 -0.0455,0.0393 -0.0455,0.0992 0,0.0806 0.0682,0.22324 l 0.46095,0.95498 0.42375,-1.04593 q 0.0351,-0.0847 0.0351,-0.16743 0,-0.0372 -0.0145,-0.0558 -0.0165,-0.0227 -0.0517,-0.0351 -0.0351,-0.0145 -0.12402,-0.0145 v -0.0765 h 0.61598 v 0.0765 q -0.0765,0.008 -0.11782,0.0331 -0.0413,0.0248 -0.0909,0.093 -0.0186,0.0289 -0.0703,0.15917 l -0.77102,1.88929 q -0.11162,0.27491 -0.29352,0.41547 -0.17983,0.14056 -0.34726,0.14056 -0.12196,0 -0.20051,-0.0703 -0.0786,-0.0703 -0.0786,-0.16123 0,-0.0868 0.0558,-0.14056 0.0579,-0.0517 0.15709,-0.0517 0.0682,0 0.18604,0.0455 0.0827,0.031 0.10335,0.031 0.062,0 0.13436,-0.0641 0.0744,-0.0641 0.14883,-0.24805 l 0.13435,-0.32866 -0.68006,-1.42833 q -0.031,-0.0641 -0.0992,-0.15917 -0.0517,-0.0723 -0.0847,-0.0971 -0.0476,-0.0331 -0.15297,-0.0579 z"
       id="text7"
       style="font-size:4.23333px;font-family:'Times New Roman';-inkscape-font-specification:'Times New Roman, ';stroke-width:0.421322;marker-start:none;marker-end:none"
       transform="rotate(-90)"
       aria-label="node 1 memory" />
    <path
       d="m 67.156432,191.20185 h 0.760676 l 1.713589,2.10219 v -1.61643 q 0,-0.25839 -0.05788,-0.32246 -0.07648,-0.0868 -0.241846,-0.0868 h -0.09715 v -0.0765 h 0.975651 v 0.0765 h -0.09922 q -0.177767,0 -0.252181,0.10749 -0.04548,0.0661 -0.04548,0.30179 v 2.36264 h -0.07441 l -1.847948,-2.25722 v 1.72599 q 0,0.25838 0.05581,0.32246 0.07855,0.0868 0.241845,0.0868 h 0.09922 v 0.0765 h -0.97565 v -0.0765 h 0.09715 q 0.179834,0 0.254248,-0.10748 0.04548,-0.0661 0.04548,-0.30179 v -1.94924 q -0.121956,-0.14262 -0.186035,-0.1881 -0.06201,-0.0455 -0.183967,-0.0847 -0.05994,-0.0186 -0.181901,-0.0186 z m 5.132499,0.0765 v -0.0765 h 0.992186 v 0.0765 h -0.10542 q -0.165364,0 -0.254247,0.13849 -0.04341,0.0641 -0.04341,0.29766 v 1.13688 q 0,0.42168 -0.08475,0.65526 -0.08268,0.23151 -0.328662,0.39894 -0.243912,0.16536 -0.665592,0.16536 -0.458886,0 -0.696597,-0.15916 -0.237712,-0.15916 -0.33693,-0.42788 -0.06615,-0.18397 -0.06615,-0.6904 v -1.09554 q 0,-0.25838 -0.07235,-0.339 -0.07028,-0.0806 -0.229443,-0.0806 h -0.10542 v -0.0765 h 1.211294 v 0.0765 h -0.107486 q -0.173633,0 -0.248047,0.10955 -0.05168,0.0744 -0.05168,0.31006 v 1.22163 q 0,0.1633 0.02894,0.37414 0.03101,0.21084 0.109554,0.32866 0.07855,0.11782 0.225309,0.1943 0.148828,0.0765 0.363802,0.0765 0.274918,0 0.491959,-0.11989 0.217041,-0.11989 0.295589,-0.30593 0.08062,-0.1881 0.08062,-0.63458 v -1.13482 q 0,-0.26251 -0.05788,-0.32866 -0.08061,-0.0909 -0.239779,-0.0909 z m 2.769854,2.72645 -1.083137,-2.35851 v 1.87275 q 0,0.25838 0.05581,0.32246 0.07648,0.0868 0.241846,0.0868 h 0.09922 v 0.0765 h -0.975651 v -0.0765 h 0.09922 q 0.177767,0 0.252181,-0.10748 0.04547,-0.0661 0.04547,-0.30179 v -1.83141 q 0,-0.18604 -0.04134,-0.26872 -0.02894,-0.06 -0.107487,-0.0992 -0.07648,-0.0413 -0.248047,-0.0413 v -0.0765 h 0.79375 l 1.016991,2.19314 1.000455,-2.19314 h 0.793749 v 0.0765 h -0.09715 q -0.179834,0 -0.254248,0.10749 -0.04547,0.0661 -0.04547,0.30179 v 1.83141 q 0,0.25838 0.05788,0.32246 0.07648,0.0868 0.241846,0.0868 h 0.09715 v 0.0765 h -1.190624 v -0.0765 h 0.09922 q 0.179834,0 0.252181,-0.10748 0.04547,-0.0661 0.04547,-0.30179 v -1.87275 l -1.08107,2.35851 z m 3.968746,-0.93845 h -1.085204 l -0.190169,0.44235 q -0.07028,0.1633 -0.07028,0.24392 0,0.0641 0.05994,0.11368 0.06201,0.0476 0.264583,0.062 v 0.0765 h -0.882633 v -0.0765 q 0.1757,-0.031 0.227376,-0.0806 0.10542,-0.0992 0.233577,-0.40308 l 0.985986,-2.30683 h 0.07235 l 0.97565,2.33164 q 0.117822,0.28112 0.212907,0.36587 0.09715,0.0827 0.268717,0.093 v 0.0765 h -1.105875 v -0.0765 q 0.167432,-0.008 0.225309,-0.0558 0.05994,-0.0475 0.05994,-0.11575 0,-0.0909 -0.08268,-0.28732 z m -0.05788,-0.15296 -0.475423,-1.13275 -0.487825,1.13275 z m 2.687173,-0.45682 q 0.332796,-0.40101 0.634586,-0.40101 0.155029,0 0.26665,0.0785 0.111621,0.0765 0.177767,0.25425 0.04547,0.12402 0.04547,0.38034 v 0.80822 q 0,0.17983 0.02894,0.24391 0.02274,0.0517 0.07235,0.0806 0.05168,0.0289 0.188102,0.0289 v 0.0744 h -0.936376 v -0.0744 h 0.03927 q 0.132291,0 0.183968,-0.0393 0.05374,-0.0413 0.07441,-0.11989 0.0083,-0.031 0.0083,-0.1943 v -0.77515 q 0,-0.25838 -0.06821,-0.37414 -0.06615,-0.11782 -0.225309,-0.11782 -0.24598,0 -0.489892,0.26872 v 0.99839 q 0,0.19223 0.02274,0.23771 0.02894,0.0599 0.07855,0.0889 0.05168,0.0269 0.206705,0.0269 v 0.0744 h -0.936376 v -0.0744 h 0.04134 q 0.144694,0 0.194303,-0.0723 0.05168,-0.0744 0.05168,-0.28112 v -0.7028 q 0,-0.34107 -0.01654,-0.41548 -0.01447,-0.0744 -0.04754,-0.10129 -0.03101,-0.0269 -0.08475,-0.0269 -0.05788,0 -0.138493,0.031 l -0.03101,-0.0744 0.570507,-0.23151 h 0.08888 z m 2.490802,-0.40101 q 0.429947,0 0.690396,0.3266 0.221175,0.27905 0.221175,0.64078 0,0.25425 -0.121956,0.5147 -0.121956,0.26045 -0.33693,0.39274 -0.212907,0.13229 -0.475423,0.13229 -0.42788,0 -0.680061,-0.34106 -0.212907,-0.28732 -0.212907,-0.64492 0,-0.26045 0.128158,-0.51677 0.130224,-0.25838 0.341064,-0.38033 0.210839,-0.12403 0.446484,-0.12403 z m -0.06408,0.13436 q -0.109554,0 -0.221175,0.0661 -0.109554,0.0641 -0.177767,0.22737 -0.06821,0.1633 -0.06821,0.41962 0,0.41341 0.163297,0.71313 0.165364,0.29972 0.434082,0.29972 0.200504,0 0.330728,-0.16536 0.130225,-0.16537 0.130225,-0.56844 0,-0.50436 -0.217041,-0.79375 -0.146761,-0.19844 -0.374137,-0.19844 z m 2.592088,1.60197 q -0.138493,0.14469 -0.270785,0.20877 -0.132291,0.062 -0.285253,0.062 -0.310059,0 -0.541569,-0.25838 -0.23151,-0.26045 -0.23151,-0.66766 0,-0.40721 0.256315,-0.74414 0.256315,-0.33899 0.659391,-0.33899 0.250113,0 0.413411,0.15916 v -0.34933 q 0,-0.32453 -0.01654,-0.39895 -0.01447,-0.0744 -0.04754,-0.10128 -0.03307,-0.0269 -0.08268,-0.0269 -0.05374,0 -0.142627,0.0331 l -0.02687,-0.0724 0.564306,-0.23151 h 0.09302 v 2.18901 q 0,0.3328 0.01447,0.40721 0.01654,0.0724 0.04961,0.10129 0.03514,0.0289 0.08061,0.0289 0.05581,0 0.148828,-0.0351 l 0.02274,0.0724 -0.562239,0.23357 h -0.09508 z m 0,-0.14469 v -0.97565 q -0.0124,-0.14056 -0.07441,-0.25632 -0.06201,-0.11575 -0.165365,-0.17363 -0.101285,-0.0599 -0.198437,-0.0599 -0.181901,0 -0.324528,0.1633 -0.188102,0.21497 -0.188102,0.62839 0,0.41754 0.181901,0.64078 0.181901,0.22118 0.405143,0.22118 0.188102,0 0.363802,-0.1881 z m 1.097606,-0.82269 q -0.0021,0.42168 0.204639,0.66146 0.206705,0.23977 0.485758,0.23977 0.186035,0 0.32246,-0.10128 0.138493,-0.10335 0.231511,-0.3514 l 0.06408,0.0413 q -0.04341,0.28319 -0.25218,0.51676 -0.208773,0.23151 -0.522965,0.23151 -0.341065,0 -0.584977,-0.26458 -0.241846,-0.26665 -0.241846,-0.7152 0,-0.48576 0.248047,-0.75654 0.250114,-0.27285 0.626318,-0.27285 0.318326,0 0.522965,0.21084 0.204638,0.20877 0.204638,0.56017 z m 0,-0.11989 h 0.876432 q -0.01033,-0.1819 -0.04341,-0.25632 -0.05168,-0.11575 -0.15503,-0.1819 -0.101285,-0.0661 -0.212906,-0.0661 -0.171566,0 -0.307992,0.13436 -0.134358,0.13229 -0.157096,0.37 z m 2.639629,-0.0847 q 0,-0.47956 0.144694,-0.82476 0.144693,-0.34726 0.384472,-0.51676 0.186035,-0.13436 0.384472,-0.13436 0.322461,0 0.578776,0.32866 0.320393,0.40721 0.320393,1.10381 0,0.48783 -0.140559,0.82889 -0.14056,0.34106 -0.359668,0.49609 -0.217041,0.15297 -0.419612,0.15297 -0.401009,0 -0.667659,-0.47336 -0.225309,-0.39894 -0.225309,-0.96118 z m 0.405143,0.0517 q 0,0.57877 0.142626,0.94464 0.117823,0.30799 0.3514,0.30799 0.111621,0 0.23151,-0.0992 0.119889,-0.10128 0.181901,-0.33693 0.09508,-0.35553 0.09508,-1.00252 0,-0.47956 -0.09922,-0.79995 -0.07441,-0.23771 -0.192236,-0.33693 -0.08475,-0.0682 -0.204639,-0.0682 -0.14056,0 -0.250114,0.12609 -0.148828,0.17156 -0.202571,0.5395 -0.05374,0.36793 -0.05374,0.72554 z"
       id="text2"
       style="font-size:4.23333px;font-family:'Times New Roman';-inkscape-font-specification:'Times New Roman, ';stroke-width:0.421322"
       aria-label="NUMA node 0" />
  </g>
</svg>
